<?xml version="1.0" standalone="no"?>
<!DOCTYPE svg PUBLIC "-//W3C//DTD SVG 1.1//EN" "http://www.w3.org/Graphics/SVG/1.1/DTD/svg11.dtd" >
<svg xmlns="http://www.w3.org/2000/svg" xmlns:xlink="http://www.w3.org/1999/xlink" version="1.1">
<metadata></metadata>
<defs>
<font id="de_luxe_nextregular" horiz-adv-x="1312" >
<font-face units-per-em="2048" ascent="1638" descent="-410" />
<missing-glyph horiz-adv-x="460" />
<glyph horiz-adv-x="0" />
<glyph unicode="&#xd;" horiz-adv-x="1040" />
<glyph unicode=" "  horiz-adv-x="460" />
<glyph unicode="&#x09;" horiz-adv-x="460" />
<glyph unicode="&#xa0;" horiz-adv-x="460" />
<glyph unicode="!" horiz-adv-x="389" d="M92 0v199h205v-199h-205zM92 451v1048h205v-1048h-205z" />
<glyph unicode="&#x22;" horiz-adv-x="739" d="M92 1192v281h195v-281l-41 -281h-113zM453 1192v281h194v-281l-41 -281h-112z" />
<glyph unicode="#" horiz-adv-x="1449" d="M92 428l2 162h266l29 338h-254v159h266l29 326l182 2l-26 -328h348l29 326l184 2l-29 -328h240v-159h-252l-29 -338h238v-162h-252l-31 -369h-180l29 369h-349l-28 -369h-189l31 369h-254zM545 590h348l29 338h-351z" />
<glyph unicode="$" horiz-adv-x="1097" d="M92 1096q14 342 359 389v262h186v-254q184 -8 307 -80l-59 -170q-133 74 -301 78q-299 -12 -310 -225q20 -178 195 -230l137 -43q387 -109 375 -448q-49 -315 -344 -365v-262h-186v258q-201 16 -336 105l86 145q133 -76 348 -74q223 39 248 203q-2 213 -258 268l-150 56 q-285 98 -297 387z" />
<glyph unicode="%" horiz-adv-x="1665" d="M92 1214q10 315 309 326q330 -33 326 -323q6 -303 -317 -316q-308 8 -318 313zM203 -51l1061 1597h206l-1054 -1597h-213zM260 1217q2 -152 154 -162q160 0 157 166q2 154 -168 161q-145 -2 -143 -165zM905 276q12 330 324 340q342 -35 338 -337q6 -315 -332 -328 q-320 8 -330 325zM1081 279q0 -158 160 -168q166 -2 162 172q4 160 -174 168q-150 -2 -148 -172z" />
<glyph unicode="&#x26;" horiz-adv-x="1409" d="M158 590q70 127 207 180q-129 63 -177 193q-45 152 15 301q70 160 221 215q170 61 371 0q162 -45 301 -271l-164 -102q-61 127 -189 192q-129 43 -223 0q-61 -29 -112 -81q-74 -78 -41 -234q63 -121 170 -113h391l4 234h182v-234h154v-182h-154v-387q6 -111 68 -115 q37 0 123 33l12 -184q-92 -37 -168 -35q-121 0 -174 88q-37 -27 -80 -47q-195 -61 -397 -39q-166 45 -271 188q-135 201 -69 400zM348 565q-70 -174 37 -284q55 -47 127 -78q160 -51 311 16q59 39 105 92v377h-393q-111 -8 -187 -123z" />
<glyph unicode="'" horiz-adv-x="378" d="M92 1192v281h195v-281l-41 -281h-113z" />
<glyph unicode="(" horiz-adv-x="798" d="M483 -279q-391 991 11 1919h208q-430 -932 5 -1919h-224z" />
<glyph unicode=")" horiz-adv-x="798" d="M92 1640h223q391 -991 -10 -1919h-209q430 932 -4 1919z" />
<glyph unicode="*" horiz-adv-x="858" d="M92 1147l41 121l234 -84v248h127v-248l231 84l41 -121l-219 -82l137 -201l-102 -76l-150 222l-156 -222l-102 76l145 199z" />
<glyph unicode="+" horiz-adv-x="1044" d="M92 629v182h340v373h182v-373h338v-182h-338v-371h-182v371h-340z" />
<glyph unicode="," horiz-adv-x="370" d="M92 0h86v-61q0 -99 -82 -99v-82q182 0 183 181v61v186h-187v-186z" />
<glyph unicode="-" horiz-adv-x="714" d="M92 481v187h531v-187h-531z" />
<glyph unicode="." horiz-adv-x="370" d="M92 0h187v186h-187v-186z" />
<glyph unicode="/" horiz-adv-x="880" d="M92 0l498 1473h198l-499 -1473h-197z" />
<glyph unicode="0" horiz-adv-x="1216" d="M92 748q0 750 516 749q516 1 516 -749q0 -748 -516 -748t-516 748zM279 748q0 -569 335 -570q319 0 320 570q-1 565 -320 565q-336 0 -335 -565z" />
<glyph unicode="1" horiz-adv-x="759" d="M92 1194q244 131 488 301h88v-1495h-185v1200q-156 -104 -313 -170z" />
<glyph unicode="2" horiz-adv-x="1183" d="M92 1094q109 279 322 381q199 80 411 -7q211 -88 254 -317q27 -176 -49 -311q-100 -182 -323 -318q-135 -59 -254 -158.5t-134 -177.5h740v-186h-953q-10 141 28 244.5t120 199.5q115 123 307 222q172 88 258 217q74 109 60 184q-14 162 -123 221q-147 61 -293 -14 q-113 -74 -193 -248z" />
<glyph unicode="3" horiz-adv-x="1247" d="M92 264l176 111q57 -96 150 -156q158 -68 317 -16q61 27 123 96q70 92 57 221q-43 164 -208 168h-228v182h232q133 20 168 115q25 100 -50 217q-43 61 -112 94q-137 59 -268 9q-90 -49 -154 -166l-174 73q125 216 250 271q215 94 448 -8q123 -55 201 -183 q92 -180 47 -342q-55 -141 -207 -170q205 -49 246 -223q31 -207 -86 -367q-104 -143 -268 -188q-223 -41 -410 41q-137 63 -250 221z" />
<glyph unicode="4" horiz-adv-x="1208" d="M92 414v106l684 975h150v-907h190v-174h-190v-414h-185v414h-649zM360 588h381v526z" />
<glyph unicode="5" horiz-adv-x="1208" d="M92 250l137 145q111 -143 221.5 -187t280.5 -3q90 29 148 100q47 78 49 201q0 84 -35 168q-39 92 -141 133q-115 43 -242 -8q-100 -55 -172 -164l-223 110l61 750h844v-186h-668l-43 -435q76 74 191 111q156 49 331 -4q119 -51 191 -147q94 -145 86 -328 q-2 -221 -92 -340q-78 -100 -176 -139q-244 -70 -423 -9.5t-325 232.5z" />
<glyph unicode="6" horiz-adv-x="1208" d="M102 532q-10 281 78 525q70 195 250 317q195 119 451 123v-188q-244 -25 -340 -97q-150 -106 -219 -344q123 98 344 119q434 -33 450 -493q-10 -213 -125 -357q-131 -131 -377 -137q-238 12 -370 168q-133 166 -142 364zM311 629q6 -242 88 -318q98 -113 217 -114 q145 0 218 71q90 92 92 224q-10 297 -271 296q-229 -3 -344 -159z" />
<glyph unicode="7" horiz-adv-x="1208" d="M92 1309v186h1024v-104q-416 -694 -526 -1391h-195q119 696 463 1309h-766z" />
<glyph unicode="8" horiz-adv-x="1208" d="M92 434q0 182 174 311q33 30 66 48q-8 6 -21 16q-154 119 -153 287q0 168 131 285.5t317 117.5t317.5 -117.5t131.5 -285.5t-154 -287q-12 -12 -20 -18q31 -16 63 -46q172 -129 172 -311t-149.5 -310t-362.5 -128q-211 0 -361.5 128t-150.5 310zM289 434q0 -104 87 -174 t228 -70t228.5 70t87.5 174t-87.5 178t-228.5 74t-228 -73.5t-87 -178.5zM348 1096q0 -96 53 -146q53 -45 117 -61q31 -6 84 -6t88 6q63 16 117 61q53 49 53 146q0 94 -65.5 152.5t-190.5 58.5t-190.5 -58.5t-65.5 -152.5z" />
<glyph unicode="9" horiz-adv-x="1208" d="M100 1004q10 213 125 356q131 131 377 137q238 -12 371 -168q133 -166 141 -364q10 -281 -78 -525q-70 -195 -250 -317q-195 -119 -450 -123v188q244 25 340 97q150 106 219 344q-123 -98 -344 -119q-434 33 -451 494zM291 1006q10 -297 270 -297q229 3 344 159 q-6 242 -88 318q-98 113 -217 114q-145 0 -217 -71q-90 -92 -92 -223z" />
<glyph unicode=":" horiz-adv-x="370" d="M92 0h187v186h-187v-186zM92 872h187v187h-187v-187z" />
<glyph unicode=";" horiz-adv-x="370" d="M92 0h86v-61q0 -99 -82 -99v-82q182 0 183 181v61v186h-187v-186zM92 872h187v187h-187v-187z" />
<glyph unicode="&#x3c;" horiz-adv-x="1038" d="M92 596v217l852 346l2 -194l-672 -260l672 -250l-2 -205z" />
<glyph unicode="=" horiz-adv-x="1052" d="M92 424v186h869v-186h-869zM92 813v186h869v-186h-869z" />
<glyph unicode="&#x3e;" horiz-adv-x="1038" d="M92 455l672 250l-672 260l2 194l852 -346v-217l-852 -346z" />
<glyph unicode="?" horiz-adv-x="950" d="M92 1434q244 131 565 51q156 -57 183 -232q18 -115 6 -179t-58.5 -145t-109 -127t-135.5 -104v-241l-185 -4l-16 340q111 57 149.5 85.5t78.5 77t60.5 76t26.5 135.5q-14 111 -112 140q-184 53 -398 -45zM358 0v199h205v-199h-205z" />
<glyph unicode="@" horiz-adv-x="2029" d="M125 453q-33 516 216 761.5t722 294.5q260 33 558 -189t298 -501q18 -180 -55.5 -420.5t-393.5 -269.5l-518 -12q-328 51 -368 325q-53 233 60.5 422t430.5 240q154 16 289 -68l-14 -751q25 4 54.5 -1t57.5 -5q86 0 144.5 50t92.5 129t43 174t-5 187q-41 260 -216 395.5 t-454 135.5q-426 -49 -598 -253t-154 -636q0 -270 245 -446.5t441 -157.5l402 -4l6 -144l-387 -8q-301 10 -585.5 196.5t-311.5 555.5zM756 467q-12 -242 440 -203l-12 662q-209 12 -331 -90.5t-97 -368.5z" />
<glyph unicode="A" d="M92 0l455 1495h225l449 -1495h-193l-125 385h-495l-109 -385h-207zM444 565h430l-219 680z" />
<glyph unicode="B" horiz-adv-x="1228" d="M92 0v1495h432h17q219 1 345 -147q96 -112 97 -245q0 -49 -13 -99q-48 -190 -194 -238q145 -34 253 -188q51 -73 51 -159q0 -95 -62 -205q-119 -210 -465 -214h-461zM283 186h317q164 0 236 117q36 58 36 117q0 58 -36 116q-72 116 -234 117h-319v-467zM283 840h176 q207 0 283 120q37 59 37 116q1 59 -39 115q-78 112 -281 118h-176v-469z" />
<glyph unicode="C" horiz-adv-x="1175" d="M92 745q0 750 567 750q266 0 424 -227l-120 -121q-160 178 -295 178q-383 0 -383 -580q0 -581 382 -581h1q135 0 295 160l120 -134q-164 -190 -424 -190q-567 0 -567 745z" />
<glyph unicode="D" horiz-adv-x="1263" d="M92 -8v1507h373q707 0 707 -752q0 -755 -695 -755h-385zM285 178h172q516 0 516 566.5t-524 566.5h-164v-1133z" />
<glyph unicode="E" horiz-adv-x="1056" d="M92 2v1489h873v-188h-680v-469h542v-172h-544v-492h678v-168h-869z" />
<glyph unicode="F" horiz-adv-x="1056" d="M92 2v1489h873v-188h-680v-469h542v-172h-544v-660h-191z" />
<glyph unicode="G" horiz-adv-x="1255" d="M92 739q0 -739 584 -739q299 4 487 143v682h-547v-178h369v-375q-140 -102 -335 -102h-15q-356 53 -361 584q17 545 597 545q89 0 192 -13l22 189q-125 17 -234 17q-731 0 -759 -753z" />
<glyph unicode="H" horiz-adv-x="1173" d="M92 0l182 2v666h629v-668h178v1493h-176l-2 -664h-629l2 664h-184v-1493z" />
<glyph unicode="I" horiz-adv-x="370" d="M92 0h187v1493h-187v-1493z" />
<glyph unicode="J" horiz-adv-x="681" d="M92 174l19 -170q455 12 479 488v1003h-187v-1003q-18 -311 -311 -318z" />
<glyph unicode="K" horiz-adv-x="1218" d="M92 0h193v569l174 195l454 -764h213l-542 897l542 598h-245l-596 -661l-2 661h-191v-1495z" />
<glyph unicode="L" horiz-adv-x="1083" d="M92 0h899v188h-706v1307h-193v-1495z" />
<glyph unicode="M" horiz-adv-x="1538" d="M92 0l62 1497h247l373 -973l363 971h247l62 -1495h-186l-41 1198l-349 -919h-186l-365 919l-40 -1198h-187z" />
<glyph unicode="N" horiz-adv-x="1300" d="M92 4v1487h203l727 -1159v1159h186v-1487h-180l-749 1100v-1100h-187z" />
<glyph unicode="O" horiz-adv-x="1320" d="M92 745q0 750 567 750q570 0 570 -750q0 -745 -570 -745q-567 0 -567 745zM285 745q0 -573 383 -573q365 0 364 573q1 572 -364 572q-383 0 -383 -572z" />
<glyph unicode="P" horiz-adv-x="1122" d="M92 0v1495h451q487 0 487 -440.5t-487 -440.5h-264v-614h-187zM279 801h217q356 6 356 264q0 245 -332 245q-18 0 -37 -1h-204v-508z" />
<glyph unicode="Q" horiz-adv-x="1320" d="M92 745q0 750 567 750q569 0 570 -750q0 -352 -127 -538l94 -76l-100 -125l-107 86q-131 -92 -330 -92q-567 0 -567 745zM285 745q0 -573 383 -573q98 0 168 41l-144 115l101 123l155 -123q84 143 84 417q0 571 -364 572q-383 0 -383 -572z" />
<glyph unicode="R" horiz-adv-x="1212" d="M92 0v1495h492q536 0 537 -442q0 -358 -353 -443l317 -610h-225l-307 592l-61 -2h-213v-590h-187zM279 776h208h30q411 0 411 272q0 262 -393 262q-28 0 -58 -1h-198v-533z" />
<glyph unicode="S" horiz-adv-x="1089" d="M92 1096q16 397 481 397h9h10q214 0 352 -80l-59 -170q-133 74 -301 78q-299 -12 -310 -225q20 -178 195 -230l137 -43q375 -106 375 -428v-20q-55 -352 -418 -373h-19q-263 0 -429 109l86 145q130 -74 337 -74h11q223 39 248 203q-2 213 -258 268l-150 56 q-285 98 -297 387z" />
<glyph unicode="T" horiz-adv-x="1144" d="M92 1309h404v-1313h188v1313h369v186h-961v-186z" />
<glyph unicode="U" horiz-adv-x="1261" d="M92 467q22 -465 512 -466h3q487 0 521 462v1032h-188v-844q1 -23 1 -45q0 -420 -331 -420q-328 0 -328 425q0 26 1 53v831h-191v-1028z" />
<glyph unicode="V" horiz-adv-x="1267" d="M92 1495l443 -1499h217l424 1499h-201l-330 -1231l-358 1231h-195z" />
<glyph unicode="W" horiz-adv-x="1835" d="M92 1499h221l195 -1257l301 1259h246l338 -1253l143 1251h207l-215 -1503h-228l-366 1202l-313 -1202h-267z" />
<glyph unicode="X" horiz-adv-x="1392" d="M92 0h234l370 567l371 -567h233l-487 748l487 745h-233l-371 -567l-370 567h-234l488 -745z" />
<glyph unicode="Y" horiz-adv-x="1267" d="M92 1491l445 -987v-508h196v508l443 987h-203l-332 -776l-332 776h-217z" />
<glyph unicode="Z" horiz-adv-x="1343" d="M92 0h1118v188h-835l876 1203v102h-1081v-184h803l-881 -1205v-104z" />
<glyph unicode="[" horiz-adv-x="624" d="M92 -344v1900h440v-165h-239v-1569h239v-166h-440z" />
<glyph unicode="\" horiz-adv-x="880" d="M92 1473h199l497 -1473h-196z" />
<glyph unicode="]" horiz-adv-x="624" d="M92 -178h240v1569h-240v165h440v-1900h-440v166z" />
<glyph unicode="^" horiz-adv-x="1056" d="M92 754l332 719h213l328 -719l-191 -2l-250 548l-239 -548z" />
<glyph unicode="_" horiz-adv-x="1196" d="M92 -31h1012v-149h-1012v149z" />
<glyph unicode="`" horiz-adv-x="679" d="M92 1477h260l236 -260h-205z" />
<glyph unicode="a" horiz-adv-x="978" d="M92 331q0 -331 291 -331h496v674v15q0 370 -373 370h-23l-231 -12v-168l301 12q139 -6 139 -150v-100q-158 20 -317 21q-283 0 -283 -331zM391 504q27 3 58 3q103 0 243 -36v-319h-299q-115 0 -115 167q0 170 113 185z" />
<glyph unicode="b" horiz-adv-x="989" d="M92 0h502q303 0 303 510t-274 549q-15 1 -29 1q-166 0 -315 -85v520h-187v-1495zM279 186v590q157 109 278 109q141 -15 145 -357v-15q0 -327 -149 -327h-274z" />
<glyph unicode="c" horiz-adv-x="931" d="M92 520q0 537 426 537q197 0 322 -178l-111 -111q-121 111 -205 111q-245 0 -245 -356q0 -363 245 -363q84 0 205 98l111 -121q-130 -151 -320 -151h-2q-426 0 -426 534z" />
<glyph unicode="d" horiz-adv-x="989" d="M92 508q0 -508 303 -508h502v1495h-186v-520q-149 85 -315 85q-14 0 -29 -1q-275 -39 -275 -551zM288 528q4 342 144 357q121 0 279 -109v-590h-275q-149 0 -149 327q1 7 1 15z" />
<glyph unicode="e" horiz-adv-x="991" d="M92 520q0 537 430 537q365 0 365 -598v-39h-608q25 -260 249 -260q88 0 213 57l72 -162q-93 -69 -285 -69h-6q-430 0 -430 534zM276 594h429q-2 286 -174 286q-11 0 -23 -1q-13 1 -25 1q-184 0 -207 -286z" />
<glyph unicode="f" horiz-adv-x="704" d="M92 901v158h141v180q0 256 283 256h96v-186h-88q-104 0 -104 -76v-174h190v-158h-190v-901h-187v901h-141z" />
<glyph unicode="g" horiz-adv-x="1034" d="M113 281q25 -199 237 -220q256 4 400 119v-186q0 -127 -98.5 -154.5t-286.5 -46.5l4 -160q295 20 434 90q133 67 133 260v17v1059q-148 10 -276 10q-228 0 -392 -31q-124 -42 -153 -288q-12 -118 -12 -240q0 -113 10 -229zM297 367q-8 88 -8 166q0 125 20 225 q16 86 80 102q69 25 176 25q32 0 68 -2l117 -9q9 -122 9 -252.5t-9 -269.5q-140 -100 -318 -110q-121 4 -135 125z" />
<glyph unicode="h" horiz-adv-x="1013" d="M92 0h187v647q135 231 286 232q10 1 19 1q151 0 151 -265v-19v-596h187v745q-4 309 -351 314q-152 -4 -292 -164v600h-187v-1495z" />
<glyph unicode="i" horiz-adv-x="370" d="M92 0h187v1059h-187v-1059zM92 1309h187v186h-187v-186z" />
<glyph unicode="j" horiz-adv-x="579" d="M92 -266l19 -162q377 0 376 428v1059h-186v-1059q-2 -266 -209 -266zM301 1309h186v186h-186v-186z" />
<glyph unicode="k" horiz-adv-x="993" d="M92 0h187v408l141 147l278 -555h203l-356 672l299 387h-246l-315 -408v844h-191v-1495z" />
<glyph unicode="l" horiz-adv-x="509" d="M92 328q0 -328 326 -328v186q-139 0 -139 138v1171h-187v-1167z" />
<glyph unicode="m" horiz-adv-x="1513" d="M92 0h187v541q0 166 51 248.5t139 97.5q6 1 11 1q148 0 184 -362v-526h186v526q39 351 219 365q106 -12 129 -132q20 -102 20 -204q0 -18 -1 -35v-520h188v520q2 38 2 73q0 286 -117 390q-96 79 -196 79q-13 0 -27 -1q-209 0 -309 -205q-102 201 -287 201 q-133 -8 -184 -101l-4 103h-191v-1059z" />
<glyph unicode="n" horiz-adv-x="976" d="M92 0h187v535q0 156 67.5 252t181.5 108q164 0 170 -309v-586l187 -2v727q-27 332 -355 334q-133 -8 -251 -123l-11 123h-176v-330v-729z" />
<glyph unicode="o" horiz-adv-x="995" d="M92 524q0 528 406 529q405 -1 405 -529q0 -524 -405 -524q-406 0 -406 524zM268 520q0 -358 229 -358h5q219 0 219 362q0 363 -219 363q-233 -4 -234 -367z" />
<glyph unicode="p" horiz-adv-x="989" d="M92 -436h187v520q149 -85 315 -85q14 0 29 1q274 39 274 549t-303 510q-158 -18 -315 -139v139h-187v-1495zM279 283v426q137 154 274 163q152 0 159 -352v-29q0 -317 -150 -317h-5q-120 0 -278 109z" />
<glyph unicode="q" horiz-adv-x="989" d="M92 549q0 -510 275 -549q15 -1 29 -1q166 0 315 85v-520h186v1495h-502q-303 0 -303 -510zM298 530q7 342 138 342h275v-589q-158 -109 -279 -109q-134 13 -134 324v32z" />
<glyph unicode="r" horiz-adv-x="827" d="M92 -2h187v551q0 133 71.5 212t171.5 97h20q70 0 130 -24l63 190q-83 27 -162 26q-30 0 -59 -3q-156 -31 -231 -160v162h-191v-328v-723z" />
<glyph unicode="s" horiz-adv-x="878" d="M92 778q29 307 366 307h9q164 -14 291 -88l-62 -155q-117 63 -229 65h-15q-167 0 -173 -129q12 -104 116 -135l97 -31q284 -79 284 -327v-19q-43 -274 -321 -289h-16q-195 0 -341 97l90 149q108 -61 243 -61h9q125 18 140 110q-2 125 -152 166l-106 39q-219 76 -230 301z M92 778q29 307 366 307h9q164 -14 291 -88l-62 -155q-117 63 -229 65h-15q-167 0 -173 -129q12 -104 116 -135l97 -31q284 -79 284 -327v-19q-43 -274 -321 -289h-16q-195 0 -341 97l90 149q108 -61 243 -61h9q125 18 140 110q-2 125 -152 166l-106 39q-219 76 -230 301z " />
<glyph unicode="t" horiz-adv-x="729" d="M92 901h156v-600q0 -301 221 -301h19q68 0 149 12l-12 164q-86 -10 -123 -10q-61 4 -68 115v620h154v158h-154v250h-186v-250h-156v-158z" />
<glyph unicode="u" horiz-adv-x="940" d="M92 340q20 -372 435 -372q139 0 321 42v326v723h-186v-590v-297q-91 -28 -161 -29q-223 0 -223 289q0 21 1 45v582h-187v-719z" />
<glyph unicode="v" horiz-adv-x="1050" d="M92 1061l309 -1061h238l319 1059h-206l-232 -834l-229 836h-199z" />
<glyph unicode="w" horiz-adv-x="1337" d="M92 1059h191l118 -821l172 821h170l199 -819l102 819h201l-170 -1059h-237l-179 688l-139 -688h-225z" />
<glyph unicode="x" horiz-adv-x="1028" d="M92 0h207l215 379l215 -379h207l-307 530l307 529h-207l-215 -379l-215 379h-207l309 -529z" />
<glyph unicode="y" horiz-adv-x="987" d="M92 281q4 -199 217 -220q256 4 408 115v-233q-8 -137 -106.5 -165t-245.5 -46l4 -160q254 20 387 90t139 277v1120h-178v-678q-154 -125 -330 -141q-11 -1 -21 -1q-101 0 -101 121q0 10 1 21v678h-174v-778z" />
<glyph unicode="z" horiz-adv-x="974" d="M92 0h791v186h-504l504 809v64h-789v-187h500l-502 -809v-63z" />
<glyph unicode="{" horiz-adv-x="817" d="M92 600v27q55 29 95 60.5t64.5 72.5t36 93t11.5 122q0 145 9 255.5t49 185.5t120 113t219 38h29v-162q-78 0 -123 -16.5t-68.5 -54.5t-30.5 -97t-7 -145v-13q0 -113 -8.5 -190.5t-62.5 -163.5t-103 -111q49 -27 82.5 -60.5t54 -85.5t29 -130t8.5 -191v-14q0 -84 7 -143.5 t30.5 -96t68.5 -54t123 -17.5v-162q-123 0 -204 24.5t-130 76t-69.5 131t-20.5 188.5q0 119 -4 200.5t-24.5 140t-62.5 99.5t-118 80z" />
<glyph unicode="|" horiz-adv-x="382" d="M92 -344v1933q23 4 48.5 6t52.5 2q25 0 50 -2t48 -6v-1933q-23 -4 -47.5 -6t-50.5 -2q-27 0 -52.5 2t-48.5 6z" />
<glyph unicode="}" horiz-adv-x="817" d="M92 -178q78 0 123 17.5t68.5 54t31 96t7.5 143.5v14q0 113 8 191t28.5 130t54 86t83.5 60q-49 25 -83 59t-54.5 86t-28.5 130t-8 190v13q0 86 -7.5 145t-31 97t-68.5 54.5t-123 16.5v162h29q139 0 219 -38t120 -113t49 -185.5t9 -255.5q0 -70 11.5 -122t36 -93t64.5 -73 t95 -60v-27q-76 -39 -118 -80t-62.5 -99.5t-24.5 -140t-4 -200.5q0 -109 -20.5 -188.5t-69.5 -131t-130 -76t-204 -24.5v162z" />
<glyph unicode="~" horiz-adv-x="1085" d="M92 612q41 49 115 85t155 36q47 0 92.5 -13t91.5 -28.5t92 -28t93 -12.5q41 0 83 14.5t93 61.5l86 -141q-47 -47 -110.5 -77t-149.5 -30q-47 0 -93 12.5t-92 28t-92 28.5t-89 13q-49 0 -93.5 -16.5t-93.5 -63.5z" />
<glyph unicode="&#xa1;" horiz-adv-x="389" d="M92 -430v1048h205v-1048h-205zM92 870v199h205v-199h-205z" />
<glyph unicode="&#xa2;" horiz-adv-x="876" d="M92 494q12 -172 54 -257t114 -139q53 -41 164 -73v-215h178v206q92 14 182 52l-45 155q-156 -66 -245 -51q-109 31 -151 63.5t-55.5 87t-21.5 175.5q0 92 11.5 164.5t65.5 137t183 74.5q117 4 217 -34l39 143q-59 51 -180 64v184h-178v-203q-132 -37 -195 -117 q-86 -109 -106.5 -189.5t-30.5 -227.5z" />
<glyph unicode="&#xa3;" horiz-adv-x="1073" d="M92 625v159h146q-10 59 -19.5 120t-9.5 124q0 88 27.5 169t84 142.5t143.5 98.5t208 37q109 0 181.5 -16.5t125.5 -39.5l-47 -170q-57 25 -114.5 37t-133.5 12q-72 0 -122 -22.5t-80.5 -61t-45 -91t-14.5 -109.5q0 -63 9 -118.5t22 -111.5h383v-159h-355q8 -37 13.5 -75 t5.5 -77q0 -86 -29 -160.5t-88 -128.5h598v-184h-868l-9 188q74 8 122 61.5t56.5 103.5t8.5 91q0 45 -5 89.5t-16 91.5h-178z" />
<glyph unicode="&#xa4;" horiz-adv-x="839" d="M92 350l90 90q-10 16 -24 66q-10 35 -11 69q0 37 13 74q10 48 22 62l-90 90l103 102l92 -88q14 10 59 21q37 12 76 12q33 0 70 -10q47 -12 63 -25l90 90l103 -102l-91 -90q12 -18 27 -64q8 -35 8 -72q0 -35 -8 -71q-14 -47 -25 -62l89 -92l-103 -102l-90 90 q-16 -12 -63 -25q-35 -10 -72 -10q-35 0 -72 10q-47 12 -61 25l-92 -90zM287 575q0 -16 6 -32q10 -37 33 -62q25 -25 59 -35q18 -4 35 -4q18 0 35 4q37 10 61 35q23 25 35 60q4 18 4 34q0 18 -4 33q-12 37 -35 62q-27 25 -61 35q-16 4 -35 4q-18 0 -35 -4q-35 -10 -59 -35 q-23 -25 -33 -58q-6 -18 -6 -37z" />
<glyph unicode="&#xa5;" horiz-adv-x="1267" d="M92 1491l352 -780h-286v-144h350l29 -63v-101h-379v-143h379v-264h196v264h387v143h-387v101l29 63h358v144h-295l351 780h-203l-332 -776l-332 776h-217z" />
<glyph unicode="&#xa6;" horiz-adv-x="382" d="M92 338h199v-682h-199v682zM92 907v682h199v-682h-199z" />
<glyph unicode="&#xa7;" horiz-adv-x="948" d="M92 758q19 196 164 268q-88 82 -94 223q29 311 375 307q164 -14 290 -88l-61 -155q-117 63 -229 65q-182 6 -189 -129q12 -104 117 -135l96 -31q295 -82 285 -346q-29 -180 -158 -248q94 -92 88 -243q-43 -274 -321 -289q-205 -4 -357 96l90 150q111 -63 252 -62 q125 18 140 111q-2 125 -152 166l-106 39q-78 27 -129 73q-12 6 -25 15l4 6q-74 80 -80 207zM256 754q0 -53 27 -88q100 -80 223 -60q125 18 174 137q22 88 -68 154q-63 39 -141 35q-184 -10 -215 -178z" />
<glyph unicode="&#xa8;" horiz-adv-x="811" d="M92 1237v205h209v-205h-209zM510 1237v205h209v-205h-209z" />
<glyph unicode="&#xa9;" horiz-adv-x="1703" d="M92 735q0 162 55.5 302.5t154.5 241.5t239.5 159.5t310.5 58.5t310.5 -57.5t239.5 -159.5t154.5 -241.5t55.5 -303.5t-55.5 -303t-154.5 -240.5t-239.5 -160t-310.5 -58.5t-310.5 58.5t-239.5 160t-154.5 240.5t-55.5 303zM242 735q0 -131 42 -245.5t120.5 -199.5 t191.5 -134.5t256 -49.5t256 49.5t191.5 134.5t120.5 199.5t42 245.5t-42 246t-120.5 200t-191.5 134t-256 49t-256 -49t-191.5 -134t-120.5 -200t-42 -246zM477 702q8 131 27.5 205t96.5 170.5t265 126.5q170 2 254 -69l-47 -117q-98 49 -199 37q-121 -12 -174 -80 t-66 -129.5t-7 -138.5q6 -109 29.5 -161t68.5 -90t123 -55q82 -10 223 50l49 -132q-141 -59 -278 -61q-145 37 -211 85t-104 126t-50 233z" />
<glyph unicode="&#xaa;" horiz-adv-x="825" d="M92 947q0 -257 250 -257h375v508q16 307 -299 291q-123 -14 -203 -41l27 -113q88 45 245 37q92 0 93 -92v-106q-123 31 -244 30q-244 0 -244 -257zM230 940q8 135 92 145q117 10 258 -41v-239h-256q-102 0 -94 135z" />
<glyph unicode="&#xab;" horiz-adv-x="1257" d="M92 547l340 452h217l-334 -450l334 -457h-217zM608 547l340 452h217l-334 -450l334 -457h-217z" />
<glyph unicode="&#xac;" horiz-adv-x="1038" d="M92 602v189h854v-572h-188v383h-666z" />
<glyph unicode="&#xad;" horiz-adv-x="714" d="M92 481v187h531v-187h-531z" />
<glyph unicode="&#xae;" horiz-adv-x="1703" d="M92 735q0 162 55.5 302.5t154.5 241.5t239.5 159.5t310.5 58.5t310.5 -57.5t239.5 -159.5t154.5 -241.5t55.5 -303.5t-55.5 -303t-154.5 -240.5t-239.5 -160t-310.5 -58.5t-310.5 58.5t-239.5 160t-154.5 240.5t-55.5 303zM242 735q0 -131 42 -245.5t120.5 -199.5 t191.5 -134.5t256 -49.5t256 49.5t191.5 134.5t120.5 199.5t42 245.5t-42 246t-120.5 200t-191.5 134t-256 49t-256 -49t-191.5 -134t-120.5 -200t-42 -246zM545 287v876h401q236 0 236 -248.5t-207 -248.5l215 -379h-158l-229 379h-115v-379h-143zM688 807l232 -2 q125 8 124.5 117.5t-133.5 109.5h-223v-225z" />
<glyph unicode="&#xaf;" horiz-adv-x="737" d="M92 1270v151h553v-151h-553z" />
<glyph unicode="&#xb0;" horiz-adv-x="784" d="M92 1188q0 63 23.5 117.5t64.5 94.5t95.5 63.5t115.5 23.5t116.5 -23.5t96.5 -63.5t64.5 -94.5t23.5 -117.5q0 -61 -23.5 -115.5t-64.5 -94.5t-96 -63.5t-117 -23.5q-61 0 -115.5 23.5t-95.5 63.5t-64.5 94.5t-23.5 115.5zM240 1188q0 -70 43 -115t108 -45q66 0 111 45 t45 115t-45 116t-111 46t-108.5 -46t-42.5 -116z" />
<glyph unicode="&#xb1;" horiz-adv-x="1052" d="M92 2v186h869v-186h-869zM96 629v182h340v373h182v-373h338v-182h-338v-371h-182v371h-340z" />
<glyph unicode="&#xb2;" horiz-adv-x="776" d="M92 1364q68 100 199 137q137 29 239 -18q123 -59 142 -187q12 -121 -27 -190q-49 -113 -188 -195q-68 -35 -120 -81t-67 -95h404v-133h-565v121q23 90 79 168q53 72 172 131q96 51 144 121q33 70 22 139q-14 55 -80 82q-51 23 -129 -2q-66 -29 -127 -96z" />
<glyph unicode="&#xb3;" horiz-adv-x="806" d="M92 766l103 84q51 -76 108 -84q82 -14 168 12q37 16 66 41q53 55 16 144q-27 55 -90 59h-215v135h215q59 -4 80 53q16 78 -21 115q-27 31 -80 45q-55 14 -116 -2q-74 -16 -131 -76l-70 125q68 57 164 84q119 25 241 -12q94 -37 136 -119q37 -90 10 -180q-18 -76 -64 -92 q59 -35 80 -113q23 -137 -41 -240q-63 -74 -164 -100q-119 -25 -233 -2q-84 29 -162 123z" />
<glyph unicode="&#xb4;" horiz-adv-x="677" d="M92 1217l236 260h258l-291 -260h-203z" />
<glyph unicode="&#xb5;" horiz-adv-x="1099" d="M92 -483v1534h201v-549q0 -180 60.5 -267.5t191.5 -87.5q51 0 98 17.5t84 52.5t58.5 90t21.5 133v611h201v-1051h-187v131q-49 -68 -121.5 -112t-187.5 -44q-139 0 -221 93v-551h-199z" />
<glyph unicode="&#xb6;" horiz-adv-x="1124" d="M92 1040q0 121 37 206t115 138.5t198 77.5q106 20 252 23h338v-1485h-151v1305h-156v-1305h-152v641h-24q-96 0 -179 22.5t-144.5 71.5t-97.5 125t-36 180z" />
<glyph unicode="&#xb7;" horiz-adv-x="407" d="M92 453v223h223v-223h-223z" />
<glyph unicode="&#xb8;" horiz-adv-x="636" d="M92 -471q2 29 7 61.5t22 57.5q61 -20 127 -21q66 0 103.5 19.5t37.5 62.5q0 41 -37 56.5t-96 15.5q-29 0 -58.5 -4t-56.5 -10l-12 10l100 272h131l-67 -168q20 4 47 4q98 0 151.5 -49t53.5 -127q0 -100 -81 -151.5t-216 -51.5q-29 0 -72 3.5t-84 19.5z" />
<glyph unicode="&#xb9;" horiz-adv-x="561" d="M92 1227l320 284h57v-899h-141v639l-129 -118z" />
<glyph unicode="&#xba;" horiz-adv-x="813" d="M92 1053q0 453 314 452q315 1 315 -452t-315 -453q-313 0 -314 453zM219 1053q0 -330 191 -330q182 0 182 330q0 325 -182 325q-190 0 -191 -325z" />
<glyph unicode="&#xbb;" horiz-adv-x="1257" d="M92 92l334 457l-334 450h217l340 -452l-340 -455h-217zM608 92l334 457l-334 450h217l340 -452l-340 -455h-217z" />
<glyph unicode="&#xbc;" horiz-adv-x="1728" d="M92 1327q136 74 273 168h49v-836h-103v672q-88 -59 -176 -96zM238 -51l1101 1597h166l-1095 -1597h-172zM1044 240v63l398 565h88v-526h106v-102h-106v-240h-109v240h-377zM1200 342h221v330z" />
<glyph unicode="&#xbd;" horiz-adv-x="1675" d="M92 1331q138 74 277 170h49v-846h-105v680q-88 -59 -176 -96zM158 -51l1102 1597h165l-1095 -1597h-172zM1032 -2q-6 82 15.5 141.5t70.5 116.5q82 84 166 125q98 55 148 129q37 61 34 135q-2 57 -63 94q-82 41 -166 -2q-47 -31 -62.5 -64.5t-25.5 -72.5l-109 25 q29 170 172 231q109 35 226 -6q113 -39 139 -182q6 -98 -33 -181q-47 -109 -180 -186q-68 -35 -123 -83t-74 -112h404v-108h-539z" />
<glyph unicode="&#xbe;" horiz-adv-x="1697" d="M92 801l98 61q31 -53 84 -86q84 -39 172 -10q41 18 72 43q59 63 21 160q-43 63 -105 67h-127v103h127q57 -4 94 61q18 88 -22 131q-29 29 -64 45q-76 25 -147 0q-53 -31 -98 -108l-99 59q78 125 168 150q113 35 230 0q84 -31 122 -119q33 -84 21 -170q-14 -70 -88 -105 q78 -31 100 -100q29 -111 -45 -223q-59 -80 -151 -105q-113 -12 -222 21q-78 37 -141 125zM203 -51l1102 1597h165l-1095 -1597h-172zM1020 236v61l393 561h86v-522h107v-100h-107v-238h-106v238h-373zM1174 336h219v326z" />
<glyph unicode="&#xbf;" horiz-adv-x="950" d="M105 -15.5q12 64.5 58 145.5t108.5 127t136.5 103v242l184 4l16 -340q-111 -57 -149.5 -85.5t-78.5 -77t-60.5 -76t-26.5 -136.5q14 -111 113 -139q184 -53 397 45l55 -172q-244 -131 -565 -51q-156 57 -182 231q-18 115 -6 179.5zM387 860v199h205v-199h-205z" />
<glyph unicode="&#xc0;" d="M92 0l455 1495h225l449 -1495h-193l-125 385h-495l-109 -385h-207zM305 1846h260l236 -260h-205zM444 565h430l-219 680z" />
<glyph unicode="&#xc1;" d="M92 0l455 1495h225l449 -1495h-193l-125 385h-495l-109 -385h-207zM444 565h430l-219 680zM471 1586l236 260h258l-291 -260h-203z" />
<glyph unicode="&#xc2;" d="M92 0l455 1495h225l449 -1495h-193l-125 385h-495l-109 -385h-207zM311 1586l223 260l240 -2l221 -258h-209l-133 163l-133 -163h-209zM444 565h430l-219 680z" />
<glyph unicode="&#xc3;" d="M92 0l455 1495h225l449 -1495h-193l-125 385h-495l-109 -385h-207zM282 1759q33 37 86 71t121 34q43 0 86 -16.5t84 -35t81 -35t81 -16.5q39 0 68.5 15.5t70.5 54.5l68 -121q-35 -35 -87.5 -66.5t-117.5 -31.5q-45 0 -88 15t-84 34.5t-81 35t-79 15.5q-43 0 -72.5 -17.5 t-68.5 -52.5zM444 565h430l-219 680z" />
<glyph unicode="&#xc4;" d="M92 0l455 1495h225l449 -1495h-193l-125 385h-495l-109 -385h-207zM342 1626v205h209v-205h-209zM444 565h430l-219 680zM760 1626v205h209v-205h-209z" />
<glyph unicode="&#xc5;" d="M92 0l455 1493q-27 12 -47 35q-61 59 -62 158q0 98 61.5 158.5t159.5 60.5t160 -60.5t62 -158.5t-62 -158q-20 -23 -47 -35l449 -1493h-193l-125 385h-495l-109 -385h-207zM444 565h430l-219 680zM559 1686q0 -53 25.5 -84t74.5 -31t76 30.5t27 84.5q0 53 -26.5 83.5 t-76.5 30.5q-49 0 -74.5 -30.5t-25.5 -83.5z" />
<glyph unicode="&#xc6;" horiz-adv-x="2000" d="M92 0l864 1495h953v-197h-680v-460h543v-179h-543v-483h676v-176h-877v385h-498l-231 -385h-207zM608 565h420v680z" />
<glyph unicode="&#xc7;" horiz-adv-x="1193" d="M92 748q0 750 576 749q270 0 434 -233l-131 -131q-164 180 -295 180q-375 0 -375 -565q0 -569 375 -570q131 0 295 162l131 -143q-170 -197 -434 -197h-19l-47 -119q20 4 47 4q98 0 151.5 -49t53.5 -127q0 -100 -81 -151.5t-216 -51.5q-29 0 -72 3.5t-84 19.5 q2 29 7.5 61.5t21.5 57.5q61 -20 127 -21q66 0 103.5 19.5t37.5 62.5q0 41 -36.5 56.5t-96.5 15.5q-29 0 -58.5 -4t-55.5 -10l-13 10l88 235q-434 86 -434 736z" />
<glyph unicode="&#xc8;" horiz-adv-x="1056" d="M92 2v1489h873v-188h-680v-469h542v-172h-544v-492h678v-168h-869zM301 1846h260l236 -260h-205z" />
<glyph unicode="&#xc9;" horiz-adv-x="1056" d="M92 2v1489h873v-188h-680v-469h542v-172h-544v-492h678v-168h-869zM303 1586l236 260h258l-291 -260h-203z" />
<glyph unicode="&#xca;" horiz-adv-x="1056" d="M92 2v1489h873v-188h-680v-469h542v-172h-544v-492h678v-168h-869zM205 1606l223 260l240 -2l221 -258h-209l-133 163l-133 -163h-209z" />
<glyph unicode="&#xcb;" horiz-adv-x="1056" d="M92 2v1489h873v-188h-680v-469h542v-172h-544v-492h678v-168h-869zM215 1647v205h209v-205h-209zM633 1647v205h209v-205h-209z" />
<glyph unicode="&#xcc;" horiz-adv-x="679" d="M92 1846h260l236 -260h-205zM332 0h187v1493h-187v-1493z" />
<glyph unicode="&#xcd;" horiz-adv-x="677" d="M92 1586l236 260h258l-291 -260h-203zM190 0h187v1493h-187v-1493z" />
<glyph unicode="&#xce;" horiz-adv-x="868" d="M92 1571l223 260l240 -2l221 -258h-209l-133 163l-133 -163h-209zM344 0h187v1493h-187v-1493z" />
<glyph unicode="&#xcf;" horiz-adv-x="811" d="M92 1606v205h209v-205h-209zM307 0h187v1493h-187v-1493zM510 1606v205h209v-205h-209z" />
<glyph unicode="&#xd0;" horiz-adv-x="1355" d="M92 676v158h111l-2 657h569q494 0 494 -745.5t-482 -745.5h-577l-2 676h-111zM377 834h432v-158h-430v-506h383q319 0 319 584.5t-327 584.5h-377v-505z" />
<glyph unicode="&#xd1;" horiz-adv-x="1300" d="M92 4v1487h203l727 -1159v1159h186v-1487h-180l-749 1100v-1100h-187zM278 1759q33 37 86 71t121 34q43 0 86 -16.5t84 -35t81 -35t81 -16.5q39 0 68.5 15.5t70.5 54.5l68 -121q-35 -35 -87.5 -66.5t-117.5 -31.5q-45 0 -88 15t-84 34.5t-81 35t-79 15.5 q-43 0 -72.5 -17.5t-68.5 -52.5z" />
<glyph unicode="&#xd2;" horiz-adv-x="1320" d="M92 745q0 750 567 750q570 0 570 -750q0 -745 -570 -745q-567 0 -567 745zM285 745q0 -573 383 -573q365 0 364 573q1 572 -364 572q-383 0 -383 -572zM287 1825h260l236 -260h-205z" />
<glyph unicode="&#xd3;" horiz-adv-x="1320" d="M92 745q0 750 567 750q570 0 570 -750q0 -745 -570 -745q-567 0 -567 745zM285 745q0 -573 383 -573q365 0 364 573q1 572 -364 572q-383 0 -383 -572zM473 1565l236 260h258l-291 -260h-203z" />
<glyph unicode="&#xd4;" horiz-adv-x="1320" d="M92 745q0 750 567 750q570 0 570 -750q0 -745 -570 -745q-567 0 -567 745zM285 745q0 -573 383 -573q365 0 364 573q1 572 -364 572q-383 0 -383 -572zM313 1565l223 260l240 -2l221 -258h-209l-133 163l-133 -163h-209z" />
<glyph unicode="&#xd5;" horiz-adv-x="1320" d="M92 745q0 750 567 750q570 0 570 -750q0 -745 -570 -745q-567 0 -567 745zM285 745q0 -573 383 -573q365 0 364 573q1 572 -364 572q-383 0 -383 -572zM285 1718q33 37 86 71t121 34q43 0 86 -16.5t84 -35t81 -35t81 -16.5q39 0 68.5 15.5t70.5 54.5l68 -121 q-35 -35 -87.5 -66.5t-117.5 -31.5q-45 0 -88 15t-84 34.5t-81 35t-79 15.5q-43 0 -72.5 -17.5t-68.5 -52.5z" />
<glyph unicode="&#xd6;" horiz-adv-x="1320" d="M92 745q0 750 567 750q570 0 570 -750q0 -745 -570 -745q-567 0 -567 745zM285 745q0 -573 383 -573q365 0 364 573q1 572 -364 572q-383 0 -383 -572zM344 1585v205h209v-205h-209zM762 1585v205h209v-205h-209z" />
<glyph unicode="&#xd7;" horiz-adv-x="995" d="M92 397l289 289l-289 291l117 115l289 -289l290 289l115 -117l-289 -289l289 -289l-117 -116l-288 288l-289 -288z" />
<glyph unicode="&#xd8;" horiz-adv-x="1337" d="M92 748q0 750 576 749q207 0 340 -96l55 88h164l-121 -186q139 -186 139 -555q0 -748 -577 -748q-211 0 -344 100l-48 -69h-145l102 159q-141 186 -141 558zM301 748q0 -224 57 -361l539 842q-84 84 -221 84q-375 0 -375 -565zM434 270q90 -92 242 -92q356 0 356 570 q0 223 -55 358z" />
<glyph unicode="&#xd9;" horiz-adv-x="1261" d="M92 467q23 -465 512.5 -466t523.5 462v1032h-188v-844q18 -465 -330 -465t-327 478v831h-191v-1028zM305 1825h260l236 -260h-205z" />
<glyph unicode="&#xda;" horiz-adv-x="1261" d="M92 467q23 -465 512.5 -466t523.5 462v1032h-188v-844q18 -465 -330 -465t-327 478v831h-191v-1028zM450 1565l236 260h258l-291 -260h-203z" />
<glyph unicode="&#xdb;" horiz-adv-x="1261" d="M92 467q23 -465 512.5 -466t523.5 462v1032h-188v-844q18 -465 -330 -465t-327 478v831h-191v-1028zM270 1565l223 260l240 -2l221 -258h-209l-133 163l-133 -163h-209z" />
<glyph unicode="&#xdc;" horiz-adv-x="1261" d="M92 467q23 -465 512.5 -466t523.5 462v1032h-188v-844q18 -465 -330 -465t-327 478v831h-191v-1028zM321 1606v205h209v-205h-209zM739 1606v205h209v-205h-209z" />
<glyph unicode="&#xdd;" horiz-adv-x="1267" d="M92 1491l445 -987v-508h196v508l443 987h-203l-332 -776l-332 776h-217zM450 1565l236 260h258l-291 -260h-203z" />
<glyph unicode="&#xde;" horiz-adv-x="1087" d="M92 0v1473h209v-230l129 6q106 0 207.5 -23.5t181.5 -81t128 -152.5t48 -238q0 -141 -48 -236.5t-128 -152t-181 -80t-208 -23.5l-129 4v-266h-209zM301 451l129 -9q63 0 125.5 12.5t112 47.5t80 96t30.5 158q0 96 -30.5 157.5t-80 95t-111.5 46t-126 12.5l-129 -8v-608z " />
<glyph unicode="&#xdf;" horiz-adv-x="1114" d="M92 0v1010q0 119 20.5 213t68.5 160.5t127 101.5t194 35q100 0 171.5 -27t118 -72t68 -105.5t21.5 -127.5q0 -92 -29 -154.5t-63.5 -112t-63.5 -92.5t-29 -98q0 -43 24.5 -72.5t60.5 -54t78 -51.5t78 -62.5t60.5 -87t24.5 -127.5q0 -133 -90 -217t-268 -84 q-78 0 -136.5 13.5t-111.5 36.5l47 161q47 -23 92 -34t92 -11q70 0 120 30t50 112q0 49 -23.5 80.5t-59.5 56t-78 49.5t-77.5 56.5t-59 76.5t-23.5 115q0 72 28.5 124t62.5 101t62.5 104.5t28.5 133.5q0 80 -46 127t-134 47q-123 0 -165 -83t-42 -265v-1006h-199z" />
<glyph unicode="&#xe0;" horiz-adv-x="978" d="M92 331q0 -331 291 -331h496v674q8 397 -396 385l-231 -12v-168l301 12q139 -6 139 -150v-100q-158 20 -317 21q-283 0 -283 -331zM127 1477h260l236 -260h-205zM278.5 320.5q0.5 168.5 112.5 183.5q119 14 301 -33v-319h-299q-115 0 -114.5 168.5z" />
<glyph unicode="&#xe1;" horiz-adv-x="978" d="M92 331q0 -331 291 -331h496v674q8 397 -396 385l-231 -12v-168l301 12q139 -6 139 -150v-100q-158 20 -317 21q-283 0 -283 -331zM278.5 320.5q0.5 168.5 112.5 183.5q119 14 301 -33v-319h-299q-115 0 -114.5 168.5zM375 1217l236 260h258l-291 -260h-203z" />
<glyph unicode="&#xe2;" horiz-adv-x="978" d="M92 331q0 -331 291 -331h496v674q8 397 -396 385l-231 -12v-168l301 12q139 -6 139 -150v-100q-158 20 -317 21q-283 0 -283 -331zM133 1217l223 260l240 -2l221 -258h-209l-133 163l-133 -163h-209zM278.5 320.5q0.5 168.5 112.5 183.5q119 14 301 -33v-319h-299 q-115 0 -114.5 168.5z" />
<glyph unicode="&#xe3;" horiz-adv-x="978" d="M92 331q0 -331 291 -331h496v674q8 397 -396 385l-231 -12v-168l301 12q139 -6 139 -150v-100q-158 20 -317 21q-283 0 -283 -331zM125 1329q33 37 86 71t121 34q43 0 86 -16.5t84 -35t81 -35t81 -16.5q39 0 68.5 15.5t70.5 54.5l68 -121q-35 -35 -87.5 -66.5 t-117.5 -31.5q-45 0 -88 15t-84 34.5t-81 35t-79 15.5q-43 0 -72.5 -17.5t-68.5 -52.5zM278.5 320.5q0.5 168.5 112.5 183.5q119 14 301 -33v-319h-299q-115 0 -114.5 168.5z" />
<glyph unicode="&#xe4;" horiz-adv-x="978" d="M92 331q0 -331 291 -331h496v674q8 397 -396 385l-231 -12v-168l301 12q139 -6 139 -150v-100q-158 20 -317 21q-283 0 -283 -331zM164 1237v205h209v-205h-209zM278.5 320.5q0.5 168.5 112.5 183.5q119 14 301 -33v-319h-299q-115 0 -114.5 168.5zM582 1237v205h209 v-205h-209z" />
<glyph unicode="&#xe5;" horiz-adv-x="978" d="M92 331q0 -331 291 -331h496v674q8 397 -396 385l-231 -12v-168l301 12q139 -6 139 -150v-100q-158 20 -317 21q-283 0 -283 -331zM260 1419q0 98 61.5 158.5t159.5 60.5t160 -60t62 -159q0 -98 -61.5 -158.5t-160.5 -60.5q-98 0 -159.5 60.5t-61.5 158.5zM278.5 320.5 q0.5 168.5 112.5 183.5q119 14 301 -33v-319h-299q-115 0 -114.5 168.5zM381 1419q0 -53 25.5 -83.5t74.5 -30.5t76 30.5t27 83.5t-27 84t-76 31t-74.5 -30.5t-25.5 -84.5z" />
<glyph unicode="&#xe6;" horiz-adv-x="1564" d="M92 310.5q0 -310.5 291 -310.5h248q125 0 186 119q60 -133 279 -133q197 0 290 69l-71 162q-125 -57 -213 -57q-225 0 -250 260h608q12 637 -364 637q-231 0 -297 -129q-94 139 -316 131l-231 -21v-168l301 21q139 -6 139 -150v-141q-158 20 -317 21q-283 0 -283 -310.5z M278.5 300.5q0.5 148.5 112.5 162.5q119 14 301 -33v-139q1 -139 -149 -139h-150q-115 0 -114.5 148.5zM850 594q25 305 231 285q195 20 197 -285h-428z" />
<glyph unicode="&#xe7;" horiz-adv-x="921" d="M92 520q0 537 416 537q197 0 321 -178l-110 -111q-121 131 -205 131q-246 0 -246 -379q0 -381 246 -381q84 0 205 119l110 -121q-119 -137 -286 -149l-43 -107q20 4 47 4q98 0 151.5 -49t53.5 -127q0 -100 -81 -151.5t-216 -51.5q-29 0 -72 3.5t-84 19.5q2 29 7 61.5 t22 57.5q61 -20 127 -21q66 0 103.5 19.5t37.5 62.5q0 41 -37 56.5t-96 15.5q-29 0 -58.5 -4t-56.5 -10l-12 10l80 217q-324 53 -324 526z" />
<glyph unicode="&#xe8;" horiz-adv-x="991" d="M92 520q0 537 430 537q377 0 365 -637h-608q25 -260 249 -260q88 0 213 57l72 -162q-94 -70 -291 -69q-430 0 -430 534zM110 1477h260l236 -260h-205zM276 594h429q-2 305 -197 285q-207 20 -232 -285z" />
<glyph unicode="&#xe9;" horiz-adv-x="991" d="M92 520q0 537 430 537q377 0 365 -637h-608q25 -260 249 -260q88 0 213 57l72 -162q-94 -70 -291 -69q-430 0 -430 534zM276 594h429q-2 305 -197 285q-207 20 -232 -285zM297 1217l236 260h258l-291 -260h-203z" />
<glyph unicode="&#xea;" horiz-adv-x="991" d="M92 520q0 537 430 537q377 0 365 -637h-608q25 -260 249 -260q88 0 213 57l72 -162q-94 -70 -291 -69q-430 0 -430 534zM158 1217l223 260l240 -2l221 -258h-209l-133 163l-133 -163h-209zM276 594h429q-2 305 -197 285q-207 20 -232 -285z" />
<glyph unicode="&#xeb;" horiz-adv-x="991" d="M92 520q0 537 430 537q377 0 365 -637h-608q25 -260 249 -260q88 0 213 57l72 -162q-94 -70 -291 -69q-430 0 -430 534zM188 1237v205h209v-205h-209zM276 594h429q-2 305 -197 285q-207 20 -232 -285zM606 1237v205h209v-205h-209z" />
<glyph unicode="&#xec;" horiz-adv-x="679" d="M92 1477h260l236 -260h-205zM330 0h182v1053h-182v-1053zM330 0h182v1053h-182v-1053z" />
<glyph unicode="&#xed;" horiz-adv-x="677" d="M92 1217l236 260h258l-291 -260h-203zM164 0h182v1053h-182v-1053z" />
<glyph unicode="&#xee;" horiz-adv-x="868" d="M92 1217l223 260l240 -2l221 -258h-209l-133 163l-133 -163h-209zM344 0h182v1053h-182v-1053z" />
<glyph unicode="&#xef;" horiz-adv-x="811" d="M92 1237v205h209v-205h-209zM313 0h183v1053h-183v-1053zM510 1237v205h209v-205h-209z" />
<glyph unicode="&#xf0;" horiz-adv-x="1171" d="M92 485q18 260 127 389.5t332 122.5q78 0 151.5 -25.5t120.5 -72.5q-41 109 -85 182.5t-109 126.5l-201 -125l-72 111l144 90q-47 23 -98.5 34t-108.5 19l8 170q109 -6 202 -34.5t171 -75.5l180 114l78 -110q-35 -23 -71 -44.5t-73 -43.5q139 -129 211 -322.5t72 -423.5 q8 -223 -86 -400t-403 -192q-276 20 -383 172t-107 338zM285 485q-16 -323 297 -352q281 41 295 352q-49 307 -295 349q-293 -55 -297 -349z" />
<glyph unicode="&#xf1;" horiz-adv-x="976" d="M92 0h187v535q0 156 67.5 252t181.5 108q164 0 170 -309v-586l187 -2v727q-27 332 -355 334q-133 -8 -251 -123l-11 123h-176v-330v-729zM92 1349q33 37 86 71t121 34q43 0 86 -16.5t84 -35t81 -35t81 -16.5q39 0 68.5 15.5t70.5 54.5l68 -121q-35 -35 -87.5 -66.5 t-117.5 -31.5q-45 0 -88 15t-84 34.5t-81 35t-79 15.5q-43 0 -72.5 -17.5t-68.5 -52.5z" />
<glyph unicode="&#xf2;" horiz-adv-x="995" d="M92 524q0 528 406 529q405 -1 405 -529q0 -524 -405 -524q-406 0 -406 524zM127 1477h260l236 -260h-205zM268 520q0 -362 234 -358q219 0 219 362q0 363 -219 363q-233 -4 -234 -367z" />
<glyph unicode="&#xf3;" horiz-adv-x="995" d="M92 524q0 528 406 529q405 -1 405 -529q0 -524 -405 -524q-406 0 -406 524zM268 520q0 -362 234 -358q219 0 219 362q0 363 -219 363q-233 -4 -234 -367zM293 1217l236 260h258l-291 -260h-203z" />
<glyph unicode="&#xf4;" horiz-adv-x="995" d="M92 524q0 528 406 529q405 -1 405 -529q0 -524 -405 -524q-406 0 -406 524zM153 1217l223 260l240 -2l221 -258h-209l-133 163l-133 -163h-209zM268 520q0 -362 234 -358q219 0 219 362q0 363 -219 363q-233 -4 -234 -367z" />
<glyph unicode="&#xf5;" horiz-adv-x="995" d="M92 524q0 528 406 529q405 -1 405 -529q0 -524 -405 -524q-406 0 -406 524zM119 1341q33 37 86 71t121 34q43 0 86 -16.5t84 -35t81 -35t81 -16.5q39 0 68.5 15.5t70.5 54.5l68 -121q-35 -35 -87.5 -66.5t-117.5 -31.5q-45 0 -88 15t-84 34.5t-81 35t-79 15.5 q-43 0 -72.5 -17.5t-68.5 -52.5zM268 520q0 -362 234 -358q219 0 219 362q0 363 -219 363q-233 -4 -234 -367z" />
<glyph unicode="&#xf6;" horiz-adv-x="995" d="M92 524q0 528 406 529q405 -1 405 -529q0 -524 -405 -524q-406 0 -406 524zM184 1237v205h209v-205h-209zM268 520q0 -362 234 -358q219 0 219 362q0 363 -219 363q-233 -4 -234 -367zM602 1237v205h209v-205h-209z" />
<glyph unicode="&#xf7;" horiz-adv-x="1052" d="M92 629v186h869v-186h-869zM418 215v223h223v-223h-223zM418 993v224h223v-224h-223z" />
<glyph unicode="&#xf8;" horiz-adv-x="999" d="M92 528q0 530 408 531q127 0 215 -51l30 51h140l-80 -129v-2q102 -133 102 -400q0 -528 -407 -528q-127 0 -215 51l-31 -49h-133l78 125q-106 131 -107 401zM260 528q0 -145 35 -235l336 573q-51 41 -127 41q-244 0 -244 -379zM367 190q55 -43 137 -43q233 0 233 381 q0 143 -32 232z" />
<glyph unicode="&#xf9;" horiz-adv-x="940" d="M92 340q27 -496 756 -330v326v723h-186v-590v-297q-406 -125 -383 305v582h-187v-719zM100 1477h260l236 -260h-205z" />
<glyph unicode="&#xfa;" horiz-adv-x="940" d="M92 340q27 -496 756 -330v326v723h-186v-590v-297q-406 -125 -383 305v582h-187v-719zM287 1217l236 260h258l-291 -260h-203z" />
<glyph unicode="&#xfb;" horiz-adv-x="940" d="M92 340q27 -496 756 -330v326v723h-186v-590v-297q-406 -125 -383 305v582h-187v-719zM127 1217l223 260l240 -2l221 -258h-209l-133 163l-133 -163h-209z" />
<glyph unicode="&#xfc;" horiz-adv-x="940" d="M92 340q27 -496 756 -330v326v723h-186v-590v-297q-406 -125 -383 305v582h-187v-719zM158 1237v205h209v-205h-209zM576 1237v205h209v-205h-209z" />
<glyph unicode="&#xfd;" horiz-adv-x="987" d="M92 281q4 -199 217 -220q256 4 408 115v-233q-8 -137 -106.5 -165t-245.5 -46l4 -160q254 20 387 90t139 277v1120h-178v-678q-154 -125 -330 -141q-131 -14 -121 141v678h-174v-778zM266 1217l236 260h258l-291 -260h-203z" />
<glyph unicode="&#xfe;" horiz-adv-x="1124" d="M92 -483v1984h203v-420q195 35 311 15q92 -20 171 -52t135.5 -96.5t88 -163t31.5 -233.5q0 -270 -146.5 -423t-416.5 -153q-43 0 -90 7.5t-84 17.5v-483h-203zM295 172q39 -14 81 -21.5t105 -7.5q74 0 135.5 23.5t105.5 73t69.5 125t25.5 178.5q0 162 -59.5 258 t-196.5 117q-150 18 -266 -33v-713z" />
<glyph unicode="&#xff;" horiz-adv-x="987" d="M92 281q4 -199 217 -220q256 4 408 115v-233q-8 -137 -106.5 -165t-245.5 -46l4 -160q254 20 387 90t139 277v1120h-178v-678q-154 -125 -330 -141q-131 -14 -121 141v678h-174v-778zM178 1237v205h209v-205h-209zM596 1237v205h209v-205h-209z" />
<glyph unicode="&#x2c6;" horiz-adv-x="868" d="M92 1217l223 260l240 -2l221 -258h-209l-133 163l-133 -163h-209z" />
<glyph unicode="&#x2dc;" horiz-adv-x="929" d="M92 1759q33 37 86 71t121 34q43 0 86 -16.5t84 -35t81 -35t81 -16.5q39 0 68.5 15.5t70.5 54.5l68 -121q-35 -35 -87.5 -66.5t-117.5 -31.5q-45 0 -88 15t-84 34.5t-81 35t-79 15.5q-43 0 -72.5 -17.5t-68.5 -52.5z" />
<glyph unicode="&#x2000;" horiz-adv-x="952" />
<glyph unicode="&#x2001;" horiz-adv-x="1905" />
<glyph unicode="&#x2002;" horiz-adv-x="952" />
<glyph unicode="&#x2003;" horiz-adv-x="1905" />
<glyph unicode="&#x2004;" horiz-adv-x="635" />
<glyph unicode="&#x2005;" horiz-adv-x="476" />
<glyph unicode="&#x2006;" horiz-adv-x="317" />
<glyph unicode="&#x2007;" horiz-adv-x="317" />
<glyph unicode="&#x2008;" horiz-adv-x="238" />
<glyph unicode="&#x2009;" horiz-adv-x="381" />
<glyph unicode="&#x200a;" horiz-adv-x="105" />
<glyph unicode="&#x2010;" horiz-adv-x="714" d="M92 481v187h531v-187h-531z" />
<glyph unicode="&#x2011;" horiz-adv-x="714" d="M92 481v187h531v-187h-531z" />
<glyph unicode="&#x2012;" horiz-adv-x="714" d="M92 481v187h531v-187h-531z" />
<glyph unicode="&#x2013;" horiz-adv-x="1208" d="M92 481v187h1024v-187h-1024z" />
<glyph unicode="&#x2014;" horiz-adv-x="2232" d="M92 481v187h2048v-187h-2048z" />
<glyph unicode="&#x2018;" horiz-adv-x="430" d="M92 1006l246 2v260h-125q0 123 100 123v98q-221 0 -221 -221v-262z" />
<glyph unicode="&#x2019;" horiz-adv-x="430" d="M92 1227h125q0 -123 -100 -123v-98q221 0 221 221v262l-246 -2v-260z" />
<glyph unicode="&#x201a;" horiz-adv-x="430" d="M92 -2h125q0 -123 -100 -123v-98q221 0 221 221v262l-246 -2v-260z" />
<glyph unicode="&#x201c;" horiz-adv-x="737" d="M92 1006l246 2v260h-125q0 123 100 123v98q-221 0 -221 -221v-262zM399 1006l246 2v260h-125q1 123 101 123v98q-221 0 -222 -221v-262z" />
<glyph unicode="&#x201d;" horiz-adv-x="737" d="M92 1227h125q0 -123 -100 -123v-98q221 0 221 221v262l-246 -2v-260zM399 1227h125q0 -123 -100 -123v-98q221 0 221 221v262l-246 -2v-260z" />
<glyph unicode="&#x201e;" horiz-adv-x="737" d="M92 -2h125q0 -123 -100 -123v-98q221 0 221 221v262l-246 -2v-260zM399 -2h125q0 -123 -100 -123v-98q221 0 221 221v262l-246 -2v-260z" />
<glyph unicode="&#x2022;" horiz-adv-x="710" d="M92 766q0 55 20.5 103.5t56.5 84t84 56t103 20.5t102.5 -20.5t83.5 -56t56 -84t20 -103.5t-20 -103.5t-56 -84t-83 -56t-103 -20.5q-55 0 -103 20.5t-84 56t-56.5 84t-20.5 103.5z" />
<glyph unicode="&#x2026;" horiz-adv-x="1189" d="M92 0h187v186h-187v-186zM502 0h187v186h-187v-186zM911 0h187v186h-187v-186z" />
<glyph unicode="&#x202f;" horiz-adv-x="381" />
<glyph unicode="&#x2039;" horiz-adv-x="741" d="M92 547l340 452h217l-334 -450l334 -457h-217z" />
<glyph unicode="&#x203a;" horiz-adv-x="741" d="M92 92l334 457l-334 450h217l340 -452l-340 -455h-217z" />
<glyph unicode="&#x205f;" horiz-adv-x="476" />
<glyph unicode="&#x20ac;" horiz-adv-x="1347" d="M92 539h166q74 -539 563 -539q264 0 434 197l-131 143q-164 -162 -295 -162q-299 0 -358 361h571v153h-587v56q0 41 2 77h585v154h-567q66 334 354 334q131 0 295 -180l131 131q-164 233 -434 233q-479 0 -559 -518h-170v-154h156q-2 -36 -2 -77v-56h-154v-153z" />
<glyph unicode="&#x2122;" horiz-adv-x="1335" d="M92 1362v102h453v-102h-166v-592h-105v592h-182zM561 772l62 692h108l172 -426l150 426h98l92 -692h-106l-50 514l-129 -387h-110l-150 389l-36 -516h-101z" />
<glyph unicode="&#x25fc;" horiz-adv-x="1054" d="M0 0v1055h1055v-1055h-1055z" />
<glyph unicode="&#xfb03;" horiz-adv-x="1622" d="M92 901v158h141v180q0 256 283 256h96v-186h-88q-104 0 -104 -76v-174h368v180q0 256 283 256h76v-186h-68q-104 0 -104 -76v-174h555v-1059h-187v901h-368v-901h-187v901h-368v-901h-187v901h-141zM1343 1309v186h187v-186h-187z" />
<glyph unicode="&#xfb04;" horiz-adv-x="1781" d="M92 901v158h141v180q0 256 283 256h96v-186h-88q-104 0 -104 -76v-174h368v180q0 256 283 256h479v-1171q0 -137 140 -138v-186q-326 0 -326 328v981h-285q-104 0 -104 -76v-174h190v-158h-190v-901h-187v901h-368v-901h-187v901h-141z" />
</font>
</defs>
</svg>
