<?xml version="1.0" standalone="no"?>
<!DOCTYPE svg PUBLIC "-//W3C//DTD SVG 1.1//EN" "http://www.w3.org/Graphics/SVG/1.1/DTD/svg11.dtd" >
<svg xmlns="http://www.w3.org/2000/svg" xmlns:xlink="http://www.w3.org/1999/xlink" version="1.1">
<metadata></metadata>
<defs>
<font id="de_luxe_nextitalic" horiz-adv-x="1312" >
<font-face units-per-em="2048" ascent="1638" descent="-410" />
<missing-glyph horiz-adv-x="460" />
<glyph horiz-adv-x="0" />
<glyph unicode="&#xd;" horiz-adv-x="1040" />
<glyph unicode=" "  horiz-adv-x="460" />
<glyph unicode="&#x09;" horiz-adv-x="460" />
<glyph unicode="&#xa0;" horiz-adv-x="460" />
<glyph unicode="!" horiz-adv-x="389" d="M92 0l27 199h205l-27 -199h-205zM152 451l137 1048h205l-138 -1048h-204z" />
<glyph unicode="&#x22;" horiz-adv-x="739" d="M250 1192l37 281h194l-37 -281l-77 -281h-113zM610 1192l37 281h195l-37 -281l-78 -281h-113z" />
<glyph unicode="#" horiz-adv-x="1449" d="M150 428l22 162h266l74 338h-254l21 159h266l71 326l183 2l-70 -328h348l72 326l184 2l-71 -328h239l-20 -159h-252l-74 -338h238l-21 -162h-252l-80 -369h-180l78 369h-348l-78 -369h-188l79 369h-253zM623 590h348l73 338h-350z" />
<glyph unicode="$" horiz-adv-x="1099" d="M129 111l104 145q123 -76 340 -74q227 39 275 203q25 213 -223 268l-144 56q-270 98 -245 387q59 342 409 389l35 262h186l-32 -254q182 -8 296 -80l-81 -170q-123 74 -291 78q-301 -12 -340 -225q-2 -178 166 -230l131 -43q373 -109 315 -448q-90 -315 -391 -365 l-35 -262h-186l33 258q-199 16 -322 105z" />
<glyph unicode="%" horiz-adv-x="1665" d="M197 -51l1271 1597h207l-1265 -1597h-213zM252 1214q53 315 352 326q326 -33 283 -323q-33 -303 -359 -316q-305 8 -276 313zM420 1217q-17 -152 133 -162q160 0 180 166q23 154 -147 161q-145 -2 -166 -165zM942 276q55 330 369 340q338 -35 293 -337 q-35 -315 -375 -328q-318 8 -287 325zM1118 279q-21 -158 137 -168q166 -2 185 172q27 160 -152 168q-150 -2 -170 -172z" />
<glyph unicode="&#x26;" horiz-adv-x="1409" d="M236 590q86 127 229 180q-121 63 -150 193q-27 152 54 301q90 160 249 215q178 61 371 0q156 -45 266 -271l-178 -102q-45 127 -164 192q-123 43 -223 0q-66 -29 -123 -81q-84 -78 -71 -234q47 -121 155 -113h391l35 234h183l-31 -234h153l-24 -182h-154l-51 -387 q-8 -111 53 -115q37 0 127 33l-12 -184q-96 -37 -172 -35q-121 0 -162 88q-41 -27 -88 -47q-201 -61 -401 -39q-160 45 -246 188q-109 201 -16 400zM422 281q49 -47 117 -78q154 -51 313 16q63 39 117 92l49 377h-393q-111 -8 -203 -123q-92 -174 0 -284z" />
<glyph unicode="'" horiz-adv-x="378" d="M250 1192l37 281h194l-37 -281l-77 -281h-113z" />
<glyph unicode="(" horiz-adv-x="798" d="M446 -279q-260 991 265 1919h209q-553 -932 -250 -1919h-224z" />
<glyph unicode=")" horiz-adv-x="798" d="M59 -279q553 932 248 1919h223q262 -991 -262 -1919h-209z" />
<glyph unicode="*" horiz-adv-x="858" d="M244 1147l57 121l221 -84l33 248h127l-33 -248l244 84l25 -121l-230 -82l111 -201l-113 -76l-121 222l-184 -222l-92 76l172 199z" />
<glyph unicode="+" horiz-adv-x="1044" d="M174 629l25 182h340l49 373h182l-49 -373h338l-25 -182h-338l-49 -371h-182l49 371h-340z" />
<glyph unicode="," horiz-adv-x="370" d="M63 -242l11 82q82 1 96 99l8 61h-86l25 186h186l-24 -186l-9 -61q-25 -180 -207 -181z" />
<glyph unicode="-" horiz-adv-x="714" d="M156 481l24 187h531l-25 -187h-530z" />
<glyph unicode="." horiz-adv-x="370" d="M92 0l25 186h186l-24 -186h-187z" />
<glyph unicode="/" horiz-adv-x="880" d="M92 0l692 1473h199l-694 -1473h-197z" />
<glyph unicode="0" horiz-adv-x="1216" d="M190 748q98 750 615 749q516 1 418 -749q-98 -748 -615 -748q-516 0 -418 748zM377 748q-76 -569 260 -570q319 0 395 570q73 565 -246 565q-336 0 -409 -565z" />
<glyph unicode="1" horiz-adv-x="759" d="M250 1194q260 131 526 301h88l-196 -1495h-185l158 1200q-168 -104 -336 -170z" />
<glyph unicode="2" horiz-adv-x="1183" d="M106 0q8 141 59.5 244.5t147.5 199.5q129 123 336 222q182 88 287 217q88 109 84 184q6 162 -94 221q-139 61 -295 -14q-123 -74 -225 -248l-170 68q145 279 372 381q209 80 410 -7q201 -88 213 -317q4 -176 -90 -311q-125 -182 -365 -318q-143 -59 -275 -158.5 t-157 -177.5h739l-24 -186h-953z" />
<glyph unicode="3" horiz-adv-x="1247" d="M127 264l190 111q45 -96 129 -156q150 -68 316 -16q66 27 135 96q82 92 86 221q-20 164 -186 168h-228l25 182h231q135 20 183 115q39 100 -21 217q-35 61 -100 94q-129 59 -266 9q-96 -49 -177 -166l-163 73q153 216 284 271q227 94 449 -8q115 -55 176 -183 q70 -180 2 -342q-74 -141 -229 -170q199 -49 217 -223q4 -207 -136 -367q-123 -143 -292 -188q-227 -41 -404 41q-129 63 -221 221z" />
<glyph unicode="4" horiz-adv-x="1208" d="M147 414l15 106l813 975h149l-120 -907h190l-23 -174h-190l-55 -414h-185l56 414h-650zM438 588h381l70 526z" />
<glyph unicode="5" horiz-adv-x="1208" d="M125 250l156 145q92 -143 196.5 -187t280.5 -3q94 29 162 100q57 78 73 201q12 84 -12 168q-27 92 -123 133q-109 43 -244 -8q-106 -55 -192 -164l-209 110l160 750h844l-25 -186h-668l-100 -435q86 74 205 111q162 49 332 -4q113 -51 172 -147q74 -145 41 -328 q-31 -221 -136 -340q-92 -100 -194 -139q-254 -70 -425 -9.5t-294 232.5z" />
<glyph unicode="6" horiz-adv-x="1218" d="M188 532q10 281 129 525q96 195 293 317q211 119 467 123l-24 -188q-248 -25 -355 -97q-162 -106 -264 -344q137 98 361 119q430 -33 385 -493q-16 -213 -152 -357q-147 -131 -393 -137q-238 12 -350 168q-111 166 -97 364zM393 629q-27 -242 70 -353q80 -78 199 -79 q145 0 227 71q82 92 100 224q29 297 -231 296q-230 -3 -365 -159z" />
<glyph unicode="7" horiz-adv-x="1208" d="M264 1309l25 186h1024l-15 -104q-506 -694 -708 -1391h-195q211 696 635 1309h-766z" />
<glyph unicode="8" horiz-adv-x="1210" d="M150 434q23 182 215 311q36 30 71 48q-8 6 -18 16q-139 119 -117 287q23 168 169 285.5t333 117.5q186 0 302 -117.5t93 -285.5t-190 -287q-14 -12 -23 -18q29 -16 57 -46q154 -129 132 -311q-25 -182 -191 -310t-379 -128q-211 0 -345 128t-109 310zM346 434 q-14 -104 63.5 -174t219.5 -70q141 0 237.5 70t110.5 174q12 104 -65 178t-218 74t-238.5 -73.5t-109.5 -178.5zM492 1096q-12 -96 34 -146q47 -45 109 -61q31 -6 84 -6t88 6q66 16 125 61q59 49 72 146q12 94 -45.5 152.5t-182.5 58.5t-198.5 -58.5t-85.5 -152.5z" />
<glyph unicode="9" horiz-adv-x="1218" d="M236 1004q16 213 151 356q147 131 393 137q238 -12 350 -168q111 -166 97 -364q-10 -281 -131 -525q-94 -195 -291 -317q-211 -119 -467 -123l24 188q248 25 353 97q164 106 266 344q-137 -98 -360 -119q-430 33 -385 494zM426 1006q-29 -297 231 -297q230 3 365 159 q25 242 -70 353q-80 78 -198 79q-145 0 -228 -71q-82 -92 -100 -223z" />
<glyph unicode=":" horiz-adv-x="370" d="M92 0l25 186h186l-24 -186h-187zM207 872l24 187h187l-25 -187h-186z" />
<glyph unicode=";" horiz-adv-x="370" d="M63 -242l11 82q82 1 96 99l8 61h-86l25 186h186l-24 -186l-9 -61q-25 -180 -207 -181zM207 872l24 187h187l-25 -187h-186z" />
<glyph unicode="&#x3c;" horiz-adv-x="1038" d="M170 596l29 217l897 346l-23 -194l-706 -260l639 -250l-29 -205z" />
<glyph unicode="=" horiz-adv-x="1052" d="M147 424l25 186h868l-24 -186h-869zM199 813l24 186h869l-25 -186h-868z" />
<glyph unicode="&#x3e;" horiz-adv-x="1038" d="M127 250l25 205l704 250l-637 260l27 194l807 -346l-29 -217z" />
<glyph unicode="?" horiz-adv-x="950" d="M281 1434q260 131 571 51q150 -57 152 -232q4 -115 -16.5 -179t-78 -145t-126 -127t-148.5 -104l-33 -241l-184 -4l28 340q117 57 160 85.5t89 77t71 76t45 135.5q0 111 -94 140q-178 53 -404 -45zM358 0l27 199h205l-27 -199h-205z" />
<glyph unicode="@" horiz-adv-x="2029" d="M184 453q35 516 315.5 761.5t762.5 294.5q264 33 532 -189t231 -501q-4 -180 -109.5 -420.5t-428.5 -269.5l-520 -12q-322 51 -326 325q-23 233 115.5 422t464.5 240q156 16 278 -68l-113 -751q25 4 54.5 -1t58.5 -5q86 0 150.5 50t108.5 129t65.5 174t19.5 187 q-6 260 -163.5 395.5t-436.5 135.5q-432 -49 -630.5 -253t-237.5 -636q-35 -270 186 -446.5t420 -157.5l401 -4l-12 -144l-389 -8q-299 10 -559 196.5t-238 555.5zM817 467q-45 -242 414 -203l74 662q-207 12 -342.5 -90.5t-145.5 -368.5z" />
<glyph unicode="A" d="M92 0l651 1495h226l252 -1495h-193l-74 385h-495l-160 -385h-207zM518 565h430l-129 680z" />
<glyph unicode="B" horiz-adv-x="1228" d="M92 0l197 1495h432h19q240 1 336 -147q62 -94 61 -202q-1 -68 -25 -142q-64 -190 -235 -238q163 -34 239 -188q28 -55 27 -118q0 -111 -87 -246q-136 -210 -503 -214h-461zM307 186h318q164 0 251 117q53 71 53 142q-1 45 -23 91q-56 116 -218 117h-319zM393 840h176 q207 0 298 120q54 71 54 139q0 47 -25 92q-62 112 -265 118h-176z" />
<glyph unicode="C" horiz-adv-x="1175" d="M190 745q98 750 666 750q266 0 393 -227l-135 -121q-137 178 -272 178q-383 0 -459 -580q-13 -96 -12 -177q0 -404 318 -404h1q135 0 316 160l102 -134q-188 -190 -449 -190q-483 0 -483 542q0 93 14 203z" />
<glyph unicode="D" horiz-adv-x="1263" d="M90 -8l199 1507h373q619 0 619 -578q0 -81 -12 -175q-100 -754 -794 -754h-385zM307 178h172q516 0 591 566q9 71 9 133q0 434 -458 434h-164z" />
<glyph unicode="E" horiz-adv-x="1056" d="M92 2l197 1489h872l-24 -188h-680l-64 -469h543l-23 -172h-544l-64 -492h678l-22 -168h-869z" />
<glyph unicode="F" horiz-adv-x="1056" d="M92 2l197 1489h872l-24 -188h-680l-64 -469h543l-23 -172h-544l-86 -660h-191z" />
<glyph unicode="G" horiz-adv-x="1255" d="M190 739q126 753 859 753q109 0 231 -17l-47 -189q-100 13 -189 13q-581 0 -671 -545q-10 -84 -10 -156q0 -383 294 -428h15q196 0 350 102l49 375h-369l23 178h547l-90 -682q-207 -139 -506 -143q-500 0 -500 542q0 91 14 197z" />
<glyph unicode="H" horiz-adv-x="1173" d="M92 0l197 1493h184l-90 -664h629l90 664h176l-197 -1493h-178l88 668h-629l-88 -666z" />
<glyph unicode="I" horiz-adv-x="370" d="M92 0l197 1493h186l-196 -1493h-187z" />
<glyph unicode="J" horiz-adv-x="681" d="M111 4l4 170q293 6 352 318l133 1003h186l-133 -1003q-86 -475 -542 -488z" />
<glyph unicode="K" horiz-adv-x="1218" d="M92 0l197 1495h190l-84 -661l682 661h246l-621 -598q213 -449 527 -897h-213q-279 383 -457 764l-199 -195l-75 -569h-193z" />
<glyph unicode="L" horiz-adv-x="1083" d="M92 0l197 1495h192l-172 -1307h707l-25 -188h-899z" />
<glyph unicode="M" horiz-adv-x="1619" d="M92 0l258 1497h248l246 -973l489 971h248l-135 -1495h-186l116 1198l-469 -919h-186l-244 919l-198 -1198h-187z" />
<glyph unicode="N" horiz-adv-x="1300" d="M92 4l197 1487h203l573 -1159l154 1159h186l-197 -1487h-180l-604 1100l-145 -1100h-187z" />
<glyph unicode="O" horiz-adv-x="1320" d="M190 745q98 750 666 750q485 0 485 -546q0 -94 -14 -204q-98 -745 -668 -745q-483 0 -483 542q0 93 14 203zM383 745q-13 -95 -12 -174q0 -399 319 -399q365 0 440 573q13 100 13 182q0 390 -301 390q-383 0 -459 -572z" />
<glyph unicode="P" horiz-adv-x="1122" d="M92 0l197 1495h450q435 0 435 -352q0 -43 -6 -89q-58 -440 -545 -440h-265l-79 -614h-187zM383 801h217q358 6 392 264q3 22 3 41q0 203 -303 204q-18 0 -37 -1h-204z" />
<glyph unicode="Q" horiz-adv-x="1320" d="M190 745q98 750 666 750q485 0 485 -546q0 -94 -14 -204q-47 -352 -199 -538l84 -76l-116 -125l-95 86q-143 -92 -342 -92q-483 0 -483 542q0 93 14 203zM383 745q-13 -95 -13 -174q0 -399 320 -399q98 0 174 41l-129 115l117 123l139 -123q102 143 139 417q13 99 13 180 q0 391 -301 392q-383 0 -459 -572z" />
<glyph unicode="R" horiz-adv-x="1212" d="M92 0l197 1495h491q485 0 486 -363q0 -39 -6 -81q-47 -356 -412 -441q119 -305 340 -610h-246q-196 297 -311 592l-62 -2h-213l-77 -590h-187zM381 776h209h30q410 0 445 272q3 21 3 40q0 222 -361 222q-28 0 -58 -1h-198z" />
<glyph unicode="S" horiz-adv-x="1089" d="M129 111l104 145q120 -74 329 -74h11q227 39 275 203q2 20 2 38q0 180 -225 230l-144 56q-247 90 -247 339q0 23 2 48q69 397 533 397h9h10q214 0 342 -80l-81 -170q-123 74 -291 78q-301 -12 -340 -225q-2 -178 166 -230l131 -43q323 -94 323 -361q0 -41 -8 -87 q-102 -352 -467 -373h-19q-262 0 -415 109z" />
<glyph unicode="T" horiz-adv-x="1144" d="M264 1309l25 186h960l-24 -186h-369l-172 -1313h-188l172 1313h-404z" />
<glyph unicode="U" horiz-adv-x="1261" d="M154 467l135 1028l190 -2l-108 -829q-16 -89 -16 -161q1 -317 301 -317v1q368 0 411 464l111 844h188l-135 -1032q-96 -462 -604 -462h-2q-474 1 -474 402q0 31 3 64z" />
<glyph unicode="V" horiz-adv-x="1267" d="M289 1495h194l197 -1231l491 1231h201l-620 -1499h-217z" />
<glyph unicode="W" horiz-adv-x="1835" d="M289 1499h221l29 -1257l467 1259h245l174 -1253l308 1251h206l-413 -1503h-228l-206 1202l-474 -1202h-266z" />
<glyph unicode="X" horiz-adv-x="1392" d="M92 0l586 748l-389 745h233l297 -567l445 567h233l-586 -745l389 -748h-233l-297 567l-444 -567h-234z" />
<glyph unicode="Y" horiz-adv-x="1267" d="M289 1491h217l229 -776l434 776h203l-571 -987l-68 -508h-196l67 508z" />
<glyph unicode="Z" horiz-adv-x="1343" d="M92 0l14 104l1039 1205h-803l25 184h1081l-14 -102l-1035 -1203h836l-25 -188h-1118z" />
<glyph unicode="[" horiz-adv-x="626" d="M47 -344l250 1900h440l-20 -165h-240l-207 -1569h240l-23 -166h-440z" />
<glyph unicode="\" horiz-adv-x="880" d="M287 1473h198l303 -1473h-196z" />
<glyph unicode="]" horiz-adv-x="624" d="M47 -344l23 166h239l207 1569h-240l21 165h440l-250 -1900h-440z" />
<glyph unicode="^" horiz-adv-x="1056" d="M190 754l426 719h213l234 -719l-191 -2l-178 548l-311 -548z" />
<glyph unicode="_" horiz-adv-x="1196" d="M68 -180l20 149h1012l-21 -149h-1011z" />
<glyph unicode="`" horiz-adv-x="679" d="M287 1477h260l201 -260h-205z" />
<glyph unicode="a" horiz-adv-x="970" d="M162 536q70 536 354 535q160 0 315 -20l183 -21l-135 -1030h-187l23 174q-178 -170 -332 -174q-234 0 -234 347q-1 85 13 189zM348 526q-14 -110 -14 -187q0 -168 71 -168q6 0 11 1q150 0 329 225l64 484q-133 36 -235 36q-32 0 -62 -4q-115 -13 -164 -387z" />
<glyph unicode="b" horiz-adv-x="989" d="M92 0l197 1495h186l-67 -520q160 85 325 85q14 0 29 -1q216 -31 216 -364q0 -83 -14 -185q-68 -510 -370 -510h-502zM303 186h275q152 0 194 342q10 79 9 140q0 205 -107 217q-121 0 -293 -109z" />
<glyph unicode="c" horiz-adv-x="931" d="M160 520q72 537 497 537q197 0 297 -178l-125 -111q-106 111 -190 111q-246 0 -293 -359q-8 -58 -8 -106q0 -254 207 -254q84 0 219 98l94 -121q-151 -151 -340 -151h-2q-366 0 -366 394q0 65 10 140z" />
<glyph unicode="d" horiz-adv-x="989" d="M160 510q68 510 346 549q15 1 29 1q167 0 305 -85l67 520h187l-197 -1495h-502q-248 0 -248 341q1 76 13 169zM358 528q-12 -83 -12 -145q0 -197 115 -197h274l78 590q-143 109 -264 109q-143 -15 -191 -357z" />
<glyph unicode="e" horiz-adv-x="991" d="M160 520q72 537 502 537q300 0 299 -403q0 -104 -19 -234h-608q0 -11 -1 -22q0 -238 216 -238q88 0 221 57l49 -162q-101 -69 -293 -69h-6q-370 0 -370 395q0 64 10 139zM354 594h428q6 50 6 92q0 195 -142 194q-11 0 -23 -1q-12 1 -24 1q-183 0 -245 -286z" />
<glyph unicode="f" horiz-adv-x="749" d="M59 -252l19 148q186 0 201 104l118 901h-141l20 158h142l24 180q33 256 316 256h96l-25 -186h-88q-104 0 -114 -76l-23 -174h191l-21 -158h-190l-119 -901q-35 -252 -406 -252z" />
<glyph unicode="g" horiz-adv-x="1034" d="M145 -395l17 159q358 10 464.5 56.5t123.5 173.5l24 186q-158 -115 -416 -119q-209 20 -208 220q12 244 65 469q60 245 191 288q169 30 397 30q127 0 272 -9l-139 -1059q-20 -207 -200 -303q-174 -92 -559 -92h-32zM346 363q0 -117 119 -121q180 10 332 110 q55 279 69 522l-116 9q-35 2 -68 2q-106 0 -178 -25q-66 -16 -94 -102q-64 -196 -64 -395z" />
<glyph unicode="h" horiz-adv-x="1013" d="M92 0l197 1495h186l-78 -600q162 160 314 164q313 -4 313 -257q0 -27 -4 -57l-98 -745h-187l78 596q10 62 10 111q0 173 -123 173q-9 0 -20 -1q-152 0 -315 -232l-86 -647h-187z" />
<glyph unicode="i" horiz-adv-x="370" d="M92 0l139 1059h187l-139 -1059h-187zM264 1309l25 186h186l-24 -186h-187z" />
<glyph unicode="j" horiz-adv-x="581" d="M55 -428l2 162q207 0 246 266l139 1059h187l-140 -1059q-57 -428 -434 -428zM475 1309l25 186h186l-24 -186h-187z" />
<glyph unicode="k" horiz-adv-x="1013" d="M92 0l197 1495h190l-110 -844l368 408h246l-350 -387q115 -336 330 -672h-203q-184 279 -266 555l-162 -147l-53 -408h-187z" />
<glyph unicode="l" horiz-adv-x="509" d="M135 328l154 1167h186l-153 -1171q-2 -16 -2 -30q0 -107 122 -108l-24 -186q-288 0 -288 256q0 34 5 72z" />
<glyph unicode="m" horiz-adv-x="1513" d="M92 0l139 1059h191l-10 -103q63 92 198 101q184 0 260 -201q127 205 336 205q14 1 27 1q101 0 186 -79q76 -76 76 -249q0 -93 -22 -214l-68 -520h-188l67 520q15 88 15 177q0 31 -2 62q-7 120 -111 132q-182 -15 -266 -365l-70 -526h-186l69 526q1 26 1 51 q0 311 -137 311q-6 0 -11 -1q-90 -14 -152.5 -97t-83.5 -249l-71 -541h-187z" />
<glyph unicode="n" horiz-adv-x="976" d="M92 0l96 729l43 330h177l-7 -123q135 115 269 123q312 -2 312 -302q0 -16 -1 -32l-96 -727l-187 2l78 586q6 54 6 99q0 210 -135 210q-117 -12 -197.5 -108.5t-101.5 -251.5l-69 -535h-187z" />
<glyph unicode="o" horiz-adv-x="995" d="M162 524q70 528 475 529q346 -1 346 -385q0 -66 -10 -144q-70 -524 -475 -524q-346 0 -346 381q0 66 10 143zM336 520q-8 -61 -8 -111q0 -247 189 -247h5q219 0 269 362q8 63 8 115q0 248 -181 248q-233 -4 -282 -367z" />
<glyph unicode="p" horiz-adv-x="989" d="M35 -436l196 1495h187l-19 -139q174 121 334 139q248 0 248 -343q0 -75 -11 -167q-67 -510 -347 -549q-15 -1 -29 -1q-165 0 -305 85l-68 -520h-186zM315 283q144 -109 265 -109h5q158 0 195 346q8 72 8 128q0 224 -120 224q-139 -10 -295 -163z" />
<glyph unicode="q" horiz-adv-x="991" d="M166 549q67 510 371 510h501l-198 -1495h-187l70 520q-160 -85 -327 -85q-14 0 -29 1q-214 31 -214 364q0 83 13 185zM370 530q-15 -93 -15 -162q0 -184 102 -194q121 0 293 109l77 589h-274q-131 0 -183 -342z" />
<glyph unicode="r" horiz-adv-x="827" d="M92 -2l94 723l45 328h191l-23 -162q92 129 252 160q30 4 60 4q79 0 159 -27l-88 -190q-54 25 -123 25q-12 0 -24 -1q-102 -18 -184 -97t-101 -212l-71 -551h-187z" />
<glyph unicode="s" horiz-adv-x="878" d="M109 74l110 149q99 -61 235 -61h9q127 18 153 110q1 11 1 21q0 107 -132 145l-100 39q-192 70 -192 265q0 18 2 36q69 307 406 307h9q162 -14 279 -88l-82 -155q-109 63 -219 65h-15q-168 0 -192 -129q0 -104 100 -135l92 -31q244 -71 244 -277q0 -33 -6 -69 q-78 -274 -358 -289h-16q-194 0 -328 97z" />
<glyph unicode="t" horiz-adv-x="729" d="M211 901l20 158h156l33 250h186l-33 -250h154l-20 -158h-154l-82 -620q-1 -13 -1 -24q0 -87 54 -91q37 0 123 10l-8 -164q-82 -12 -151 -12h-19q-188 0 -188 217q0 38 6 84l80 600h-156z" />
<glyph unicode="u" horiz-adv-x="940" d="M137 340l94 719h187l-76 -582q-13 -69 -13 -123q0 -210 190 -211q70 0 165 29l39 297l78 590h186l-94 -723l-43 -326q-189 -42 -327 -42q-388 0 -388 325q0 23 2 47z" />
<glyph unicode="v" horiz-adv-x="1050" d="M231 1061h199l119 -836l342 834h207l-459 -1059h-238z" />
<glyph unicode="w" horiz-adv-x="1337" d="M231 1059h191l6 -862l285 862h170l86 -860l215 860h200l-309 -1059h-237l-82 729l-236 -729h-225z" />
<glyph unicode="x" horiz-adv-x="1028" d="M92 0l379 530l-240 529h207l166 -379l264 379h207l-377 -529l238 -530h-207l-166 379l-264 -379h-207z" />
<glyph unicode="y" horiz-adv-x="1107" d="M82 -385l20 160q14 -1 27 -1q261 0 360 226l-256 1067h201l180 -803l342 801h199l-467 -1067v-4h-2q-178 -382 -541 -382q-31 0 -63 3z" />
<glyph unicode="z" horiz-adv-x="974" d="M92 0l8 63l609 809h-500l24 187h789l-8 -64l-611 -809h504l-24 -186h-791z" />
<glyph unicode="{" horiz-adv-x="819" d="M172 600l4 27q59 29 103.5 60.5t74 72.5t48 93t26.5 122q18 145 43 255.5t74 185.5t134 113t224 38h29l-21 -162q-78 0 -125 -16.5t-75.5 -54.5t-44 -97t-25.5 -145l-2 -13q-14 -113 -32.5 -190.5t-84 -163.5t-119.5 -111q45 -27 75 -60.5t43.5 -85.5t11 -130t-16.5 -191 l-2 -14q-10 -84 -11 -143.5t17.5 -96t61.5 -54t120 -17.5l-20 -162q-123 0 -201 24.5t-121 76t-52 131t5 188.5q14 119 21.5 200.5t-6 140t-50 99.5t-106.5 80z" />
<glyph unicode="|" horiz-adv-x="382" d="M47 -344l254 1933q25 4 50.5 6t51.5 2q25 0 50.5 -2t46.5 -6l-254 -1933q-23 -4 -48.5 -6t-52.5 -2t-51 2t-47 6z" />
<glyph unicode="}" horiz-adv-x="819" d="M49 -340l21 162q78 0 126 17.5t75.5 54t43 96t25.5 143.5l2 14q16 113 34.5 191t45.5 130t65.5 86t90.5 60q-45 25 -75 59t-43.5 86t-11 130t16.5 190l2 13q12 86 12 145t-18.5 97t-61.5 54.5t-120 16.5l22 162h29q139 0 213.5 -38t104.5 -113t25 -185.5t-24 -255.5 q-10 -70 -6 -122t23.5 -93t55.5 -73t87 -60l-4 -27q-80 -39 -127 -80t-76 -99.5t-43 -140t-31 -200.5q-14 -109 -44.5 -188.5t-87 -131t-140.5 -76t-207 -24.5z" />
<glyph unicode="~" horiz-adv-x="1083" d="M172 612q47 49 126 85t161 36q47 0 90 -13t87 -28.5t89 -28t92 -12.5q41 0 84 14.5t100 61.5l68 -141q-53 -47 -120.5 -77t-153.5 -30q-47 0 -91.5 12.5t-88.5 28t-88 28.5t-87 13q-49 0 -95 -16.5t-101 -63.5z" />
<glyph unicode="&#xa1;" horiz-adv-x="391" d="M37 -430l137 1048h205l-137 -1048h-205zM209 870l24 199h205l-24 -199h-205z" />
<glyph unicode="&#xa2;" horiz-adv-x="878" d="M158 494q31 147 61.5 228t130.5 189q74 80 209 117l27 203h178l-23 -184q119 -12 172 -64l-59 -143q-94 39 -211 34q-131 -10 -193.5 -74.5t-84 -137t-33.5 -164.5q-6 -121 0 -175.5t43 -87t141 -63.5q88 -14 254 51l25 -155q-96 -37 -191 -52l-26 -206h-179l29 215 q-106 33 -154 73q-66 53 -96.5 138.5t-19.5 257.5z" />
<glyph unicode="&#xa3;" horiz-adv-x="1073" d="M113 0l16 188q76 8 130 61.5t69.5 103.5t21.5 91q4 45 5 89.5t-3 91.5h-178l21 159h145q-2 59 -3 120t7 124q12 88 50 169t102.5 142.5t156.5 98.5t213 37q109 0 179.5 -16.5t119.5 -39.5l-69 -170q-53 25 -109.5 37t-132.5 12q-72 0 -124 -22.5t-88 -61t-57.5 -91 t-29.5 -109.5q-8 -63 -6 -118.5t6 -111.5h383l-20 -159h-355q4 -37 4 -75t-6 -77q-10 -86 -49 -160.5t-104 -128.5h598l-25 -184h-868z" />
<glyph unicode="&#xa4;" horiz-adv-x="841" d="M139 350l103 90q-8 16 -17 66q-6 35 -2 69q6 37 23 74q16 48 30 62l-77 90l116 102l80 -88q16 10 62 21q39 12 78 12q33 0 67 -10q47 -12 62 -25l102 90l88 -102l-102 -90q10 -18 18 -64q4 -35 -2 -72q-4 -35 -16 -71q-20 -47 -33 -62l76 -92l-117 -102l-78 90 q-18 -12 -65 -25q-37 -10 -74 -10q-35 0 -70 10q-47 12 -59 25l-105 -90zM362 575q-2 -16 3 -32q6 -37 24 -62q23 -25 55 -35q18 -4 35 -4q18 0 35 4q39 10 66 35t43 60q6 18 8 34q4 18 2 33q-8 37 -27 62q-25 25 -57 35q-16 4 -35 4q-18 0 -35 -4q-37 -10 -63 -35 q-27 -25 -41 -58q-8 -18 -13 -37z" />
<glyph unicode="&#xa5;" horiz-adv-x="1267" d="M193 260l18 143h379l14 101l-20 63h-351l19 144h287l-250 780h217l229 -776l434 776h203l-452 -780h294l-18 -144h-358l-37 -63l-15 -101h388l-19 -143h-387l-35 -264h-196l34 264h-378z" />
<glyph unicode="&#xa6;" horiz-adv-x="382" d="M47 -344l90 682h199l-90 -682h-199zM211 907l90 682h199l-90 -682h-199z" />
<glyph unicode="&#xa7;" horiz-adv-x="1189" d="M139 37l78 149q125 -31 295 -34q270 8 311 122q-8 84 -164 125l-133 31q-102 20 -174 55l-43 25q-137 94 -102 270q57 143 237 209q3 1 64 15q-180 74 -182 221q109 291 522 274q262 -10 356 -37l-78 -149q-125 33 -297 37q-268 -8 -311 -125q10 -74 146 -142l153 -43 q147 -14 242 -88q152 -92 121 -219q-70 -188 -273 -248q139 -88 109 -211q-106 -289 -520 -272q-264 8 -357 35zM418 786q-27 -106 90 -155q88 -12 192 -15q270 8 312 123q-8 84 -164 127l-180 17q-195 -25 -250 -97z" />
<glyph unicode="&#xa8;" horiz-adv-x="811" d="M256 1237l27 205h209l-27 -205h-209zM674 1237l26 205h209l-26 -205h-209z" />
<glyph unicode="&#xa9;" horiz-adv-x="1705" d="M190 735q20 162 94 302.5t187 241.5t261.5 159.5t318.5 58.5t302 -57.5t218 -159.5t123 -241.5t16 -303.5q-23 -164 -96.5 -303t-186 -240.5t-260 -160t-317.5 -58.5t-303 58.5t-219 160t-123 240.5t-15 303zM340 735q-18 -131 8.5 -245.5t94 -199.5t174 -134.5 t249.5 -49.5t262 49.5t209 134.5t147.5 199.5t76.5 245.5q16 131 -10.5 246t-94 200t-174 134t-250.5 49q-143 0 -262 -49t-209 -134t-147.5 -200t-73.5 -246zM569 702q27 131 55.5 205t119 170.5t282.5 126.5q170 2 244 -69l-62 -117q-92 49 -194 37q-123 -12 -184.5 -80 t-83 -129.5t-25.5 -138.5q-8 -109 8 -161t56 -90t116 -55q80 -10 229 50l33 -132q-150 -59 -286 -61q-141 37 -201 85t-87.5 126t-19.5 233z" />
<glyph unicode="&#xaa;" horiz-adv-x="823" d="M216 947q34 257 278 257q121 0 239 -30l15 106q12 92 -80 92q-158 8 -252 -37l-10 113q81 27 206 41q317 16 262 -291l-67 -508h-375q-250 0 -216 257zM352.5 940q-26.5 -135 75.5 -135h256l33 239q-135 51 -254 41q-84 -10 -110.5 -145z" />
<glyph unicode="&#xab;" horiz-adv-x="1257" d="M164 547l399 452h217l-393 -450l275 -457h-218zM680 547l399 452h217l-393 -450l275 -457h-217z" />
<glyph unicode="&#xac;" horiz-adv-x="1038" d="M172 602l25 189h854l-76 -572h-189l52 383h-666z" />
<glyph unicode="&#xad;" horiz-adv-x="714" d="M156 481l24 187h531l-25 -187h-530z" />
<glyph unicode="&#xae;" horiz-adv-x="1705" d="M190 735q20 162 94 302.5t187 241.5t261.5 159.5t318.5 58.5t302 -57.5t218 -159.5t123 -241.5t16 -303.5q-23 -164 -96.5 -303t-186 -240.5t-260 -160t-317.5 -58.5t-303 58.5t-219 160t-123 240.5t-15 303zM340 735q-18 -131 8.5 -245.5t94 -199.5t174 -134.5 t249.5 -49.5t262 49.5t209 134.5t147.5 199.5t76.5 245.5q16 131 -10.5 246t-94 200t-174 134t-250.5 49q-143 0 -262 -49t-209 -134t-147.5 -200t-73.5 -246zM584 287l114 876h402q236 0 203 -248.5t-240 -248.5l166 -379h-158l-180 379h-115l-49 -379h-143zM795 807 l231 -2q127 8 141.5 117.5t-118.5 109.5h-224z" />
<glyph unicode="&#xaf;" horiz-adv-x="739" d="M260 1270l21 151h553l-21 -151h-553z" />
<glyph unicode="&#xb0;" horiz-adv-x="784" d="M248 1188q8 63 38.5 117.5t77 94.5t103.5 63.5t119 23.5q61 0 113.5 -23.5t88 -63.5t52 -94.5t8.5 -117.5q-8 -61 -39 -115.5t-77 -94.5t-104.5 -63.5t-119.5 -23.5t-112.5 23.5t-87.5 63.5t-52 94.5t-8 115.5zM395 1188q-10 -70 28 -115t103 -45q66 0 116 45t60 115 q8 70 -30.5 116t-104.5 46t-115 -46t-57 -116z" />
<glyph unicode="&#xb1;" horiz-adv-x="1052" d="M92 2l25 186h868l-24 -186h-869zM178 629l25 182h340l49 373h182l-49 -373h338l-25 -182h-338l-49 -371h-182l49 371h-340z" />
<glyph unicode="&#xb2;" horiz-adv-x="776" d="M188 602l17 121q35 90 102 168q61 72 189 131q102 51 159 121q41 70 41 139q-8 55 -69 82q-49 23 -129 -2q-70 -29 -140 -96l-86 98q80 100 217 137q141 29 238 -18q115 -59 117 -187q-4 -121 -53 -190q-63 -113 -213 -195q-72 -35 -130.5 -81t-78.5 -95h403l-18 -133 h-566z" />
<glyph unicode="&#xb3;" horiz-adv-x="804" d="M193 766l112 84q43 -76 98 -84q80 -14 170 12q39 16 70 41q61 55 37 144q-20 55 -84 59h-215l18 135h215q59 -4 88 53q27 78 -6 115q-23 31 -73 45q-53 14 -117 -2q-76 -16 -141 -76l-54 125q76 57 174 84q123 25 240 -12q90 -37 121 -119q25 -90 -15 -180 q-29 -76 -75 -92q55 -35 65 -113q4 -137 -71 -240q-74 -74 -179 -100q-121 -25 -233 -2q-80 29 -145 123z" />
<glyph unicode="&#xb4;" horiz-adv-x="677" d="M252 1217l270 260h258l-325 -260h-203z" />
<glyph unicode="&#xb5;" horiz-adv-x="1099" d="M29 -483l202 1534h201l-74 -549q-23 -180 26.5 -267.5t180.5 -87.5q51 0 100.5 17.5t90.5 52.5t69.5 90t38.5 133l82 611h201l-139 -1051h-187l17 131q-57 -68 -136 -112t-194 -44q-139 0 -209 93l-72 -551h-198z" />
<glyph unicode="&#xb6;" horiz-adv-x="1126" d="M231 1040q14 121 62.5 206t133.5 138.5t210 77.5q109 20 254 23h338l-195 -1485h-151l172 1305h-156l-172 -1305h-152l84 641h-24q-96 0 -176 22.5t-135.5 71.5t-81 125t-11.5 180z" />
<glyph unicode="&#xb7;" horiz-adv-x="407" d="M152 453l28 223h223l-28 -223h-223z" />
<glyph unicode="&#xb8;" horiz-adv-x="638" d="M31 -471q6 29 15 61.5t30 57.5q57 -20 123 -21q66 0 106.5 19.5t46.5 62.5q4 41 -30.5 56.5t-94.5 15.5q-29 0 -58.5 -4t-57.5 -10l-11 10l136 272h131l-88 -168q20 4 47 4q98 0 145 -49t37 -127q-14 -100 -101.5 -151.5t-222.5 -51.5q-29 0 -71.5 3.5t-81.5 19.5z" />
<glyph unicode="&#xb9;" horiz-adv-x="563" d="M254 1227l356 284h58l-117 -899h-141l84 639l-146 -118z" />
<glyph unicode="&#xba;" horiz-adv-x="813" d="M231 1053q59 453 373 452q315 1 256 -452t-375 -453q-313 0 -254 453zM358 1053q-43 -330 148 -330q182 0 225 330q43 325 -139 325q-190 0 -234 -325z" />
<glyph unicode="&#xbb;" horiz-adv-x="1257" d="M104 92l394 457l-275 450h217l281 -452l-399 -455h-218zM621 92l393 457l-275 450h217l281 -452l-399 -455h-217z" />
<glyph unicode="&#xbc;" horiz-adv-x="1728" d="M229 -51l1313 1597h166l-1307 -1597h-172zM266 1327q143 74 293 168h49l-108 -836h-103l88 672q-96 -59 -188 -96zM1075 240l8 63l471 565h88l-69 -526h106l-12 -102h-106l-33 -240h-109l33 240h-377zM1243 342h221l43 330z" />
<glyph unicode="&#xbd;" horiz-adv-x="1675" d="M152 -51l1312 1597h166l-1306 -1597h-172zM268 1331q147 74 299 170h49l-112 -846h-105l90 680q-96 -59 -188 -96zM1032 -2q4 82 34 141.5t87 116.5q92 84 182 125q104 55 164 129q45 61 53 135q4 57 -51 94q-78 41 -166 -2q-51 -31 -71.5 -64.5t-34.5 -72.5l-107 25 q51 170 203 231q115 35 225 -6q106 -39 115 -182q-6 -98 -55 -181q-61 -109 -205 -186q-74 -35 -135.5 -83t-87.5 -112h403l-14 -108h-539z" />
<glyph unicode="&#xbe;" horiz-adv-x="1695" d="M195 -51l1312 1597h166l-1306 -1597h-172zM197 801l106 61q23 -53 72 -86q80 -39 172 -10q43 18 76 43q68 63 43 160q-35 63 -97 67h-127l13 103h127q57 -4 102 61q31 88 -4 131q-25 29 -57 45q-74 25 -148 0q-57 -31 -113 -108l-90 59q95 125 187 150q117 35 229 0 q80 -31 109 -119q20 -84 -2 -170q-25 -70 -103 -105q74 -31 86 -100q14 -111 -73 -223q-70 -80 -166 -105q-113 -12 -217 21q-74 37 -125 125zM1049 236l8 61l467 561h86l-68 -522h107l-15 -100h-106l-31 -238h-106l30 238h-372zM1217 336h219l43 326z" />
<glyph unicode="&#xbf;" horiz-adv-x="950" d="M86 -195q-4 115 16.5 179.5t78 145.5t126 127t148.5 103l32 242l185 4l-29 -340q-117 -57 -160 -85.5t-89 -77t-70.5 -76t-44.5 -136.5q0 -111 94 -139q178 -53 403 45l33 -172q-260 -131 -571 -51q-150 57 -152 231zM500 860l26 199h205l-26 -199h-205z" />
<glyph unicode="&#xc0;" d="M92 0l651 1495h226l252 -1495h-193l-74 385h-495l-160 -385h-207zM500 1846h260l201 -260h-205zM518 565h430l-129 680z" />
<glyph unicode="&#xc1;" d="M92 0l651 1495h226l252 -1495h-193l-74 385h-495l-160 -385h-207zM518 565h430l-129 680zM631 1586l270 260h258l-325 -260h-203z" />
<glyph unicode="&#xc2;" d="M92 0l651 1495h226l252 -1495h-193l-74 385h-495l-160 -385h-207zM471 1586l258 260l240 -2l186 -258h-209l-111 163l-155 -163h-209zM518 565h430l-129 680z" />
<glyph unicode="&#xc3;" d="M92 0l651 1495h226l252 -1495h-193l-74 385h-495l-160 -385h-207zM514 1759q37 37 95 71t126 34q43 0 84 -16.5t78.5 -35t75.5 -35t79 -16.5q39 0 71 15.5t79 54.5l51 -121q-39 -35 -95.5 -66.5t-121.5 -31.5q-45 0 -87 15t-80 34.5t-76 35t-77 15.5q-43 0 -74.5 -17.5 t-76.5 -52.5zM518 565h430l-129 680z" />
<glyph unicode="&#xc4;" d="M92 0l651 1495h226l252 -1495h-193l-74 385h-495l-160 -385h-207zM506 1626l27 205h209l-27 -205h-209zM518 565h430l-129 680zM924 1626l26 205h209l-26 -205h-209z" />
<glyph unicode="&#xc5;" d="M92 0l651 1493q-25 12 -43 35q-53 59 -41 158q14 98 83 158.5t167 60.5t152.5 -60.5t40.5 -158.5q-12 -98 -82 -158q-22 -23 -51 -35l252 -1493h-193l-74 385h-495l-160 -385h-207zM518 565h430l-129 680zM780 1686q-6 -53 15.5 -84t70.5 -31t80 30.5t37 84.5 q8 53 -14.5 83.5t-71.5 30.5t-79 -30.5t-38 -83.5z" />
<glyph unicode="&#xc6;" horiz-adv-x="2000" d="M92 0l1061 1495h952l-26 -197h-680l-60 -460h543l-24 -179h-543l-64 -483h676l-22 -176h-877l51 385h-497l-283 -385h-207zM682 565h420l90 680z" />
<glyph unicode="&#xc7;" horiz-adv-x="1193" d="M190 748q98 750 674 749q270 0 404 -233l-150 -131q-139 180 -270 180q-375 0 -449 -565q-76 -569 299 -570q131 0 318 162l110 -143q-195 -197 -458 -197h-19l-63 -119q20 4 47 4q98 0 145 -49t37 -127q-12 -100 -100 -151.5t-223 -51.5q-29 0 -72 3.5t-82 19.5 q6 29 15 61.5t30 57.5q59 -20 125 -21q66 0 105.5 19.5t45.5 62.5q6 41 -28.5 56.5t-93.5 15.5q-29 0 -60 -4t-57 -10l-12 10l118 235q-422 86 -336 736z" />
<glyph unicode="&#xc8;" horiz-adv-x="1056" d="M92 2l197 1489h872l-24 -188h-680l-64 -469h543l-23 -172h-544l-64 -492h678l-22 -168h-869zM496 1846h260l201 -260h-205z" />
<glyph unicode="&#xc9;" horiz-adv-x="1056" d="M92 2l197 1489h872l-24 -188h-680l-64 -469h543l-23 -172h-544l-64 -492h678l-22 -168h-869zM463 1586l270 260h258l-325 -260h-203z" />
<glyph unicode="&#xca;" horiz-adv-x="1056" d="M92 2l197 1489h872l-24 -188h-680l-64 -469h543l-23 -172h-544l-64 -492h678l-22 -168h-869zM365 1606l258 260l240 -2l186 -258h-209l-111 163l-155 -163h-209z" />
<glyph unicode="&#xcb;" horiz-adv-x="1056" d="M92 2l197 1489h872l-24 -188h-680l-64 -469h543l-23 -172h-544l-64 -492h678l-22 -168h-869zM377 1647l27 205h209l-27 -205h-209zM795 1647l26 205h209l-26 -205h-209z" />
<glyph unicode="&#xcc;" horiz-adv-x="679" d="M287 1846h260l201 -260h-205zM332 0l197 1493h186l-196 -1493h-187z" />
<glyph unicode="&#xcd;" horiz-adv-x="677" d="M190 0l197 1493h186l-196 -1493h-187zM252 1586l270 260h258l-325 -260h-203z" />
<glyph unicode="&#xce;" horiz-adv-x="868" d="M252 1571l258 260l240 -2l186 -258h-209l-111 163l-155 -163h-209zM344 0l197 1493h186l-196 -1493h-187z" />
<glyph unicode="&#xcf;" horiz-adv-x="811" d="M256 1606l27 205h209l-27 -205h-209zM307 0l197 1493h186l-196 -1493h-187zM674 1606l26 205h209l-26 -205h-209z" />
<glyph unicode="&#xd0;" horiz-adv-x="1357" d="M182 676l21 158h110l84 657h570q494 0 396.5 -745.5t-579.5 -745.5h-577l86 676h-111zM401 170h383q319 0 397.5 584.5t-249.5 584.5h-377l-68 -505h433l-21 -158h-430z" />
<glyph unicode="&#xd1;" horiz-adv-x="1300" d="M92 4l197 1487h203l573 -1159l154 1159h186l-197 -1487h-180l-604 1100l-145 -1100h-187zM510 1759q37 37 95 71t126 34q43 0 84 -16.5t78.5 -35t75.5 -35t79 -16.5q39 0 71 15.5t79 54.5l51 -121q-39 -35 -95.5 -66.5t-121.5 -31.5q-45 0 -87 15t-80 34.5t-76 35 t-77 15.5q-43 0 -74.5 -17.5t-76.5 -52.5z" />
<glyph unicode="&#xd2;" horiz-adv-x="1320" d="M190 745q98 750 666 750q569 0 471 -750q-98 -745 -668 -745q-567 0 -469 745zM383 745q-76 -573 307 -573q365 0 440 573q77 572 -288 572q-383 0 -459 -572zM482 1825h260l201 -260h-205z" />
<glyph unicode="&#xd3;" horiz-adv-x="1320" d="M190 745q98 750 666 750q569 0 471 -750q-98 -745 -668 -745q-567 0 -469 745zM383 745q-76 -573 307 -573q365 0 440 573q77 572 -288 572q-383 0 -459 -572zM633 1565l270 260h258l-325 -260h-203z" />
<glyph unicode="&#xd4;" horiz-adv-x="1320" d="M190 745q98 750 666 750q569 0 471 -750q-98 -745 -668 -745q-567 0 -469 745zM383 745q-76 -573 307 -573q365 0 440 573q77 572 -288 572q-383 0 -459 -572zM473 1565l258 260l240 -2l186 -258h-209l-111 163l-155 -163h-209z" />
<glyph unicode="&#xd5;" horiz-adv-x="1320" d="M190 745q98 750 666 750q569 0 471 -750q-98 -745 -668 -745q-567 0 -469 745zM383 745q-76 -573 307 -573q365 0 440 573q77 572 -288 572q-383 0 -459 -572zM517 1718q37 37 95 71t126 34q43 0 84 -16.5t78.5 -35t75.5 -35t79 -16.5q39 0 71 15.5t79 54.5l51 -121 q-39 -35 -95.5 -66.5t-121.5 -31.5q-45 0 -87 15t-80 34.5t-76 35t-77 15.5q-43 0 -74.5 -17.5t-76.5 -52.5z" />
<glyph unicode="&#xd6;" horiz-adv-x="1320" d="M190 745q98 750 666 750q569 0 471 -750q-98 -745 -668 -745q-567 0 -469 745zM383 745q-76 -573 307 -573q365 0 440 573q77 572 -288 572q-383 0 -459 -572zM508 1585l27 205h209l-27 -205h-209zM926 1585l26 205h209l-26 -205h-209z" />
<glyph unicode="&#xd7;" horiz-adv-x="995" d="M145 397l328 289l-252 291l133 115l250 -289l330 289l98 -117l-325 -289l249 -289l-133 -116l-250 288l-327 -288z" />
<glyph unicode="&#xd8;" horiz-adv-x="1337" d="M135 31l123 159q-117 186 -68 558q98 750 674 749q207 0 328 -96l68 88h163l-145 -186q115 -186 65 -555q-98 -748 -675 -748q-211 0 -332 100l-55 -69h-146zM399 748q-28 -224 11 -361l649 842q-74 84 -211 84q-375 0 -449 -565zM469 270q78 -92 229 -92q356 0 432 570 q29 223 -8 358z" />
<glyph unicode="&#xd9;" horiz-adv-x="1261" d="M154 467l135 1028l190 -2l-108 -829q-84 -477 284.5 -477.5t411.5 464.5l111 844h188l-135 -1032q-96 -463 -606 -462t-471 466zM500 1825h260l201 -260h-205z" />
<glyph unicode="&#xda;" horiz-adv-x="1261" d="M154 467l135 1028l190 -2l-108 -829q-84 -477 284.5 -477.5t411.5 464.5l111 844h188l-135 -1032q-96 -463 -606 -462t-471 466zM610 1565l270 260h258l-325 -260h-203z" />
<glyph unicode="&#xdb;" horiz-adv-x="1261" d="M154 467l135 1028l190 -2l-108 -829q-84 -477 284.5 -477.5t411.5 464.5l111 844h188l-135 -1032q-96 -463 -606 -462t-471 466zM430 1565l258 260l240 -2l186 -258h-209l-111 163l-155 -163h-209z" />
<glyph unicode="&#xdc;" horiz-adv-x="1261" d="M154 467l135 1028l190 -2l-108 -829q-84 -477 284.5 -477.5t411.5 464.5l111 844h188l-135 -1032q-96 -463 -606 -462t-471 466zM483 1606l27 205h209l-27 -205h-209zM901 1606l26 205h209l-26 -205h-209z" />
<glyph unicode="&#xdd;" horiz-adv-x="1267" d="M289 1491h217l229 -776l434 776h203l-571 -987l-68 -508h-196l67 508zM610 1565l270 260h258l-325 -260h-203z" />
<glyph unicode="&#xde;" horiz-adv-x="1087" d="M92 0l195 1473h209l-31 -230l129 6q106 0 204.5 -23.5t171 -81t108.5 -152.5t16 -238q-18 -141 -79 -236.5t-148 -152t-191.5 -80t-210.5 -23.5l-129 4l-35 -266h-209zM360 451l127 -9q63 0 128 12.5t118 47.5t92 96t54 158q12 96 -10.5 157.5t-67.5 95t-105.5 46 t-124.5 12.5l-131 -8z" />
<glyph unicode="&#xdf;" horiz-adv-x="1114" d="M92 0l133 1010q16 119 49 213t89.5 160.5t140.5 101.5t198 35q100 0 168 -27t108 -72t54.5 -105.5t3.5 -127.5q-12 -92 -49 -154.5t-78 -112t-74.5 -92.5t-41.5 -98q-6 -43 14 -72.5t53 -54t72 -51.5t69.5 -62.5t49 -87t8.5 -127.5q-18 -133 -119.5 -217t-280.5 -84 q-78 0 -134 13.5t-105 36.5l67 161q45 -23 88 -34t91 -11q70 0 124 30t64 112q6 49 -13.5 80.5t-51 56t-70.5 49.5t-71 56.5t-49 76.5t-9 115q10 72 45 124t76 101t76.5 104.5t46.5 133.5q10 80 -30 127t-128 47q-123 0 -176.5 -83t-75.5 -265l-133 -1006h-199z" />
<glyph unicode="&#xe0;" horiz-adv-x="970" d="M162.5 535.5q70.5 535.5 353.5 535.5q160 0 315 -20l183 -21l-135 -1030h-187l23 174q-178 -170 -332 -174q-291 0 -220.5 535.5zM322 1477h260l201 -260h-205zM348 525.5q-49 -373.5 68 -353.5q150 0 329 225l64 484q-176 47 -297 32q-115 -14 -164 -387.5z" />
<glyph unicode="&#xe1;" horiz-adv-x="970" d="M162.5 535.5q70.5 535.5 353.5 535.5q160 0 315 -20l183 -21l-135 -1030h-187l23 174q-178 -170 -332 -174q-291 0 -220.5 535.5zM348 525.5q-49 -373.5 68 -353.5q150 0 329 225l64 484q-176 47 -297 32q-115 -14 -164 -387.5zM535 1217l270 260h258l-325 -260h-203z " />
<glyph unicode="&#xe2;" horiz-adv-x="970" d="M162.5 535.5q70.5 535.5 353.5 535.5q160 0 315 -20l183 -21l-135 -1030h-187l23 174q-178 -170 -332 -174q-291 0 -220.5 535.5zM293 1217l258 260l240 -2l186 -258h-209l-111 163l-155 -163h-209zM348 525.5q-49 -373.5 68 -353.5q150 0 329 225l64 484 q-176 47 -297 32q-115 -14 -164 -387.5z" />
<glyph unicode="&#xe3;" horiz-adv-x="970" d="M162.5 535.5q70.5 535.5 353.5 535.5q160 0 315 -20l183 -21l-135 -1030h-187l23 174q-178 -170 -332 -174q-291 0 -220.5 535.5zM348 525.5q-49 -373.5 68 -353.5q150 0 329 225l64 484q-176 47 -297 32q-115 -14 -164 -387.5zM357 1329q37 37 95 71t126 34 q43 0 84 -16.5t78.5 -35t75.5 -35t79 -16.5q39 0 71 15.5t79 54.5l51 -121q-39 -35 -95.5 -66.5t-121.5 -31.5q-45 0 -87 15t-80 34.5t-76 35t-77 15.5q-43 0 -74.5 -17.5t-76.5 -52.5z" />
<glyph unicode="&#xe4;" horiz-adv-x="970" d="M162.5 535.5q70.5 535.5 353.5 535.5q160 0 315 -20l183 -21l-135 -1030h-187l23 174q-178 -170 -332 -174q-291 0 -220.5 535.5zM328 1237l27 205h209l-27 -205h-209zM348 525.5q-49 -373.5 68 -353.5q150 0 329 225l64 484q-176 47 -297 32q-115 -14 -164 -387.5z M746 1237l26 205h209l-26 -205h-209z" />
<glyph unicode="&#xe5;" horiz-adv-x="970" d="M162.5 535.5q70.5 535.5 353.5 535.5q160 0 315 -20l183 -21l-135 -1030h-187l23 174q-178 -170 -332 -174q-291 0 -220.5 535.5zM348 525.5q-49 -373.5 68 -353.5q150 0 329 225l64 484q-176 47 -297 32q-115 -14 -164 -387.5zM447 1419q14 98 82.5 158.5t166.5 60.5 t152.5 -60t40.5 -159q-12 -98 -82 -158.5t-168 -60.5t-151 60.5t-41 158.5zM567 1419q-6 -53 15.5 -83.5t70.5 -30.5t80 30.5t37 83.5q8 53 -14.5 84t-71.5 31t-78.5 -30.5t-38.5 -84.5z" />
<glyph unicode="&#xe6;" horiz-adv-x="1564" d="M133 310.5q41 310.5 324 310.5q160 0 315 -21l19 141q18 143 -121 150l-303 -21l22 168l234 21q223 8 299 -131q82 129 313 129q377 0 281 -637h-609q-10 -260 215 -260q88 0 221 57l52 -162q-104 -70 -301 -69q-219 0 -260 133q-78 -119 -203 -119h-248 q-291 0 -250 310.5zM318.5 300.5q-19.5 -148.5 95.5 -148.5h149q150 0 168 139l19 139q-176 47 -297 33q-115 -14 -134.5 -162.5zM928 594h428q39 305 -160 285q-203 20 -268 -285z" />
<glyph unicode="&#xe7;" horiz-adv-x="921" d="M160 520q72 537 487 537q197 0 297 -178l-125 -111q-102 131 -186 131q-246 0 -297 -379q-49 -381 196 -381q84 0 222 119l94 -121q-137 -137 -307 -149l-58 -107q23 4 49 4q98 0 144.5 -49t36.5 -127q-12 -100 -100.5 -151.5t-223.5 -51.5q-29 0 -71 3.5t-80 19.5 q6 29 15 61.5t28 57.5q59 -20 125 -21q66 0 106.5 19.5t44.5 62.5q6 41 -28.5 56.5t-94.5 15.5q-29 0 -59.5 -4t-57.5 -10l-10 10l109 217q-317 53 -256 526z" />
<glyph unicode="&#xe8;" horiz-adv-x="991" d="M160 520q72 537 502 537q377 0 280 -637h-608q-10 -260 215 -260q88 0 221 57l49 -162q-102 -70 -299 -69q-430 0 -360 534zM305 1477h260l201 -260h-205zM354 594h428q39 305 -159 285q-203 20 -269 -285z" />
<glyph unicode="&#xe9;" horiz-adv-x="991" d="M160 520q72 537 502 537q377 0 280 -637h-608q-10 -260 215 -260q88 0 221 57l49 -162q-102 -70 -299 -69q-430 0 -360 534zM354 594h428q39 305 -159 285q-203 20 -269 -285zM457 1217l270 260h258l-325 -260h-203z" />
<glyph unicode="&#xea;" horiz-adv-x="991" d="M160 520q72 537 502 537q377 0 280 -637h-608q-10 -260 215 -260q88 0 221 57l49 -162q-102 -70 -299 -69q-430 0 -360 534zM318 1217l258 260l240 -2l186 -258h-209l-111 163l-155 -163h-209zM354 594h428q39 305 -159 285q-203 20 -269 -285z" />
<glyph unicode="&#xeb;" horiz-adv-x="991" d="M160 520q72 537 502 537q377 0 280 -637h-608q-10 -260 215 -260q88 0 221 57l49 -162q-102 -70 -299 -69q-430 0 -360 534zM350 1237l27 205h209l-27 -205h-209zM354 594h428q39 305 -159 285q-203 20 -269 -285zM768 1237l26 205h209l-26 -205h-209z" />
<glyph unicode="&#xec;" horiz-adv-x="679" d="M287 1477h260l201 -260h-205zM330 0l139 1053h182l-139 -1053h-182z" />
<glyph unicode="&#xed;" horiz-adv-x="677" d="M164 0l139 1053h182l-139 -1053h-182zM252 1217l270 260h258l-325 -260h-203z" />
<glyph unicode="&#xee;" horiz-adv-x="868" d="M252 1217l258 260l240 -2l186 -258h-209l-111 163l-155 -163h-209zM344 0l137 1053h183l-138 -1053h-182z" />
<glyph unicode="&#xef;" horiz-adv-x="811" d="M256 1237l27 205h209l-27 -205h-209zM313 0l140 1053h182l-139 -1053h-183zM674 1237l26 205h209l-26 -205h-209z" />
<glyph unicode="&#xf0;" horiz-adv-x="1171" d="M156 485q53 260 178 389.5t348 122.5q78 0 148.5 -25.5t111.5 -72.5q-27 109 -61.5 182.5t-94.5 126.5l-217 -125l-55 111l154 90q-43 23 -93.5 34t-105.5 19l31 170q106 -6 196 -34.5t162 -75.5l195 114l63 -110q-39 -23 -77 -44.5t-78 -43.5q123 -129 169 -322.5 t15 -423.5q-20 -223 -138 -400t-429 -192q-272 20 -359.5 172t-62.5 338zM348 485q-59 -323 250 -352q287 41 342 352q-8 307 -250 349q-299 -55 -342 -349z" />
<glyph unicode="&#xf1;" horiz-adv-x="976" d="M92 0l96 729l43 330h177l-7 -123q135 115 269 123q328 -2 311 -334l-96 -727l-187 2l78 586q35 309 -129 309q-117 -12 -197.5 -108.5t-101.5 -251.5l-69 -535h-187zM324 1349q37 37 95 71t126 34q43 0 84 -16.5t78.5 -35t75.5 -35t79 -16.5q39 0 71 15.5t79 54.5 l51 -121q-39 -35 -95.5 -66.5t-121.5 -31.5q-45 0 -87 15t-80 34.5t-76 35t-77 15.5q-43 0 -74.5 -17.5t-76.5 -52.5z" />
<glyph unicode="&#xf2;" horiz-adv-x="995" d="M162 524q70 528 475 529q406 -1 336 -529q-70 -524 -475 -524q-406 0 -336 524zM322 1477h260l201 -260h-205zM336 520q-47 -362 186 -358q219 0 269 362q46 363 -173 363q-233 -4 -282 -367z" />
<glyph unicode="&#xf3;" horiz-adv-x="995" d="M162 524q70 528 475 529q406 -1 336 -529q-70 -524 -475 -524q-406 0 -336 524zM336 520q-47 -362 186 -358q219 0 269 362q46 363 -173 363q-233 -4 -282 -367zM453 1217l270 260h258l-325 -260h-203z" />
<glyph unicode="&#xf4;" horiz-adv-x="995" d="M162 524q70 528 475 529q406 -1 336 -529q-70 -524 -475 -524q-406 0 -336 524zM313 1217l258 260l240 -2l186 -258h-209l-111 163l-155 -163h-209zM336 520q-47 -362 186 -358q219 0 269 362q46 363 -173 363q-233 -4 -282 -367z" />
<glyph unicode="&#xf5;" horiz-adv-x="995" d="M162 524q70 528 475 529q406 -1 336 -529q-70 -524 -475 -524q-406 0 -336 524zM336 520q-47 -362 186 -358q219 0 269 362q46 363 -173 363q-233 -4 -282 -367zM351 1341q37 37 95 71t126 34q43 0 84 -16.5t78.5 -35t75.5 -35t79 -16.5q39 0 71 15.5t79 54.5l51 -121 q-39 -35 -95.5 -66.5t-121.5 -31.5q-45 0 -87 15t-80 34.5t-76 35t-77 15.5q-43 0 -74.5 -17.5t-76.5 -52.5z" />
<glyph unicode="&#xf6;" horiz-adv-x="995" d="M162 524q70 528 475 529q406 -1 336 -529q-70 -524 -475 -524q-406 0 -336 524zM336 520q-47 -362 186 -358q219 0 269 362q46 363 -173 363q-233 -4 -282 -367zM348 1237l27 205h209l-27 -205h-209zM766 1237l26 205h209l-26 -205h-209z" />
<glyph unicode="&#xf7;" horiz-adv-x="1052" d="M174 629l25 186h868l-25 -186h-868zM444 215l31 223h223l-30 -223h-224zM547 993l31 224h223l-31 -224h-223z" />
<glyph unicode="&#xf8;" horiz-adv-x="1001" d="M123 2l94 125q-90 131 -53 401q70 530 477 531q127 0 209 -51l37 51h139l-96 -129v-2q84 -133 49 -400q-70 -528 -477 -528q-127 0 -209 51l-37 -49h-133zM332 528q-21 -145 4 -235l412 573q-47 41 -123 41q-244 0 -293 -379zM393 190q49 -43 131 -43q233 0 285 381 q18 143 -2 232z" />
<glyph unicode="&#xf9;" horiz-adv-x="940" d="M137 340l94 719h187l-76 -582q-80 -430 342 -305l39 297l78 590h186l-94 -723l-43 -326q-752 -166 -713 330zM295 1477h260l201 -260h-205z" />
<glyph unicode="&#xfa;" horiz-adv-x="940" d="M137 340l94 719h187l-76 -582q-80 -430 342 -305l39 297l78 590h186l-94 -723l-43 -326q-752 -166 -713 330zM447 1217l270 260h258l-325 -260h-203z" />
<glyph unicode="&#xfb;" horiz-adv-x="940" d="M137 340l94 719h187l-76 -582q-80 -430 342 -305l39 297l78 590h186l-94 -723l-43 -326q-752 -166 -713 330zM287 1217l258 260l240 -2l186 -258h-209l-111 163l-155 -163h-209z" />
<glyph unicode="&#xfc;" horiz-adv-x="940" d="M137 340l94 719h187l-76 -582q-80 -430 342 -305l39 297l78 590h186l-94 -723l-43 -326q-752 -166 -713 330zM322 1237l27 205h209l-27 -205h-209zM740 1237l26 205h209l-26 -205h-209z" />
<glyph unicode="&#xfd;" horiz-adv-x="1107" d="M82 -385l20 160q283 -12 387 225l-256 1067h201l180 -803l342 801h199l-467 -1067v-4h-2q-193 -414 -604 -379zM420 1217l270 260h258l-325 -260h-203z" />
<glyph unicode="&#xfe;" horiz-adv-x="1124" d="M29 -483l262 1984h203l-56 -420q199 35 314 15q88 -20 162.5 -52t122.5 -96.5t66.5 -163t0.5 -233.5q-35 -270 -202 -423t-437 -153q-43 0 -89 7.5t-81 17.5l-64 -483h-202zM317 172q37 -14 78 -21.5t105 -7.5q74 0 138 23.5t115.5 73t86 125t49.5 178.5q20 162 -26 258 t-181 117q-147 18 -270 -33z" />
<glyph unicode="&#xff;" horiz-adv-x="1107" d="M82 -385l20 160q283 -12 387 225l-256 1067h201l180 -803l342 801h199l-467 -1067v-4h-2q-193 -414 -604 -379zM334 1237l27 205h209l-27 -205h-209zM752 1237l26 205h209l-26 -205h-209z" />
<glyph unicode="&#x2c6;" horiz-adv-x="868" d="M252 1217l258 260l240 -2l186 -258h-209l-111 163l-155 -163h-209z" />
<glyph unicode="&#x2dc;" horiz-adv-x="929" d="M324 1759q37 37 95 71t126 34q43 0 84 -16.5t78.5 -35t75.5 -35t79 -16.5q39 0 71 15.5t79 54.5l51 -121q-39 -35 -95.5 -66.5t-121.5 -31.5q-45 0 -87 15t-80 34.5t-76 35t-77 15.5q-43 0 -74.5 -17.5t-76.5 -52.5z" />
<glyph unicode="&#x2000;" horiz-adv-x="952" />
<glyph unicode="&#x2001;" horiz-adv-x="1905" />
<glyph unicode="&#x2002;" horiz-adv-x="952" />
<glyph unicode="&#x2003;" horiz-adv-x="1905" />
<glyph unicode="&#x2004;" horiz-adv-x="635" />
<glyph unicode="&#x2005;" horiz-adv-x="476" />
<glyph unicode="&#x2006;" horiz-adv-x="317" />
<glyph unicode="&#x2007;" horiz-adv-x="317" />
<glyph unicode="&#x2008;" horiz-adv-x="238" />
<glyph unicode="&#x2009;" horiz-adv-x="381" />
<glyph unicode="&#x200a;" horiz-adv-x="105" />
<glyph unicode="&#x2010;" horiz-adv-x="714" d="M156 481l24 187h531l-25 -187h-530z" />
<glyph unicode="&#x2011;" horiz-adv-x="714" d="M156 481l24 187h531l-25 -187h-530z" />
<glyph unicode="&#x2012;" horiz-adv-x="714" d="M156 481l24 187h531l-25 -187h-530z" />
<glyph unicode="&#x2013;" horiz-adv-x="1208" d="M156 481l24 187h1024l-24 -187h-1024z" />
<glyph unicode="&#x2014;" horiz-adv-x="2232" d="M156 481l24 187h2048l-24 -187h-2048z" />
<glyph unicode="&#x2018;" horiz-adv-x="432" d="M225 1006l35 262q29 221 250 221l-12 -98q-101 0 -117 -123h125l-35 -260z" />
<glyph unicode="&#x2019;" horiz-adv-x="430" d="M250 1006l12 98q101 0 117 123h-125l35 260l246 2l-35 -262q-29 -221 -250 -221z" />
<glyph unicode="&#x201a;" horiz-adv-x="430" d="M88 -223l12 98q101 0 117 123h-125l35 260l246 2l-35 -262q-29 -221 -250 -221z" />
<glyph unicode="&#x201c;" horiz-adv-x="739" d="M225 1006l35 262q29 221 250 221l-12 -98q-101 0 -117 -123h125l-35 -260zM532 1006l35 262q29 221 250 221l-12 -98q-101 0 -117 -123h125l-35 -260z" />
<glyph unicode="&#x201d;" horiz-adv-x="737" d="M250 1006l12 98q101 0 117 123h-125l35 260l246 2l-35 -262q-29 -221 -250 -221zM557 1006l12 98q101 0 117 123h-125l35 260l246 2l-35 -262q-29 -221 -250 -221z" />
<glyph unicode="&#x201e;" horiz-adv-x="737" d="M88 -223l12 98q101 0 117 123h-125l35 260l246 2l-35 -262q-29 -221 -250 -221zM395 -223l13 98q100 0 116 123h-125l35 260l246 2l-35 -262q-29 -221 -250 -221z" />
<glyph unicode="&#x2022;" horiz-adv-x="712" d="M195 766q6 55 32.5 103.5t67.5 84t92 56t107 20.5q55 0 99 -20.5t74.5 -56t45 -84t8.5 -103.5q-8 -55 -35 -103.5t-67.5 -84t-90 -56t-104.5 -20.5t-101.5 20.5t-77 56t-44.5 84t-6 103.5z" />
<glyph unicode="&#x2026;" horiz-adv-x="1189" d="M92 0l25 186h186l-24 -186h-187zM502 0l25 186h186l-24 -186h-187zM911 0l25 186h186l-24 -186h-187z" />
<glyph unicode="&#x202f;" horiz-adv-x="381" />
<glyph unicode="&#x2039;" horiz-adv-x="741" d="M164 547l399 452h217l-393 -450l275 -457h-218z" />
<glyph unicode="&#x203a;" horiz-adv-x="741" d="M104 92l394 457l-275 450h217l281 -452l-399 -455h-218z" />
<glyph unicode="&#x205f;" horiz-adv-x="476" />
<glyph unicode="&#x20ac;" horiz-adv-x="1349" d="M164 539l20 153h154l6 56q6 40 12 77h-155l20 154h170q150 518 629 518q270 0 403 -233l-149 -131q-139 180 -270 180q-289 0 -400 -334h567l-20 -154h-586q-6 -37 -12 -77l-6 -56h588l-21 -153h-571q12 -360 311 -361q131 0 315 162l113 -143q-197 -197 -461 -197 q-489 0 -491 539h-166z" />
<glyph unicode="&#x2122;" horiz-adv-x="1335" d="M272 1362l15 102h452l-14 -102h-166l-78 -592h-104l78 592h-183zM664 772l153 692h109l114 -426l207 426h99v-692h-107l18 514l-180 -387h-110l-99 389l-104 -516h-100z" />
<glyph unicode="&#x25fc;" horiz-adv-x="1054" d="M0 0v1055h1055v-1055h-1055z" />
<glyph unicode="&#xfb03;" horiz-adv-x="1622" d="M14 -252l19 148q186 0 200 104l119 901h-141l20 158h142l24 180q33 256 316 256h96l-25 -186h-88q-104 0 -114 -76l-23 -174h369l24 180q33 256 316 256h75l-24 -186h-68q-104 0 -114 -76l-23 -174h555l-139 -1059h-187l119 901h-368l-119 -901q-35 -252 -406 -252 l19 148q186 0 200 104l119 901h-368l-119 -901q-35 -252 -406 -252zM1516 1309l24 186h186l-24 -186h-186z" />
<glyph unicode="&#xfb04;" horiz-adv-x="1781" d="M14 -252l19 148q186 0 200 104l119 901h-141l20 158h142l24 180q33 256 316 256h96l-25 -186h-88q-104 0 -114 -76l-23 -174h369l24 180q33 256 316 256h479l-154 -1171q-18 -137 121 -138l-24 -186q-326 0 -283 328l129 981h-285q-104 0 -114 -76l-23 -174h191l-21 -158 h-190l-119 -901q-35 -252 -406 -252l19 148q186 0 200 104l119 901h-368l-119 -901q-35 -252 -406 -252z" />
</font>
</defs>
</svg>
