<?xml version="1.0" standalone="no"?>
<!DOCTYPE svg PUBLIC "-//W3C//DTD SVG 1.1//EN" "http://www.w3.org/Graphics/SVG/1.1/DTD/svg11.dtd" >
<svg xmlns="http://www.w3.org/2000/svg" xmlns:xlink="http://www.w3.org/1999/xlink" version="1.1">
<metadata></metadata>
<defs>
<font id="de_luxe_nextbold" horiz-adv-x="1359" >
<font-face units-per-em="2048" ascent="1638" descent="-410" />
<missing-glyph horiz-adv-x="460" />
<glyph horiz-adv-x="0" />
<glyph unicode="&#xd;" horiz-adv-x="1040" />
<glyph unicode=" "  horiz-adv-x="460" />
<glyph unicode="&#x09;" horiz-adv-x="460" />
<glyph unicode="&#xa0;" horiz-adv-x="460" />
<glyph unicode="!" horiz-adv-x="425" d="M96 -14v227h234v-227h-234zM96 436v1077h234v-1077h-234z" />
<glyph unicode="&#x22;" horiz-adv-x="776" d="M96 1190v297h223v-297l-43 -293h-137zM457 1190v297h223v-297l-43 -293h-137z" />
<glyph unicode="#" horiz-adv-x="1486" d="M96 414l2 190h269l24 309h-252v189h269l28 325l211 3l-26 -328h319l29 325l213 3l-29 -328h238v-189h-252l-27 -309h236v-190h-252l-31 -369h-209l29 369h-320l-28 -369h-220l31 369h-252zM580 604h319l25 309h-320z" />
<glyph unicode="$" horiz-adv-x="1122" d="M96 1096q14 354 359 401v264h215v-254q174 -8 311 -88l-70 -196q-145 80 -309 84q-285 -12 -295 -211q18 -168 185 -215l137 -43q397 -113 385 -465q-51 -326 -344 -375v-264h-215v260q-190 14 -340 112l98 168q143 -80 352 -77q213 37 236 188q-2 201 -248 254l-150 55 q-295 102 -307 402z" />
<glyph unicode="%" horiz-adv-x="1701" d="M96 1214q10 330 324 340q344 -35 340 -337q6 -317 -332 -330q-322 8 -332 327zM195 -66l1079 1627h242l-1074 -1627h-247zM293 1217q2 -138 139 -148q145 0 143 152q2 139 -153 147q-131 -2 -129 -151zM909 276q12 344 338 355q356 -37 352 -352q6 -330 -346 -342 q-334 7 -344 339zM1114 279q1 -144 146 -154q152 -2 147 158q4 145 -160 153q-135 -2 -133 -157z" />
<glyph unicode="&#x26;" horiz-adv-x="1447" d="M164 596q74 133 184 176q-104 51 -153 186q-47 156 14 312q74 166 229 223q176 61 381 0q166 -47 316 -289l-189 -119q-68 137 -188 201q-123 39 -211 0q-59 -29 -109 -80q-70 -72 -39 -219q59 -111 156 -102h379l4 233h211v-233h154v-211h-154v-373q4 -96 53 -100 q33 0 135 39l15 -215q-104 -41 -183 -39q-129 0 -178 82q-27 -18 -71 -41q-199 -61 -406 -39q-170 47 -278 194q-139 207 -72 414zM381 559q-66 -164 35 -268q51 -45 121 -74q154 -51 299 14q57 37 98 86v357h-379q-102 -8 -174 -115z" />
<glyph unicode="'" horiz-adv-x="415" d="M96 1190v297h223v-297l-43 -293h-137z" />
<glyph unicode="(" horiz-adv-x="843" d="M494 -293q-397 1006 10 1948h241q-438 -946 3 -1948h-254z" />
<glyph unicode=")" horiz-adv-x="843" d="M96 1655h254q397 -1006 -10 -1948h-240q436 946 -4 1948z" />
<glyph unicode="*" horiz-adv-x="903" d="M96 1139l49 147l230 -82v242h155v-242l226 82l51 -147l-215 -80l133 -199l-125 -92l-145 217l-154 -217l-125 94l143 195z" />
<glyph unicode="+" horiz-adv-x="1081" d="M96 614v211h340v373h211v-373h338v-211h-338v-370h-211v370h-340z" />
<glyph unicode="," horiz-adv-x="407" d="M96 -14v215h215v-201v-61q0 -195 -211 -195v111q82 0 82 84v47h-86z" />
<glyph unicode="-" horiz-adv-x="751" d="M96 467v215h559v-215h-559z" />
<glyph unicode="." horiz-adv-x="407" d="M96 -14v215h215v-215h-215z" />
<glyph unicode="/" horiz-adv-x="929" d="M96 -14l508 1501h230l-510 -1501h-228z" />
<glyph unicode="0" horiz-adv-x="1253" d="M96 748q0 764 531 763q530 1 530 -763q0 -762 -530 -762t-531 762zM311 748q0 -555 322 -555q305 0 305 555q0 550 -305 550q-322 0 -322 -550z" />
<glyph unicode="1" horiz-adv-x="800" d="M96 1200q256 137 502 309h107v-1523h-213v1188q-133 -90 -306 -162z" />
<glyph unicode="2" horiz-adv-x="1239" d="M96 1085q117 297 334 402q205 84 424 -6q217 -90 262 -328q27 -180 -51 -319q-102 -186 -330 -324q-133 -59 -248.5 -156.5t-128.5 -152.5h738v-215h-979q-12 158 26.5 264t122.5 205q117 125 312 223q168 86 251 213q72 104 58 174q-14 156 -115 211q-141 57 -278 -14 q-109 -72 -193 -254z" />
<glyph unicode="3" horiz-adv-x="1271" d="M96 268l201 127q63 -106 152 -164q152 -66 307 -14q57 25 116 90q66 88 54 211q-39 152 -195 156h-242v211h244q125 18 156 104q25 94 -47 205q-41 57 -107 90q-131 55 -256 8q-86 -47 -153 -172l-201 86q135 232 264 289q221 98 461 -8q127 -57 207 -189 q94 -184 49 -352q-59 -150 -154 -168q150 -35 193 -219q31 -213 -88 -377q-109 -147 -277 -194q-229 -41 -420 43q-141 63 -264 237z" />
<glyph unicode="4" horiz-adv-x="1245" d="M96 399v125l690 985h172v-907h191v-203h-191v-413h-213v413h-649zM408 602h337v467z" />
<glyph unicode="5" horiz-adv-x="1249" d="M96 250l158 168q119 -154 225.5 -197t270.5 -2q86 27 141 94q43 74 45 193q0 82 -33 162q-37 88 -133 125q-111 41 -231 -7q-96 -53 -172 -170l-244 121l63 772h871v-215h-668l-39 -383q51 49 168 88q160 49 342 -4q123 -53 197 -153q96 -150 88 -336q-2 -225 -94 -348 q-80 -104 -183 -146q-250 -70 -433 -8t-339 246z" />
<glyph unicode="6" horiz-adv-x="1245" d="M106 532q-10 283 78 529q72 201 256 325q199 121 473 125v-215q-252 -27 -346 -96q-145 -102 -200 -293q90 74 317 94q449 -33 465 -507q-10 -219 -129 -367q-135 -135 -387 -141q-244 12 -381 174q-137 168 -146 372zM344 625q6 -231 84 -303q94 -109 207 -111 q139 0 207 68q86 88 88 213q-10 283 -256 282q-221 -4 -330 -149z" />
<glyph unicode="7" horiz-adv-x="1245" d="M96 1294v215h1053v-123q-416 -694 -528 -1400h-224q121 715 455 1308h-756z" />
<glyph unicode="8" horiz-adv-x="1245" d="M96 434q0 190 180 322q34 31 48 39q10 -6 -2 4q-160 123 -160 297t135 295.5t328 121.5t327.5 -121.5t134.5 -295.5t-157 -297q-12 -12 -4 -6q12 -6 45 -37q178 -131 178 -322q0 -188 -153.5 -320t-372.5 -132q-217 0 -372 132t-155 320zM322 434q0 -98 81.5 -163.5 t219.5 -65.5q137 0 219 65.5t82 163.5t-83 168t-218 70t-218 -70t-83 -168zM381 1096q0 -90 49 -135q49 -43 111 -58q29 -6 80 -6t86 6q59 14 108 58q49 45 49 135q0 88 -61.5 142t-179.5 54q-119 0 -180.5 -54t-61.5 -142z" />
<glyph unicode="9" horiz-adv-x="1245" d="M96 1004q10 219 129 366q135 135 387 141q244 -12 381 -174q137 -168 146 -372q10 -283 -78 -529q-72 -201 -256 -325q-199 -121 -473 -125v215q252 27 346 96q145 102 201 293q-90 -74 -318 -94q-449 33 -465 508zM315 1006q10 -283 256 -283q221 4 330 149 q-6 231 -84 304q-94 109 -207 110q-139 0 -207 -67q-86 -88 -88 -213z" />
<glyph unicode=":" horiz-adv-x="407" d="M96 -14v215h215v-215h-215zM96 858v215h215v-215h-215z" />
<glyph unicode=";" horiz-adv-x="407" d="M96 -14v215h215v-201v-61q0 -195 -211 -195v111q82 0 82 84v47h-86zM96 858v215h215v-215h-215z" />
<glyph unicode="&#x3c;" horiz-adv-x="1075" d="M96 586v237l881 357l2 -226l-645 -249l645 -240l-2 -236z" />
<glyph unicode="=" horiz-adv-x="1089" d="M96 410v215h897v-215h-897zM96 799v215h897v-215h-897z" />
<glyph unicode="&#x3e;" horiz-adv-x="1075" d="M96 465l645 240l-645 249l2 226l881 -357v-237l-881 -357z" />
<glyph unicode="?" horiz-adv-x="991" d="M96 1440q260 139 588 59q164 -61 190 -244q20 -117 7 -183t-60 -150t-110.5 -131.5t-132.5 -98.5v-250l-211 -4l-19 363q119 61 157 89t77 75t58 72.5t24 129.5q-12 100 -103 125q-178 53 -401 -51zM365 -14v227h233v-227h-233z" />
<glyph unicode="@" horiz-adv-x="2066" d="M129 453q-33 522 220 772t730 299q266 33 569.5 -192.5t303.5 -512.5q18 -182 -56.5 -429t-404.5 -275l-520 -13q-340 53 -383 338q-53 238 63.5 431.5t440.5 246.5q160 16 305 -74l-15 -743q10 2 41 -3t58 -5q82 0 136 47t87 124t42 170t-5 183q-39 254 -210 386 t-444 132q-420 -49 -588.5 -247.5t-150.5 -626.5q0 -262 239.5 -435t432.5 -155l416 -4l6 -172l-402 -8q-305 10 -594.5 199.5t-316.5 566.5zM788 467q-10 -225 412 -191l-12 635q-188 12 -306 -86t-94 -358z" />
<glyph unicode="A" d="M96 -14l463 1523h248l457 -1523h-224l-125 385h-473l-108 -385h-238zM487 580h392l-199 618z" />
<glyph unicode="B" horiz-adv-x="1267" d="M96 -14v1523h447h17q226 -1 357 -153q99 -116 99 -251q0 -49 -14 -103q-50 -196 -156 -234q102 -24 214 -184q53 -76 52 -166q0 -98 -64 -211q-122 -217 -477 -221h-475zM315 201h303q156 -1 224 109q34 55 34 110q0 56 -34 110q-68 110 -221 109h-306v-438zM315 854h162 q199 0 271 112q35 55 35 110q1 56 -37 108q-74 104 -269 110h-162v-440z" />
<glyph unicode="C" horiz-adv-x="1216" d="M96 745q0 764 582 764q274 0 442 -243l-139 -140q-166 184 -295 185q-369 0 -369 -566q0 -567 369 -567q129 0 295 166l139 -154q-175 -204 -439 -204h-3q-582 0 -582 759z" />
<glyph unicode="D" horiz-adv-x="1300" d="M96 -23v1536h387q721 0 721 -768t-708 -768h-400zM317 193h158q502 0 502 551.5t-510 551.5h-150v-1103z" />
<glyph unicode="E" horiz-adv-x="1093" d="M96 -12v1517h901v-217h-680v-440h543v-201h-545v-463h678v-196h-897z" />
<glyph unicode="F" horiz-adv-x="1093" d="M96 -12v1517h901v-217h-680v-440h543v-201h-545v-659h-219z" />
<glyph unicode="G" horiz-adv-x="1292" d="M96 739q29 765 781 765q113 0 243 -17l-26 -217q-104 13 -194 13q-575 0 -593 -529q4 -518 348 -570h15q189 0 319 97v352h-368v207h575v-705q-199 -145 -502 -149q-598 0 -598 753z" />
<glyph unicode="H" horiz-adv-x="1210" d="M96 -14v1521h213l-2 -663h600l2 663h205v-1521h-207v667h-600v-665z" />
<glyph unicode="I" horiz-adv-x="407" d="M96 -14v1521h215v-1521h-215z" />
<glyph unicode="J" horiz-adv-x="720" d="M96 188q295 6 314 304v1017h215v-1017q-27 -489 -506 -502z" />
<glyph unicode="K" horiz-adv-x="1273" d="M96 -14v1523h219l2 -639l576 639h285l-557 -614l548 -909h-245l-449 753l-158 -176v-577h-221z" />
<glyph unicode="L" horiz-adv-x="1120" d="M96 -14v1523h221v-1306h707v-217h-928z" />
<glyph unicode="M" horiz-adv-x="1576" d="M96 -14l64 1525h270l363 -946l352 944h272l64 -1523h-215l-41 1140l-326 -862h-205l-344 864l-39 -1142h-215z" />
<glyph unicode="N" horiz-adv-x="1337" d="M96 -10v1515h226l704 -1124v1124h215v-1515h-203l-727 1067v-1067h-215z" />
<glyph unicode="O" horiz-adv-x="1357" d="M96 745q0 764 582 764q584 0 584 -764q0 -759 -582 -759h-2q-582 0 -582 759zM317 745q0 -559 369 -559q350 0 350 559q0 558 -350 558q-369 0 -369 -558z" />
<glyph unicode="P" horiz-adv-x="1159" d="M96 -14v1523h465q502 0 502 -454.5t-502 -454.5h-250v-614h-215zM311 815h203q342 6 342 250q0 230 -314 230q-19 0 -40 -1h-191v-479z" />
<glyph unicode="Q" horiz-adv-x="1357" d="M96 745q0 764 582 764q584 0 584 -764q0 -356 -123 -536l96 -76l-119 -147l-108 88q-127 -88 -330 -88q-582 0 -582 759zM317 745q0 -559 369 -559q94 0 143 29l-139 111l119 145l154 -123q73 125 73 390v7q0 557 -350 558q-369 0 -369 -558z" />
<glyph unicode="R" horiz-adv-x="1249" d="M96 -14v1523h506q551 0 551 -458q0 -369 -346 -451l321 -614h-258l-307 592l-53 -3h-199v-589h-215zM311 791h195h30q396 0 396 257q0 248 -375 248q-29 0 -61 -2h-185v-503z" />
<glyph unicode="S" horiz-adv-x="1122" d="M96 1096q16 411 492 411h12h10q219 0 371 -88l-70 -196q-145 80 -309 84q-285 -12 -295 -211q18 -168 185 -215l137 -43q385 -110 385 -445v-20q-57 -365 -432 -385h-18q-269 0 -449 118l98 168q138 -77 337 -77h15q213 37 236 188q-2 201 -248 254l-150 55 q-295 102 -307 402z" />
<glyph unicode="T" horiz-adv-x="1181" d="M96 1294v215h989v-215h-368v-1312h-217v1312h-404z" />
<glyph unicode="U" horiz-adv-x="1257" d="M96 467v1042h219v-845q-1 -26 -1 -51q0 -412 315 -412q316 0 316 403q0 23 -1 47v858h217v-1046q-37 -476 -537 -476h-2q-502 1 -526 480z" />
<glyph unicode="V" horiz-adv-x="1314" d="M96 1509h226l346 -1192l319 1192h232l-433 -1527h-239z" />
<glyph unicode="W" horiz-adv-x="1875" d="M96 1513h250l186 -1198l287 1201h268l322 -1192l135 1189h236l-219 -1531h-250l-355 1163l-303 -1163h-291z" />
<glyph unicode="X" horiz-adv-x="1454" d="M96 -14l498 762l-498 759h269l362 -555l363 555h268l-498 -759l498 -762h-268l-363 555l-362 -555h-269z" />
<glyph unicode="Y" horiz-adv-x="1320" d="M96 1505h248l324 -753l321 753h236l-451 -1003v-520h-225v518z" />
<glyph unicode="Z" horiz-adv-x="1380" d="M96 -14v123l867 1185h-789v213h1110v-121l-862 -1183h821v-217h-1147z" />
<glyph unicode="[" horiz-adv-x="661" d="M96 -358v1929h469v-195h-239v-1540h239v-194h-469z" />
<glyph unicode="\" horiz-adv-x="929" d="M96 1487h230l508 -1501h-228z" />
<glyph unicode="]" horiz-adv-x="661" d="M96 -164h240v1540h-240v195h469v-1929h-469v194z" />
<glyph unicode="^" horiz-adv-x="1110" d="M96 739l344 748h232l342 -748l-223 -2l-240 529l-232 -529z" />
<glyph unicode="_" horiz-adv-x="1232" d="M96 -16h1041v-179h-1041v179z" />
<glyph unicode="`" horiz-adv-x="757" d="M96 1491h303l263 -289h-242z" />
<glyph unicode="a" horiz-adv-x="1015" d="M96 331q0 345 297 345q160 0 303 -19v84q0 129 -125 136l-315 -13v197l246 12h23q386 0 386 -382v-17v-688h-510q-305 0 -305 345zM311 320q0 -154 101 -154h284v295q-125 32 -221 32q-33 0 -63 -4q-101 -12 -101 -169z" />
<glyph unicode="b" horiz-adv-x="1026" d="M96 -14v1523h215v-510q130 75 299 75q16 0 33 -1q287 -41 287 -564t-318 -523h-516zM311 201h260q134 0 134 315v14q-3 328 -130 340q-117 0 -264 -102v-567z" />
<glyph unicode="c" horiz-adv-x="972" d="M96 520q0 551 441 551q205 0 340 -194l-129 -129q-126 116 -204 116h-1q-231 0 -232 -344q0 -346 232 -346q80 0 207 105l127 -142q-143 -166 -340 -166q-440 0 -441 549z" />
<glyph unicode="d" horiz-adv-x="1026" d="M96 511q0 521 287 562q17 1 33 1q168 0 299 -75v510h215v-1523h-516q-318 0 -318 525zM320 530v-17q0 -312 135 -312h260v567q-147 102 -264 102q-127 -12 -131 -340z" />
<glyph unicode="e" horiz-adv-x="1028" d="M96 520q0 551 445 551q379 0 379 -626v-39h-607q20 -231 234 -232q84 0 221 62l82 -185q-109 -80 -309 -80q-444 0 -445 549zM311 608h398q-2 257 -161 257q-10 0 -22 -1q-12 1 -23 1q-173 0 -192 -257z" />
<glyph unicode="f" horiz-adv-x="741" d="M96 887v186h142v166q0 270 297 270h110v-215h-102q-90 0 -90 -61v-160h190v-186h-190v-901h-215v901h-142z" />
<glyph unicode="g" horiz-adv-x="1071" d="M117 279q-10 117 -10 230q0 124 12 243q31 254 164 301q165 30 397 30q134 0 289 -10v-1073v-17q0 -201 -139 -271q-144 -72 -457 -93l-4 186q201 20 293 46t92 143v156q-123 -98 -385 -103q-225 23 -252 232zM330 369q12 -109 121 -113q174 10 303 104q10 143 10 275 q0 117 -8 225l-105 8q-36 2 -69 2q-104 0 -170 -24q-55 -14 -70 -90q-20 -98 -20 -221q0 -78 8 -166z" />
<glyph unicode="h" horiz-adv-x="1050" d="M96 -14v1523h215v-577q121 137 279 141q360 -4 364 -328v-759h-215v610v20q0 249 -137 249q-9 0 -18 -1q-143 0 -273 -221v-657h-215z" />
<glyph unicode="i" horiz-adv-x="407" d="M96 -14v1087h215v-1087h-215zM96 1294v215h215v-215h-215z" />
<glyph unicode="j" horiz-adv-x="618" d="M96 -252q209 0 211 252v1073h215v-1073q0 -442 -403 -442zM307 1294v215h215v-215h-215z" />
<glyph unicode="k" horiz-adv-x="1040" d="M96 -14v1523h219v-817l295 381h281l-311 -403l364 -684h-235l-275 544l-123 -129v-415h-215z" />
<glyph unicode="l" horiz-adv-x="546" d="M96 328v1181h215v-1185q0 -123 140 -123v-215q-354 0 -355 342z" />
<glyph unicode="m" horiz-adv-x="1550" d="M96 -14v1087h219l2 -65q31 55 172 63q193 0 287 -182q92 186 309 186q13 1 27 1q105 0 207 -83q121 -108 121 -401q0 -35 -2 -72v-534h-217v534q1 18 1 37q0 99 -18 195q-22 114 -117 125q-167 -15 -204 -351v-540h-215v540q-34 346 -170 346h-9q-82 -12 -130 -91 t-48 -240v-555h-215z" />
<glyph unicode="n" horiz-adv-x="1013" d="M96 -14v743v344h203l10 -106q100 98 240 106q340 -2 369 -348v-741l-216 2v600q-6 295 -155 295q-106 -12 -171 -103.5t-65 -242.5v-549h-215z" />
<glyph unicode="o" horiz-adv-x="1032" d="M96 524q0 543 420 543t420 -543q0 -538 -418 -538h-2q-420 0 -420 538zM301 520q0 -344 214 -344h5q205 0 205 348t-205 348q-219 -4 -219 -352z" />
<glyph unicode="p" horiz-adv-x="1026" d="M96 -451v1524h215v-125q137 106 301 125q317 0 318 -525q0 -521 -287 -562q-17 -1 -33 -1q-168 0 -299 74v-510h-215zM311 291q147 -103 264 -103h5q136 0 136 304v28q-7 338 -145 338q-131 -10 -260 -156v-411z" />
<glyph unicode="q" horiz-adv-x="1026" d="M96 550q0 523 318 523h516v-1524h-215v510q-129 -74 -295 -74q-18 0 -37 1q-287 41 -287 564zM331 530v-34q0 -296 120 -308q117 1 264 103v567h-260q-117 0 -124 -328z" />
<glyph unicode="r" horiz-adv-x="868" d="M96 -16v737v342h219v-123q53 88 215 121q27 3 56 3q87 0 186 -32l-74 -217q-70 29 -138 29h-17q-94 -16 -163 -92t-69 -203v-565h-215z" />
<glyph unicode="s" horiz-adv-x="915" d="M96 778q31 322 380 322h9q169 -14 310 -96l-72 -183q-129 70 -238 72h-16q-153 0 -158 -115q10 -94 107 -121l96 -30q295 -83 295 -346v-17q-45 -287 -336 -301h-14q-200 0 -361 107l105 172q116 -66 246 -66h8q115 16 127 96q-2 115 -142 152l-106 39q-229 80 -240 315z M96 778q31 322 380 322h9q169 -14 310 -96l-72 -183q-129 70 -238 72h-16q-153 0 -158 -115q10 -94 107 -121l96 -30q295 -83 295 -346v-17q-45 -287 -336 -301h-14q-200 0 -361 107l105 172q116 -66 246 -66h8q115 16 127 96q-2 115 -142 152l-106 39q-229 80 -240 315z " />
<glyph unicode="t" horiz-adv-x="765" d="M96 887v186h156v250h215v-250h154v-186h-154v-606q6 -96 53 -101q37 0 135 13l15 -193q-94 -14 -166 -14h-17q-236 0 -235 315v586h-156z" />
<glyph unicode="u" horiz-adv-x="976" d="M96 340v733h215v-596q-1 -21 -1 -40q0 -280 211 -280q63 0 145 25v287v604h215v-737v-338q-190 -43 -334 -43q-431 0 -451 385z" />
<glyph unicode="v" horiz-adv-x="1097" d="M96 1075h230l217 -796l221 794h237l-327 -1087h-260z" />
<glyph unicode="w" horiz-adv-x="1380" d="M96 1073h221l109 -754l158 754h192l182 -754l95 754h231l-176 -1087h-260l-166 639l-129 -639h-248z" />
<glyph unicode="x" horiz-adv-x="1085" d="M96 -14l318 544l-318 543h240l207 -364l207 364h239l-315 -543l315 -544h-239l-207 364l-207 -364h-240z" />
<glyph unicode="y" horiz-adv-x="1024" d="M96 281v792h203v-692q-1 -9 -1 -18q0 -110 88 -110q8 0 17 1q172 16 318 133v686h207v-1134q-6 -215 -144.5 -288t-410.5 -95l-4 188q160 20 252 46t100 153v204q-133 -96 -393 -100q-227 23 -232 234z" />
<glyph unicode="z" horiz-adv-x="1011" d="M96 -14v82l490 790h-488v215h817v-82l-491 -790h491v-215h-819z" />
<glyph unicode="{" horiz-adv-x="854" d="M96 592v43q61 33 100.5 63.5t62 69.5t33.5 89t11 118q0 145 9.5 258t51.5 190.5t124.5 117.5t226.5 40h43v-190q-90 0 -131 -15.5t-62.5 -49.5t-29 -91t-7.5 -143v-13q0 -113 -8 -192.5t-64.5 -168.5t-84.5 -104q27 -14 62.5 -50t57 -90t29.5 -134t8 -193v-14 q0 -84 7.5 -141.5t29 -90t62.5 -49t131 -16.5v-190q-139 0 -223 25.5t-135.5 78.5t-73 136t-21.5 194q0 119 -4 199.5t-23.5 136t-59.5 94.5t-122 82z" />
<glyph unicode="|" horiz-adv-x="419" d="M96 -356v1958q35 6 61.5 8t53.5 2q25 0 51.5 -2t61.5 -8v-1958q-35 -6 -60.5 -8.5t-52.5 -2.5t-53.5 2.5t-61.5 8.5z" />
<glyph unicode="}" horiz-adv-x="854" d="M96 -164q90 0 131 16.5t62.5 49t29 90t7.5 141.5v14q0 113 8 193t29.5 134t57.5 90t62 50q-27 12 -62.5 48t-57 90.5t-29.5 134.5t-8 192v13q0 86 -7.5 143t-29 91t-62.5 49.5t-131 15.5v190h43q143 0 226.5 -40t125 -117.5t51 -190.5t9.5 -258q0 -68 11 -118t33.5 -89 t61.5 -69.5t101 -63.5v-43q-82 -43 -122 -82t-59.5 -94.5t-23.5 -136t-4 -199.5q0 -111 -21.5 -194t-73 -136t-135 -78.5t-223.5 -25.5v190z" />
<glyph unicode="~" horiz-adv-x="1130" d="M96 612q49 61 126 98.5t163 37.5q49 0 95 -13.5t92 -29t91.5 -27.5t90.5 -12q39 0 77.5 13t100.5 71l102 -166q-57 -57 -123.5 -88t-154.5 -31q-49 0 -96.5 12t-93.5 27.5t-91 29t-86 13.5q-47 0 -88 -15.5t-100 -72.5z" />
<glyph unicode="&#xa1;" horiz-adv-x="425" d="M96 -444v1077h234v-1077h-234zM96 856v227h234v-227h-234z" />
<glyph unicode="&#xa2;" horiz-adv-x="915" d="M96 494q10 150 32 232.5t110 193.5q65 83 190 118v207h207v-186q113 -10 182 -72l-45 -166q-113 43 -227 39q-123 -10 -173 -70.5t-61.5 -131t-11.5 -160.5q8 -119 20.5 -170.5t51.5 -82t145 -59.5q84 -14 252 58l51 -185q-102 -43 -184 -55v-209h-207v219 q-102 31 -158 72q-76 55 -118.5 143t-55.5 265z" />
<glyph unicode="&#xa3;" horiz-adv-x="1110" d="M96 610v189h144q-8 43 -17.5 103.5t-9.5 125.5q0 90 28.5 174t87 147.5t148.5 101.5t213 38q111 0 184.5 -16.5t139.5 -45.5l-53 -198q-72 31 -128.5 43t-130.5 12q-70 0 -116.5 -21.5t-75.5 -57.5t-42 -86t-13 -105q0 -61 9 -116.5t19 -98.5h385v-189h-350q4 -20 9 -59 t5 -78q0 -88 -29.5 -166t-64.5 -108h576v-213h-897l-8 215q82 10 126 59t52 97.5t8 86.5q0 45 -5 88t-14 78h-180z" />
<glyph unicode="&#xa4;" horiz-adv-x="888" d="M96 350l92 92q-6 8 -20 60q-10 37 -10 73q0 39 12 78q10 50 16 58l-90 90l123 123l94 -90q6 6 54 16q39 12 79 12q35 0 74 -10q49 -14 58 -21l92 93l123 -123l-93 -92q6 -10 23 -58q8 -37 8 -76q0 -37 -8 -75q-16 -49 -21 -56l91 -94l-123 -123l-92 92q-8 -6 -58 -20 q-37 -10 -76 -10q-37 0 -75 10q-49 14 -58 20l-92 -92zM326 575q0 -14 6 -28q8 -35 28 -55q23 -23 54 -31q16 -4 30 -4q16 0 31 4q33 8 55 31q20 23 31 53q4 16 4 30q0 16 -4 29q-10 33 -31 55q-25 23 -55 31q-14 4 -31 4q-16 0 -30 -4q-31 -8 -54 -31q-20 -23 -28 -51 q-6 -16 -6 -33z" />
<glyph unicode="&#xa5;" horiz-adv-x="1320" d="M96 1505h248l324 -753l321 753h236l-351 -780h287v-172h-364l-23 -53v-82h387v-172h-387v-264h-225v264h-379v172h379v82l-25 53h-354v172h279z" />
<glyph unicode="&#xa6;" horiz-adv-x="419" d="M96 352h228v-710h-228v710zM96 893v711h228v-711h-228z" />
<glyph unicode="&#xa7;" horiz-adv-x="985" d="M96 758q19 206 154 272q-78 72 -84 219q31 326 389 322q168 -14 309 -96l-71 -183q-129 70 -238 72q-168 6 -174 -115q10 -94 106 -121l97 -30q305 -86 295 -363q-31 -188 -148 -250q84 -82 78 -241q-45 -287 -336 -301q-209 -4 -375 106l105 172q119 -68 254 -65 q115 16 127 96q-2 115 -142 151l-106 39q-82 29 -133 76q-12 6 -37 23l6 8q-70 76 -76 209zM289 752q0 -47 22 -76q94 -76 211 -55q117 16 162 127q21 78 -61 137q-59 37 -134 33q-172 -10 -200 -166z" />
<glyph unicode="&#xa8;" horiz-adv-x="847" d="M96 1223v233h238v-233h-238zM514 1223v233h238v-233h-238z" />
<glyph unicode="&#xa9;" horiz-adv-x="1740" d="M96 735q0 164 56.5 307.5t158 247t244.5 162.5t315 59t315.5 -58t245 -162.5t158 -247t56.5 -308.5t-56.5 -308t-158 -245.5t-245 -163t-315.5 -59.5t-315 59.5t-244.5 163t-158 245.5t-56.5 308zM274 735q0 -129 41 -240.5t118 -194.5t186.5 -131t250.5 -48t251 48 t186.5 131t117.5 194.5t41 240.5t-41 240.5t-117.5 194.5t-186 131.5t-251.5 48.5q-141 0 -250.5 -48.5t-186.5 -131.5t-118 -194.5t-41 -240.5zM481 702q8 133 28.5 209t99.5 175.5t274 132.5q178 2 272 -80l-55 -142q-109 55 -205 43q-115 -12 -166 -75.5t-63.5 -122 t-6.5 -135.5q6 -104 29 -154.5t65 -86.5t115 -50q78 -10 230 53l59 -158q-158 -66 -299 -67q-150 39 -218.5 88t-107 130t-51.5 240z" />
<glyph unicode="&#xaa;" horiz-adv-x="862" d="M96 947.5q0 271.5 258 271.5q123 0 230 -27v88q0 78 -78 78q-154 8 -256 -43l-33 143q92 31 217 45q332 16 316 -305v-522h-390q-264 0 -264 271.5zM262 941q-8 -122 80 -122h242v215q-129 47 -242 37q-72 -8 -80 -130z" />
<glyph unicode="&#xab;" horiz-adv-x="1312" d="M96 547l350 467h254l-346 -465l346 -471h-254zM612 547l351 467h254l-347 -465l347 -471h-254z" />
<glyph unicode="&#xac;" horiz-adv-x="1075" d="M96 588v217h883v-600h-217v383h-666z" />
<glyph unicode="&#xad;" horiz-adv-x="751" d="M96 467v215h559v-215h-559z" />
<glyph unicode="&#xae;" horiz-adv-x="1740" d="M96 735q0 164 56.5 307.5t158 247t244.5 162.5t315 59t315.5 -58t245 -162.5t158 -247t56.5 -308.5t-56.5 -308t-158 -245.5t-245 -163t-315.5 -59.5t-315 59.5t-244.5 163t-158 245.5t-56.5 308zM274 735q0 -129 41 -240.5t118 -194.5t186.5 -131t250.5 -48t251 48 t186.5 131t117.5 194.5t41 240.5t-41 240.5t-117.5 194.5t-186 131.5t-251.5 48.5q-141 0 -250.5 -48.5t-186.5 -131.5t-118 -194.5t-41 -240.5zM549 272v906h416q250 0 249.5 -263.5t-196.5 -263.5l215 -379h-191l-229 379h-92v-379h-172zM721 821l217 -2q111 8 111 103.5 t-119 95.5h-209v-197z" />
<glyph unicode="&#xaf;" horiz-adv-x="774" d="M96 1255v181h582v-181h-582z" />
<glyph unicode="&#xb0;" horiz-adv-x="821" d="M96 1188q0 66 24.5 123t67.5 99t100.5 66.5t121.5 24.5q63 0 121.5 -24.5t101.5 -66.5t67.5 -99.5t24.5 -122.5q0 -63 -24.5 -120.5t-67.5 -99.5t-101.5 -66.5t-121.5 -24.5t-121 24.5t-101 66.5t-67.5 99.5t-24.5 120.5zM272 1188q0 -63 39 -104.5t99 -41.5q59 0 100 41 t41 105q0 63 -41 105t-100 42t-98.5 -42t-39.5 -105z" />
<glyph unicode="&#xb1;" horiz-adv-x="1089" d="M96 -12v215h897v-215h-897zM100 614v211h340v373h211v-373h338v-211h-338v-370h-211v370h-340z" />
<glyph unicode="&#xb2;" horiz-adv-x="817" d="M96 1362q78 115 213 154q143 29 250 -21q129 -61 150 -197q12 -125 -29 -198q-49 -117 -195 -201q-66 -35 -116 -79t-58 -70h400v-162h-594v137q25 94 82 174q55 76 178 135q92 49 137 115q31 66 21 131q-12 47 -72 72q-45 20 -119 -4q-61 -27 -131 -103z" />
<glyph unicode="&#xb3;" horiz-adv-x="849" d="M96 768l125 102q57 -84 109 -90q78 -14 159 13q35 14 62 36q47 49 12 127q-23 47 -76 52h-229v163h229q49 -4 66 43q14 70 -16 101q-25 29 -74 41q-51 14 -109 -2q-72 -14 -139 -86l-84 153q80 66 178 95q123 25 250 -13q100 -39 143 -127q39 -96 13 -190 q-20 -82 -45 -90q39 -23 61 -109q23 -141 -43 -250q-68 -78 -174 -106q-121 -25 -240 -2q-88 31 -178 139z" />
<glyph unicode="&#xb4;" horiz-adv-x="755" d="M96 1202l262 289h301l-323 -289h-240z" />
<glyph unicode="&#xb5;" horiz-adv-x="1136" d="M96 -498v1563h230v-563q0 -176 57 -258t180 -82q49 0 93 16.5t79 49t55.5 85t20.5 127.5v625h229v-1079h-215v100q-25 -33 -100.5 -79t-194.5 -46q-145 0 -206 70v-529h-228z" />
<glyph unicode="&#xb6;" horiz-adv-x="1161" d="M96 1040q0 123 38 212t119 144.5t206 80.5q106 20 254 22h352v-1513h-180v1304h-127v-1304h-180v641h-11q-98 0 -183 23.5t-149.5 74.5t-101.5 129t-37 186z" />
<glyph unicode="&#xb7;" horiz-adv-x="444" d="M96 438v252h252v-252h-252z" />
<glyph unicode="&#xb8;" horiz-adv-x="673" d="M96 -481q2 41 8.5 75.5t28.5 69.5q70 -23 133 -22q63 0 95 16t32 51q0 31 -30.5 44.5t-88.5 13.5q-27 0 -55.5 -4.5t-60.5 -12.5l-27 23l107 290h163l-65 -163q-4 0 22 0q104 0 162 -53.5t58 -137.5q0 -109 -86 -163t-226 -54q-29 0 -72.5 3t-97.5 24z" />
<glyph unicode="&#xb9;" horiz-adv-x="606" d="M96 1227l336 299h78v-928h-170v653q0 -33 -115 -137z" />
<glyph unicode="&#xba;" horiz-adv-x="849" d="M96 1053q0 467 328 467q330 0 330 -467t-330 -467q-328 0 -328 467zM252 1053q0 -315 176 -316q168 0 168 316q0 311 -168 311q-176 0 -176 -311z" />
<glyph unicode="&#xbb;" horiz-adv-x="1312" d="M96 78l344 471l-344 465h252l352 -467l-352 -469h-252zM612 78l344 471l-344 465h252l353 -467l-353 -469h-252z" />
<glyph unicode="&#xbc;" horiz-adv-x="1769" d="M96 1333q146 80 287 176h68v-864h-132v660q-68 -45 -167 -88zM233 -66l1121 1627h200l-1114 -1627h-207zM1053 225v82l403 576h111v-527h106v-131h-106v-239h-137v239h-377zM1249 356h181v269z" />
<glyph unicode="&#xbd;" horiz-adv-x="1716" d="M96 1337q150 81 291 179h68v-875h-133v668q-66 -45 -168 -88zM154 -66l1122 1627h201l-1117 -1627h-206zM1042 -16q-8 98 14.5 160.5t73.5 121.5q84 86 170 127q94 53 142 125q35 57 33 127q-2 49 -56 82q-76 37 -151 -2q-43 -29 -57.5 -59.5t-28.5 -81.5l-135 30 q33 190 184 256q113 35 235 -6q119 -43 148 -194q6 -102 -33 -189q-49 -113 -186 -192q-68 -35 -121 -81t-64 -87h398v-137h-566z" />
<glyph unicode="&#xbe;" horiz-adv-x="1740" d="M96 805l123 78q37 -63 86 -95q78 -35 162 -8q37 16 65 39q53 57 19 144q-39 55 -92 59h-142v131h142q49 -4 80 51q16 80 -19 117q-27 27 -59 41q-70 25 -135 2q-49 -29 -99 -117l-125 76q91 141 185 168q117 35 237 0q90 -33 133 -127q33 -88 21 -178q-16 -78 -66 -101 q53 -23 78 -98q31 -117 -47 -235q-63 -84 -162 -111q-117 -12 -227 21q-84 39 -158 143zM201 -66l1120 1627h201l-1114 -1627h-207zM1030 221v80l400 571h108v-522h107v-129h-107v-237h-135v237h-373zM1225 350h178v264z" />
<glyph unicode="&#xbf;" horiz-adv-x="991" d="M109 -13.5q12 66.5 60 150.5t111.5 131t131.5 99v249l213 5l16 -363q-117 -61 -154.5 -89t-76.5 -75t-58.5 -72.5t-25.5 -130.5q12 -100 102 -124q180 -53 401 51l66 -199q-260 -139 -588 -59q-164 61 -192 243q-18 117 -6 183.5zM391 846v227h234v-227h-234z" />
<glyph unicode="&#xc0;" d="M96 -14l463 1523h248l457 -1523h-224l-125 385h-473l-108 -385h-238zM291 1860h303l263 -289h-242zM487 580h392l-199 618z" />
<glyph unicode="&#xc1;" d="M96 -14l463 1523h248l457 -1523h-224l-125 385h-473l-108 -385h-238zM463 1571l262 289h301l-323 -289h-240zM487 580h392l-199 618z" />
<glyph unicode="&#xc2;" d="M96 -14l463 1523h248l457 -1523h-224l-125 385h-473l-108 -385h-238zM303 1571l248 289l252 -2l246 -287h-246l-127 156l-125 -156h-248zM487 580h392l-199 618z" />
<glyph unicode="&#xc3;" d="M96 -14l463 1523h248l457 -1523h-224l-125 385h-473l-108 -385h-238zM289 1761q41 45 97.5 81t128.5 36q45 0 89 -17.5t85 -36t79.5 -33.5t77.5 -15q35 0 61.5 14t80.5 63l82 -145q-43 -45 -97.5 -78t-124.5 -33q-49 0 -93 16.5t-85 36t-80 34t-73 14.5q-41 0 -68 -16.5 t-78 -61.5zM487 580h392l-199 618z" />
<glyph unicode="&#xc4;" d="M96 -14l463 1523h248l457 -1523h-224l-125 385h-473l-108 -385h-238zM350 1612v233h238v-233h-238zM487 580h392l-199 618zM768 1612v233h238v-233h-238z" />
<glyph unicode="&#xc5;" d="M96 -14l457 1499q-18 8 -41 33q-66 63 -66 168q0 104 67 168.5t169 64.5q104 0 170 -64.5t66 -168.5t-66 -168q-21 -25 -39 -33l451 -1499h-224l-125 385h-473l-108 -385h-238zM487 580h392l-199 618zM596 1686q0 -47 22.5 -74t63.5 -27q43 0 65.5 26.5t22.5 74.5 q0 47 -22.5 73.5t-65.5 26.5q-41 0 -63.5 -26.5t-22.5 -73.5z" />
<glyph unicode="&#xc6;" horiz-adv-x="2048" d="M96 -14l881 1523h975v-225h-680v-432h543v-207h-543v-455h676v-204h-906v385h-475l-231 -385h-240zM664 580h378v614z" />
<glyph unicode="&#xc7;" horiz-adv-x="1234" d="M96 748q0 764 590 763q279 0 453 -249l-150 -150q-170 186 -295 186q-360 0 -360 -550q0 -555 360 -555q125 0 295 167l150 -163q-182 -211 -453 -211h-8l-35 -86q-4 0 25 0q104 0 161.5 -53.5t57.5 -137.5q0 -109 -86 -163t-226 -54q-29 0 -73.5 3t-95.5 24q2 41 7 75.5 t29 69.5q70 -23 133 -22q61 0 94 16t33 51q0 31 -30.5 44.5t-87.5 13.5q-29 0 -57.5 -4.5t-61.5 -12.5l-25 23l86 229q-430 84 -430 746z" />
<glyph unicode="&#xc8;" horiz-adv-x="1093" d="M96 -12v1517h901v-217h-680v-440h543v-201h-545v-463h678v-196h-897zM282 1860h303l263 -289h-242z" />
<glyph unicode="&#xc9;" horiz-adv-x="1093" d="M96 -12v1517h901v-217h-680v-440h543v-201h-545v-463h678v-196h-897zM289 1571l262 289h301l-323 -289h-240z" />
<glyph unicode="&#xca;" horiz-adv-x="1093" d="M96 -12v1517h901v-217h-680v-440h543v-201h-545v-463h678v-196h-897zM192 1591l248 289l252 -2l246 -287h-246l-127 156l-125 -156h-248z" />
<glyph unicode="&#xcb;" horiz-adv-x="1093" d="M96 -12v1517h901v-217h-680v-440h543v-201h-545v-463h678v-196h-897zM219 1633v233h238v-233h-238zM637 1633v233h238v-233h-238z" />
<glyph unicode="&#xcc;" horiz-adv-x="757" d="M96 1860h303l263 -289h-242zM358 -14v1521h215v-1521h-215z" />
<glyph unicode="&#xcd;" horiz-adv-x="755" d="M96 1571l262 289h301l-323 -289h-240zM213 -14v1521h215v-1521h-215z" />
<glyph unicode="&#xce;" horiz-adv-x="937" d="M96 1556l248 289l252 -2l246 -287h-246l-127 156l-125 -156h-248zM364 -14v1521h215v-1521h-215z" />
<glyph unicode="&#xcf;" horiz-adv-x="847" d="M96 1592v233h238v-233h-238zM311 -14v1521h215v-1521h-215zM514 1592v233h238v-233h-238z" />
<glyph unicode="&#xd0;" horiz-adv-x="1392" d="M96 662v186h111l-2 657h583q508 0 508 -759.5t-495 -759.5h-592l-2 676h-111zM410 848h432v-186h-430v-478h368q305 0 305 570.5t-313 570.5h-362v-477z" />
<glyph unicode="&#xd1;" horiz-adv-x="1337" d="M96 -10v1515h226l704 -1124v1124h215v-1515h-203l-727 1067v-1067h-215zM278 1761q41 45 97.5 81t128.5 36q45 0 89 -17.5t85 -36t79.5 -33.5t77.5 -15q35 0 61.5 14t80.5 63l82 -145q-43 -45 -97.5 -78t-124.5 -33q-49 0 -93 16.5t-85 36t-80 34t-73 14.5 q-41 0 -68 -16.5t-78 -61.5z" />
<glyph unicode="&#xd2;" horiz-adv-x="1357" d="M96 745q0 764 582 764q584 0 584 -764q0 -760 -584 -759q-582 0 -582 759zM268 1839h303l263 -289h-242zM317 745q0 -559 369 -559q350 0 350 559q0 558 -350 558q-369 0 -369 -558z" />
<glyph unicode="&#xd3;" horiz-adv-x="1357" d="M96 745q0 764 582 764q584 0 584 -764q0 -760 -584 -759q-582 0 -582 759zM317 745q0 -559 369 -559q350 0 350 559q0 558 -350 558q-369 0 -369 -558zM458 1550l262 289h301l-323 -289h-240z" />
<glyph unicode="&#xd4;" horiz-adv-x="1357" d="M96 745q0 764 582 764q584 0 584 -764q0 -760 -584 -759q-582 0 -582 759zM301 1550l248 289l252 -2l246 -287h-246l-127 156l-125 -156h-248zM317 745q0 -559 369 -559q350 0 350 559q0 558 -350 558q-369 0 -369 -558z" />
<glyph unicode="&#xd5;" horiz-adv-x="1357" d="M96 745q0 764 582 764q584 0 584 -764q0 -760 -584 -759q-582 0 -582 759zM284 1720q41 45 97.5 81t128.5 36q45 0 89 -17.5t85 -36t79.5 -33.5t77.5 -15q35 0 61.5 14t80.5 63l82 -145q-43 -45 -97.5 -78t-124.5 -33q-49 0 -93 16.5t-85 36t-80 34t-73 14.5 q-41 0 -68 -16.5t-78 -61.5zM317 745q0 -559 369 -559q350 0 350 559q0 558 -350 558q-369 0 -369 -558z" />
<glyph unicode="&#xd6;" horiz-adv-x="1357" d="M96 745q0 764 582 764q584 0 584 -764q0 -760 -584 -759q-582 0 -582 759zM317 745q0 -559 369 -559q350 0 350 559q0 558 -350 558q-369 0 -369 -558zM348 1571v233h238v-233h-238zM766 1571v233h238v-233h-238z" />
<glyph unicode="&#xd7;" horiz-adv-x="1044" d="M96 397l289 289l-289 291l137 135l289 -289l291 289l135 -137l-289 -289l289 -289l-137 -137l-289 289l-289 -289z" />
<glyph unicode="&#xd8;" horiz-adv-x="1374" d="M96 748q0 764 590 763q211 0 336 -90l51 82h199l-129 -200q135 -182 135 -555q0 -762 -592 -762q-215 0 -340 94l-43 -64h-180l110 174q-137 182 -137 558zM334 748q0 -221 45 -330l518 809q-72 72 -203 71q-360 0 -360 -550zM471 272q78 -80 223 -79q342 0 342 555 q0 221 -43 327z" />
<glyph unicode="&#xd9;" horiz-adv-x="1257" d="M96 467v1042h219v-845q-20 -463 314 -463t315 450v858h217v-1046q-37 -477 -539.5 -476t-525.5 480zM286 1839h303l263 -289h-242z" />
<glyph unicode="&#xda;" horiz-adv-x="1257" d="M96 467v1042h219v-845q-20 -463 314 -463t315 450v858h217v-1046q-37 -477 -539.5 -476t-525.5 480zM436 1550l262 289h301l-323 -289h-240z" />
<glyph unicode="&#xdb;" horiz-adv-x="1257" d="M96 467v1042h219v-845q-20 -463 314 -463t315 450v858h217v-1046q-37 -477 -539.5 -476t-525.5 480zM258 1550l248 289l252 -2l246 -287h-246l-127 156l-125 -156h-248z" />
<glyph unicode="&#xdc;" horiz-adv-x="1257" d="M96 467v1042h219v-845q-20 -463 314 -463t315 450v858h217v-1046q-37 -477 -539.5 -476t-525.5 480zM325 1592v233h238v-233h-238zM743 1592v233h238v-233h-238z" />
<glyph unicode="&#xdd;" horiz-adv-x="1320" d="M96 1505h248l324 -753l321 753h236l-451 -1003v-520h-225v518zM444 1550l262 289h301l-323 -289h-240z" />
<glyph unicode="&#xde;" horiz-adv-x="1124" d="M96 -14v1501h238v-230l115 7q109 0 212 -23.5t185 -83t132 -158t50 -245.5q0 -145 -50 -243.5t-132 -157t-185.5 -82t-211.5 -23.5l-115 4v-266h-238zM334 465l115 -8q61 0 121.5 12t107.5 45t75.5 91.5t28.5 150.5t-28.5 150.5t-75.5 90t-107.5 44t-121.5 12.5l-115 -9 v-579z" />
<glyph unicode="&#xdf;" horiz-adv-x="1150" d="M96 -14v1024q0 121 20.5 217t71 165.5t133 105.5t199.5 36q102 0 177 -27.5t123 -75t70.5 -111t22.5 -132.5q0 -96 -29.5 -160.5t-64.5 -114t-62.5 -90.5t-27.5 -92q0 -37 22.5 -64.5t57.5 -51t77 -51t80 -64.5t63.5 -90.5t25.5 -133.5q0 -139 -94.5 -227t-278.5 -88 q-80 0 -139.5 13.5t-124.5 41.5l55 191q59 -29 103.5 -40t89.5 -11q66 0 110.5 26.5t44.5 100.5q0 45 -21.5 73.5t-56 52t-76.5 48t-80 58.5t-62.5 81t-24.5 121q0 76 29.5 130t63.5 103t61.5 102.5t27.5 127.5t-42 116.5t-124 42.5q-115 0 -153.5 -77.5t-38.5 -255.5v-1020 h-228z" />
<glyph unicode="&#xe0;" horiz-adv-x="1015" d="M96 331q0 345 297 345q160 0 303 -19v84q0 129 -125 136l-315 -13v197l246 12q418 12 409 -399v-688h-510q-305 0 -305 345zM108 1491h303l263 -289h-242zM311.5 321.5q-0.5 -155.5 100.5 -155.5h284v295q-168 43 -284 28q-100 -12 -100.5 -167.5z" />
<glyph unicode="&#xe1;" horiz-adv-x="1019" d="M96 331q0 345 297 345q160 0 303 -19v84q0 129 -125 136l-315 -13v197l246 12q418 12 409 -399v-688h-510q-305 0 -305 345zM311.5 321.5q-0.5 -155.5 100.5 -155.5h284v295q-168 43 -284 28q-100 -12 -100.5 -167.5zM360 1202l262 289h301l-323 -289h-240z" />
<glyph unicode="&#xe2;" horiz-adv-x="1015" d="M96 331q0 345 297 345q160 0 303 -19v84q0 129 -125 136l-315 -13v197l246 12q418 12 409 -399v-688h-510q-305 0 -305 345zM121 1202l248 289l252 -2l246 -287h-246l-127 156l-125 -156h-248zM311.5 321.5q-0.5 -155.5 100.5 -155.5h284v295q-168 43 -284 28 q-100 -12 -100.5 -167.5z" />
<glyph unicode="&#xe3;" horiz-adv-x="1015" d="M96 331q0 345 297 345q160 0 303 -19v84q0 129 -125 136l-315 -13v197l246 12q418 12 409 -399v-688h-510q-305 0 -305 345zM125 1331q41 45 97.5 81t128.5 36q45 0 89 -17.5t85 -36t79.5 -33.5t77.5 -15q35 0 61.5 14t80.5 63l82 -145q-43 -45 -97.5 -78t-124.5 -33 q-49 0 -93 16.5t-85 36t-80 34t-73 14.5q-41 0 -68 -16.5t-78 -61.5zM311.5 321.5q-0.5 -155.5 100.5 -155.5h284v295q-168 43 -284 28q-100 -12 -100.5 -167.5z" />
<glyph unicode="&#xe4;" horiz-adv-x="1015" d="M96 331q0 345 297 345q160 0 303 -19v84q0 129 -125 136l-315 -13v197l246 12q418 12 409 -399v-688h-510q-305 0 -305 345zM168 1223v233h238v-233h-238zM311.5 321.5q-0.5 -155.5 100.5 -155.5h284v295q-168 43 -284 28q-100 -12 -100.5 -167.5zM586 1223v233h238v-233 h-238z" />
<glyph unicode="&#xe5;" horiz-adv-x="1015" d="M96 331q0 345 297 345q160 0 303 -19v84q0 129 -125 136l-315 -13v197l246 12q418 12 409 -399v-688h-510q-305 0 -305 345zM264 1419q0 104 65.5 169t170.5 65q104 0 169.5 -64.5t65.5 -169.5q0 -104 -65.5 -168.5t-169.5 -64.5t-170 64.5t-66 168.5zM311.5 321.5 q-0.5 -155.5 100.5 -155.5h284v295q-168 43 -284 28q-100 -12 -100.5 -167.5zM414 1419q0 -47 21.5 -73.5t64.5 -26.5t65.5 26.5t22.5 73.5t-22.5 74t-65.5 27t-64.5 -27t-21.5 -74z" />
<glyph unicode="&#xe6;" horiz-adv-x="1601" d="M96 310.5q0 324.5 297 324.5q160 0 303 -19v125q0 129 -125 136l-315 -21v195l246 22q229 8 313 -117q59 115 299 115q391 0 379 -665h-606q20 -231 233 -232q84 0 221 62l82 -185q-109 -80 -309 -80q-229 0 -278 115q-53 -100 -187 -100h-248q-305 0 -305 324.5z M311.5 301.5q-0.5 -135.5 100.5 -135.5h149q135 0 135 125v129q-168 43 -284 29q-100 -12 -100.5 -147.5zM885 608h397q-2 274 -182 256q-195 18 -215 -256z" />
<glyph unicode="&#xe7;" horiz-adv-x="962" d="M96 520q0 551 430 551q205 0 340 -194l-129 -129q-127 137 -205 137q-231 0 -231 -365q0 -367 231 -366q78 0 205 125l129 -142q-131 -152 -295 -164l-30 -73q-4 0 24 0q104 0 161.5 -53.5t57.5 -137.5q0 -109 -86 -163t-225 -54q-29 0 -74 3t-96 24q2 41 7 75.5t30 69.5 q70 -23 133 -22q61 0 94 16t33 51q0 31 -30.5 44.5t-88.5 13.5q-29 0 -57.5 -4.5t-61.5 -12.5l-24 23l78 209q-319 53 -320 538z" />
<glyph unicode="&#xe8;" horiz-adv-x="1032" d="M96 1491h303l263 -289h-242zM100 520q0 551 445 551q391 0 379 -665h-607q20 -231 234 -232q84 0 221 62l82 -185q-109 -80 -309 -80q-444 0 -445 549zM315 608h398q-2 274 -183 256q-195 18 -215 -256z" />
<glyph unicode="&#xe9;" horiz-adv-x="1028" d="M96 520q0 551 445 551q391 0 379 -665h-607q20 -231 234 -232q84 0 221 62l82 -185q-109 -80 -309 -80q-444 0 -445 549zM282 1202l262 289h301l-323 -289h-240zM311 608h398q-2 274 -183 256q-195 18 -215 -256z" />
<glyph unicode="&#xea;" horiz-adv-x="1028" d="M96 520q0 551 445 551q391 0 379 -665h-607q20 -231 234 -232q84 0 221 62l82 -185q-109 -80 -309 -80q-444 0 -445 549zM145 1202l248 289l252 -2l246 -287h-246l-127 156l-125 -156h-248zM311 608h398q-2 274 -183 256q-195 18 -215 -256z" />
<glyph unicode="&#xeb;" horiz-adv-x="1028" d="M96 520q0 551 445 551q391 0 379 -665h-607q20 -231 234 -232q84 0 221 62l82 -185q-109 -80 -309 -80q-444 0 -445 549zM192 1223v233h238v-233h-238zM311 608h398q-2 274 -183 256q-195 18 -215 -256zM610 1223v233h238v-233h-238z" />
<glyph unicode="&#xec;" horiz-adv-x="757" d="M96 1491h303l263 -289h-242zM356 -14v1081h211v-1081h-211zM385 14h154v1024h-154v-1024z" />
<glyph unicode="&#xed;" horiz-adv-x="755" d="M96 1202l262 289h301l-323 -289h-240zM186 -14v1081h211v-1081h-211z" />
<glyph unicode="&#xee;" horiz-adv-x="937" d="M96 1202l248 289l252 -2l246 -287h-246l-127 156l-125 -156h-248zM365 -14v1081h210v-1081h-210z" />
<glyph unicode="&#xef;" horiz-adv-x="847" d="M96 1223v233h238v-233h-238zM317 -14v1081h211v-1081h-211zM514 1223v233h238v-233h-238z" />
<glyph unicode="&#xf0;" horiz-adv-x="1208" d="M96 485q18 266 131 399.5t342 127.5q80 0 157 -27t79 -29q-16 45 -59.5 117t-100.5 117l-203 -127l-88 135l135 84q-23 10 -72.5 21.5t-119.5 21.5l8 197q125 -6 220.5 -36t166.5 -73l185 117l94 -133q-47 -31 -83 -52.5t-57 -33.5q127 -119 200 -315.5t73 -428.5 q8 -227 -89 -409.5t-415 -196.5q-285 20 -394.5 177t-109.5 347zM317 485q-16 -311 283 -338q266 39 281 338q-47 295 -281 334q-279 -53 -283 -334z" />
<glyph unicode="&#xf1;" horiz-adv-x="1017" d="M96 1351q41 45 97.5 81t128.5 36q45 0 89 -17.5t85 -36t79.5 -33.5t77.5 -15q35 0 61.5 14t80.5 63l82 -145q-43 -45 -97.5 -78t-124.5 -33q-49 0 -93 16.5t-85 36t-80 34t-73 14.5q-41 0 -68 -16.5t-78 -61.5zM100 -14v743v344h203l10 -106q100 98 240 106 q340 -2 369 -348v-741l-216 2v600q-6 295 -155 295q-106 -12 -171 -103.5t-65 -242.5v-549h-215z" />
<glyph unicode="&#xf2;" horiz-adv-x="1032" d="M96 524q0 543 420 543t420 -543q0 -539 -420 -538q-420 0 -420 538zM108 1491h303l263 -289h-242zM301 520q0 -348 219 -344q205 0 205 348t-205 348q-219 -4 -219 -352z" />
<glyph unicode="&#xf3;" horiz-adv-x="1032" d="M96 524q0 543 420 543t420 -543q0 -539 -420 -538q-420 0 -420 538zM278 1202l262 289h301l-323 -289h-240zM301 520q0 -348 219 -344q205 0 205 348t-205 348q-219 -4 -219 -352z" />
<glyph unicode="&#xf4;" horiz-adv-x="1032" d="M96 524q0 543 420 543t420 -543q0 -539 -420 -538q-420 0 -420 538zM141 1202l248 289l252 -2l246 -287h-246l-127 156l-125 -156h-248zM301 520q0 -348 219 -344q205 0 205 348t-205 348q-219 -4 -219 -352z" />
<glyph unicode="&#xf5;" horiz-adv-x="1032" d="M96 524q0 543 420 543t420 -543q0 -539 -420 -538q-420 0 -420 538zM119 1343q41 45 97.5 81t128.5 36q45 0 89 -17.5t85 -36t79.5 -33.5t77.5 -15q35 0 61.5 14t80.5 63l82 -145q-43 -45 -97.5 -78t-124.5 -33q-49 0 -93 16.5t-85 36t-80 34t-73 14.5q-41 0 -68 -16.5 t-78 -61.5zM301 520q0 -348 219 -344q205 0 205 348t-205 348q-219 -4 -219 -352z" />
<glyph unicode="&#xf6;" horiz-adv-x="1032" d="M96 524q0 543 420 543t420 -543q0 -539 -420 -538q-420 0 -420 538zM188 1223v233h238v-233h-238zM301 520q0 -348 219 -344q205 0 205 348t-205 348q-219 -4 -219 -352zM606 1223v233h238v-233h-238z" />
<glyph unicode="&#xf7;" horiz-adv-x="1089" d="M96 614v215h897v-215h-897zM422 201v252h252v-252h-252zM422 979v252h252v-252h-252z" />
<glyph unicode="&#xf8;" horiz-adv-x="1036" d="M96 528q0 545 422 545q131 0 211 -45l27 45h174l-92 -147v6q102 -133 102 -404q0 -543 -422 -542q-131 0 -211 47l-26 -45h-168l86 137q-102 129 -103 403zM293 528q-1 -143 22 -202l316 536q-37 31 -109 31q-229 0 -229 -365zM403 195q41 -33 119 -33q219 0 219 366 q0 141 -20 199z" />
<glyph unicode="&#xf9;" horiz-adv-x="991" d="M96 1491h303l263 -289h-242zM110 340v733h215v-596q-20 -410 355 -295v287v604h215v-737v-338q-758 -172 -785 342z" />
<glyph unicode="&#xfa;" horiz-adv-x="976" d="M96 340v733h215v-596q-20 -410 355 -295v287v604h215v-737v-338q-758 -172 -785 342zM272 1202l262 289h301l-323 -289h-240z" />
<glyph unicode="&#xfb;" horiz-adv-x="976" d="M96 340v733h215v-596q-20 -410 355 -295v287v604h215v-737v-338q-758 -172 -785 342zM114 1202l248 289l252 -2l246 -287h-246l-127 156l-125 -156h-248z" />
<glyph unicode="&#xfc;" horiz-adv-x="976" d="M96 340v733h215v-596q-20 -410 355 -295v287v604h215v-737v-338q-758 -172 -785 342zM162 1223v233h238v-233h-238zM580 1223v233h238v-233h-238z" />
<glyph unicode="&#xfd;" horiz-adv-x="1024" d="M96 281v792h203v-692q-8 -139 104 -127q172 16 318 133v686h207v-1134q-6 -215 -144.5 -288t-410.5 -95l-4 188q160 20 252 46t100 153v204q-133 -96 -393 -100q-227 23 -232 234zM252 1202l262 289h301l-323 -289h-240z" />
<glyph unicode="&#xfe;" horiz-adv-x="1161" d="M96 -498v2014h232v-418q180 33 299 12q94 -20 175 -53t139 -99.5t91 -168t33 -238.5q0 -276 -150.5 -433t-427.5 -157q-45 0 -92 7t-67 14v-480h-232zM328 182q29 -10 69.5 -17t102.5 -7q72 0 130 22.5t100 69.5t66.5 119.5t24.5 173.5q0 158 -56 250t-187 110 q-145 18 -250 -29v-692z" />
<glyph unicode="&#xff;" horiz-adv-x="1024" d="M96 281v792h203v-692q-8 -139 104 -127q172 16 318 133v686h207v-1134q-6 -215 -144.5 -288t-410.5 -95l-4 188q160 20 252 46t100 153v204q-133 -96 -393 -100q-227 23 -232 234zM182 1223v233h238v-233h-238zM600 1223v233h238v-233h-238z" />
<glyph unicode="&#x2c6;" horiz-adv-x="937" d="M96 1202l248 289l252 -2l246 -287h-246l-127 156l-125 -156h-248z" />
<glyph unicode="&#x2dc;" horiz-adv-x="972" d="M96 1761q41 45 97.5 81t128.5 36q45 0 89 -17.5t85 -36t79.5 -33.5t77.5 -15q35 0 61.5 14t80.5 63l82 -145q-43 -45 -97.5 -78t-124.5 -33q-49 0 -93 16.5t-85 36t-80 34t-73 14.5q-41 0 -68 -16.5t-78 -61.5z" />
<glyph unicode="&#x2000;" horiz-adv-x="959" />
<glyph unicode="&#x2001;" horiz-adv-x="1919" />
<glyph unicode="&#x2002;" horiz-adv-x="959" />
<glyph unicode="&#x2003;" horiz-adv-x="1919" />
<glyph unicode="&#x2004;" horiz-adv-x="639" />
<glyph unicode="&#x2005;" horiz-adv-x="479" />
<glyph unicode="&#x2006;" horiz-adv-x="319" />
<glyph unicode="&#x2007;" horiz-adv-x="319" />
<glyph unicode="&#x2008;" horiz-adv-x="239" />
<glyph unicode="&#x2009;" horiz-adv-x="383" />
<glyph unicode="&#x200a;" horiz-adv-x="106" />
<glyph unicode="&#x2010;" horiz-adv-x="751" d="M96 467v215h559v-215h-559z" />
<glyph unicode="&#x2011;" horiz-adv-x="751" d="M96 467v215h559v-215h-559z" />
<glyph unicode="&#x2012;" horiz-adv-x="751" d="M96 467v215h559v-215h-559z" />
<glyph unicode="&#x2013;" horiz-adv-x="1245" d="M96 467v215h1053v-215h-1053z" />
<glyph unicode="&#x2014;" horiz-adv-x="2269" d="M96 467v215h2077v-215h-2077z" />
<glyph unicode="&#x2018;" horiz-adv-x="466" d="M96 991v277q0 236 250 235v-127q-100 0 -100 -94h125v-289z" />
<glyph unicode="&#x2019;" horiz-adv-x="466" d="M96 1212v289l275 2v-276q0 -236 -250 -236v127q100 0 100 94h-125z" />
<glyph unicode="&#x201a;" horiz-adv-x="466" d="M96 -16v288l275 2v-276q0 -236 -250 -236v127q100 1 100 95h-125z" />
<glyph unicode="&#x201c;" horiz-adv-x="774" d="M96 991v277q0 236 250 235v-127q-100 0 -100 -94h125v-289zM403 991v277q0 236 250 235v-127q-100 0 -100 -94h125v-289z" />
<glyph unicode="&#x201d;" horiz-adv-x="774" d="M96 1212v289l275 2v-276q0 -236 -250 -236v127q100 0 100 94h-125zM403 1212v289l275 2v-276q0 -236 -250 -236v127q100 0 100 94h-125z" />
<glyph unicode="&#x201e;" horiz-adv-x="774" d="M96 -16v288l275 2v-276q0 -236 -250 -236v127q100 1 100 95h-125zM403 -16v288l275 2v-276q0 -236 -250 -236v127q100 1 100 95h-125z" />
<glyph unicode="&#x2022;" horiz-adv-x="747" d="M96 766q0 57 21.5 108.5t59.5 89t89 59t109 21.5q57 0 107 -21.5t88 -59t59.5 -89t21.5 -108.5t-21.5 -108.5t-59.5 -89.5t-88 -59.5t-107 -21.5t-108.5 21.5t-89.5 59.5t-59.5 89.5t-21.5 108.5z" />
<glyph unicode="&#x2026;" horiz-adv-x="1226" d="M96 -14v215h215v-215h-215zM506 -14v215h215v-215h-215zM915 -14v215h215v-215h-215z" />
<glyph unicode="&#x202f;" horiz-adv-x="383" />
<glyph unicode="&#x2039;" horiz-adv-x="796" d="M96 547l350 467h254l-346 -465l346 -471h-254z" />
<glyph unicode="&#x203a;" horiz-adv-x="796" d="M96 78l344 471l-344 465h252l352 -467l-352 -469h-252z" />
<glyph unicode="&#x205f;" horiz-adv-x="479" />
<glyph unicode="&#x20ac;" horiz-adv-x="1388" d="M96 524v183h154v41q0 40 2 63h-156v182h172q80 518 572 518q279 0 452 -249l-149 -150q-170 186 -295 186q-276 0 -336 -305h563v-182h-586q-2 -23 -2 -63v-41h588v-183h-569q55 -332 342 -331q125 0 295 167l149 -163q-182 -211 -452 -211q-502 0 -576 538h-168z" />
<glyph unicode="&#x2122;" horiz-adv-x="1374" d="M96 1348v131h482v-131h-166v-592h-133v592h-183zM563 758l66 721h131l162 -400l139 400h121l96 -721h-135l-45 459l-111 -332h-131l-129 338l-33 -465h-131z" />
<glyph unicode="&#x25fc;" horiz-adv-x="1075" d="M0 0v1075h1075v-1075h-1075z" />
<glyph unicode="&#xfb03;" horiz-adv-x="1658" d="M96 887v186h142v166q0 270 297 270h110v-215h-102q-90 0 -90 -61v-160h340v166q0 270 297 270h90v-215h-82q-90 0 -90 -61v-160h555v-1087h-215v901h-340v-901h-215v901h-340v-901h-215v901h-142zM1348 1294v215h215v-215h-215z" />
<glyph unicode="&#xfb04;" horiz-adv-x="1818" d="M96 887v186h142v166q0 270 297 270h110v-215h-102q-90 0 -90 -61v-160h340v166q0 270 297 270h493v-1185q0 -123 139 -123v-215q-354 0 -354 342v966h-270q-90 0 -90 -61v-160h190v-186h-190v-901h-215v901h-340v-901h-215v901h-142z" />
</font>
</defs>
</svg>
